<?xml version="1.0" encoding="UTF-8" standalone="no"?>
<!-- Created with Inkscape (http://www.inkscape.org/) -->

<svg
   xmlns:dc="http://purl.org/dc/elements/1.1/"
   xmlns:cc="http://creativecommons.org/ns#"
   xmlns:rdf="http://www.w3.org/1999/02/22-rdf-syntax-ns#"
   xmlns:svg="http://www.w3.org/2000/svg"
   xmlns="http://www.w3.org/2000/svg"
   xmlns:xlink="http://www.w3.org/1999/xlink"
   xmlns:sodipodi="http://sodipodi.sourceforge.net/DTD/sodipodi-0.dtd"
   xmlns:inkscape="http://www.inkscape.org/namespaces/inkscape"
   width="300"
   height="300"
   id="svg3110"
   version="1.1"
   inkscape:version="0.48.5 r10040"
   sodipodi:docname="cylinder-over-U.svg">
  <defs
     id="defs3112" />
  <sodipodi:namedview
     id="base"
     pagecolor="#ffffff"
     bordercolor="#666666"
     borderopacity="1.0"
     inkscape:pageopacity="0.0"
     inkscape:pageshadow="2"
     inkscape:zoom="1.6452018"
     inkscape:cx="150"
     inkscape:cy="150"
     inkscape:current-layer="layer1"
     inkscape:document-units="px"
     showgrid="false"
     inkscape:window-width="1440"
     inkscape:window-height="885"
     inkscape:window-x="0"
     inkscape:window-y="0"
     inkscape:window-maximized="1" />
  <metadata
     id="metadata3115">
    <rdf:RDF>
      <cc:Work
         rdf:about="">
        <dc:format>image/svg+xml</dc:format>
        <dc:type
           rdf:resource="http://purl.org/dc/dcmitype/StillImage" />
        <dc:title></dc:title>
      </cc:Work>
    </rdf:RDF>
  </metadata>
  <g
     id="layer1"
     inkscape:label="Layer 1"
     inkscape:groupmode="layer"
     transform="translate(0,-180)">
    <path
       style="fill:#ff0000;fill-opacity:0.98293511;stroke:#fe0000;stroke-width:0;stroke-miterlimit:4;stroke-opacity:1;stroke-dasharray:none"
       id="path3120"
       d="m 140.89669,379.36699 c -1.42669,-0.0196 -2.83433,0.25471 -4.21105,0.55208 -1.77036,0.34493 -3.50277,0.81514 -5.23315,1.2846 -1.42986,0.42028 -2.89448,0.70315 -4.36616,0.98052 -1.19202,0.17805 -2.36831,0.41001 -3.53787,0.67577 -1.12852,0.2595 -2.25127,0.53502 -3.38173,0.78975 -1.68126,0.35383 -3.37285,0.66507 -5.04745,1.04306 -2.21398,0.44513 -4.41067,0.94582 -6.62659,1.38348 -2.20241,0.47125 -4.40964,0.92778 -6.58912,1.47492 -2.067474,0.44188 -4.113003,0.95058 -6.133584,1.53268 -2.028935,0.53954 -3.970313,1.26677 -5.903072,2.01828 -1.953789,0.78448 -3.787677,1.75963 -5.614278,2.74205 -2.045349,1.09383 -4.01339,2.29167 -5.952272,3.52145 -1.870762,1.16549 -3.633651,2.45276 -5.445784,3.68432 -1.375984,0.9471 -2.624941,2.00257 -3.673004,3.22462 -0.843147,1.04572 -1.439577,2.21816 -2.117862,3.34596 -0.606072,1.03692 -1.400203,1.97409 -2.097356,2.96285 -0.691744,0.92667 -1.164893,1.93692 -1.585494,2.9728 -0.421859,1.10948 -0.646997,2.27044 -0.84279,3.42418 -0.186279,1.43675 -0.258422,2.8864 -0.194539,4.33097 0.137296,1.64238 0.745409,3.20896 1.38147,4.74776 0.762498,1.72746 1.813872,3.33184 3.017648,4.85264 1.201807,1.50841 2.743368,2.7633 4.26383,4.0226 1.387071,1.14707 2.759353,2.30568 4.184804,3.41695 1.314135,1.03208 2.819189,1.8419 4.356158,2.59527 1.378622,0.67745 2.734613,1.39745 4.191498,1.94216 1.755795,0.61904 3.617098,0.97603 5.459159,1.3438 2.237085,0.39096 4.504771,0.62675 6.754473,0.95536 2.623565,0.32163 5.203725,0.8461 7.818665,1.20985 2.70801,0.42901 5.45169,0.604 8.19793,0.70314 2.92371,0.0794 5.84933,0.074 8.77414,0.0747 3.06425,0.1373 6.12561,0.16143 9.19264,0.11246 2.79334,-0.0565 5.58711,-0.0903 8.38111,-0.10825 2.61763,-0.0133 5.23531,-0.0129 7.85298,-0.0132 2.86871,0.048 5.73262,-0.0403 8.59793,-0.14576 2.8963,-0.0804 5.79125,-0.13683 8.67941,-0.35134 2.83729,-0.1941 5.66757,-0.44764 8.4966,-0.71573 2.84431,-0.30453 5.67417,-0.70343 8.49085,-1.16059 2.90651,-0.53634 5.84408,-0.92733 8.76551,-1.39395 2.57576,-0.34344 5.11113,-0.86079 7.63362,-1.42076 2.66773,-0.60856 5.23254,-1.47899 7.76704,-2.41195 2.19662,-0.84725 4.27648,-1.89297 6.33006,-2.97151 1.91167,-0.9007 3.66031,-2.02093 5.37671,-3.17277 1.39883,-0.94762 2.5341,-2.11735 3.67607,-3.28244 1.06301,-1.10166 2.0615,-2.24759 3.12516,-3.34872 0.9524,-0.94318 1.64253,-2.04448 2.31149,-3.14735 0.75252,-1.24813 1.42525,-2.53128 2.21413,-3.76253 0.87516,-1.19062 1.55706,-2.4651 2.17352,-3.76804 0.55632,-1.09401 0.96234,-2.2369 1.45912,-3.35057 0.47852,-1.11228 0.74048,-2.27934 1.04522,-3.4329 0.28966,-1.10314 0.40301,-2.23093 0.60114,-3.34746 0.19193,-1.09613 0.24627,-2.20488 0.28264,-3.31159 -0.043,-1.05834 -0.2332,-2.10408 -0.49032,-3.13747 -0.2601,-1.1313 -0.60475,-2.24718 -1.0262,-3.341 -0.32131,-0.78033 -0.51208,-1.5934 -0.85059,-2.36843 -0.39609,-0.86511 -0.87339,-1.69494 -1.36974,-2.51919 -0.62545,-1.01386 -1.36521,-1.96853 -2.05496,-2.94894 -0.48428,-0.76009 -1.19959,-1.36809 -1.90523,-1.97188 -0.74709,-0.61511 -1.45744,-1.26414 -2.23114,-1.85422 -0.79888,-0.65397 -1.76226,-1.09483 -2.76414,-1.46421 -1.08697,-0.4146 -2.19637,-0.77858 -3.30302,-1.15084 -1.15886,-0.43827 -2.34269,-0.81829 -3.55522,-1.12793 -1.38075,-0.33988 -2.76386,-0.67631 -4.1519,-0.99365 -1.25569,-0.35686 -2.51488,-0.70023 -3.78645,-1.01341 -1.14871,-0.20719 -2.29426,-0.41842 -3.43185,-0.66885 -1.11974,-0.22663 -2.24019,-0.4508 -3.35898,-0.68187 -0.97354,-0.20687 -1.97388,-0.27817 -2.97223,-0.31587 -1.00782,-0.0293 -2.004,-0.18191 -3.00869,-0.25721 -1.01679,-0.0646 -2.03646,-0.0768 -3.0555,-0.0839 -0.93617,-0.004 -1.87234,-0.003 -2.80851,-0.002 -0.83144,-0.0728 -1.65187,-0.20624 -2.48529,-0.26547 -0.94415,-0.0549 -1.89098,-0.0554 -2.8368,-0.0589 -0.99571,-0.003 -1.99141,-3.7e-4 -2.98711,3.4e-4 -0.91317,-0.0134 -1.8174,-0.0142 -2.72297,0.0905 -0.84871,0.11581 -1.70399,0.17954 -2.56167,0.2136 -0.82748,-0.0189 -1.64009,0.10966 -2.45491,0.21545 -0.6226,0.0214 -1.20494,0.20269 -1.80837,0.31474 -0.69979,0.0657 -1.37904,0.22426 -2.07173,0.32806 -0.74477,0.14422 -1.46628,0.35582 -2.19988,0.53439 -0.7799,0.16379 -1.52622,0.40388 -2.33284,0.43927 -0.6562,-0.0156 -1.306,-0.1017 -1.95928,-0.15061 -0.43363,-0.0224 -0.85756,0.12588 -1.28423,0.19174 -0.50332,0.0652 -1.012,0.0837 -1.52007,0.0934 -0.44293,0.006 -0.88593,0.003 -1.3289,0.003 -0.4307,0.0571 -0.80183,-0.11269 -1.20112,-0.20927 -0.35266,-0.0836 -0.71932,-0.10098 -1.08285,-0.1124 -0.49498,0.027 -0.96686,-0.0979 -1.43741,-0.21352 -0.28085,-0.0652 -0.56737,-0.0963 -0.85671,-0.11142 -0.38349,-0.009 -0.76724,-0.007 -1.15083,-0.006 -0.5495,7.6e-4 -1.09902,0.002 -1.64853,0.002 -0.44128,1.8e-4 -0.88256,1.8e-4 -1.32385,1.8e-4 -0.55018,0.13464 -1.11198,0.21242 -1.67955,0.26387 -0.57099,0.061 -1.15808,0.15573 -1.70394,0.31902 -0.54424,0.12833 -1.06361,0.30093 -1.58736,0.47893 -0.37334,0.0866 -0.71109,0.19224 -1.05474,0.34129 -0.27247,0.13298 -0.50353,0.30577 -0.7912,0.41843 -0.20801,0.18458 -0.50695,0.30252 -0.7872,0.37834 -0.41299,0.15569 -0.83896,0.24971 -1.28803,0.30587 -0.58902,0.0969 -0.27372,0.0393 -0.94453,0.1784 -0.5145,0.10637 -0.68795,-0.52476 -0.17346,-0.63113 l 0,0 c 0.71709,-0.1478 0.37863,-0.0863 1.01406,-0.18978 0.41238,-0.0485 0.79511,-0.13905 1.17492,-0.28424 0.26505,-0.0665 0.47899,-0.21167 0.70169,-0.35082 0.27724,-0.10288 0.48308,-0.29746 0.75925,-0.40539 0.36212,-0.15701 0.72634,-0.27515 1.11717,-0.36534 0.53553,-0.1807 1.06682,-0.35801 1.62225,-0.48988 0.60167,-0.17038 1.2363,-0.28667 1.86391,-0.34904 0.59459,-0.053 1.17355,-0.15789 1.75675,-0.26734 0.44115,0 0.88231,0 1.32346,-1.8e-4 0.54926,-2.7e-4 1.09852,-7.2e-4 1.64776,-0.002 0.39915,-5.3e-4 0.79849,-0.005 1.1975,0.008 0.34291,0.0183 0.68274,0.0568 1.01528,0.13484 0.41537,0.10222 0.82345,0.21882 1.26091,0.18935 0.42415,0.0138 0.85113,0.0376 1.26202,0.13723 0.34114,0.087 0.62776,0.23154 0.99578,0.18399 0.43703,7.1e-4 0.8741,0.003 1.3111,-0.003 0.47014,-0.009 0.94082,-0.025 1.40682,-0.0838 0.49102,-0.0739 0.97435,-0.24504 1.47841,-0.19915 0.62226,0.0469 1.24128,0.12584 1.86573,0.14869 0.74752,-0.0145 1.43464,-0.28549 2.16016,-0.41573 0.75831,-0.18378 1.50387,-0.40383 2.27465,-0.54901 0.68304,-0.10165 1.35288,-0.25971 2.04302,-0.32327 0.61794,-0.11318 1.21607,-0.29925 1.8533,-0.3218 0.83997,-0.10905 1.67864,-0.23942 2.53153,-0.22191 0.83616,-0.033 1.66988,-0.0955 2.49722,-0.20862 0.93824,-0.10775 1.87503,-0.1114 2.82089,-0.0962 0.99698,-7.1e-4 1.99396,-0.003 2.99095,-3.4e-4 0.96526,0.004 1.93157,0.005 2.89509,0.0611 0.81262,0.0586 1.61392,0.17989 2.42302,0.26326 0.93839,-7.5e-4 1.87678,-0.003 2.81517,0.002 1.03858,0.008 2.07784,0.0198 3.11409,0.0862 0.99415,0.0747 1.97997,0.22488 2.97694,0.25541 1.04568,0.04 2.09313,0.11615 3.11276,0.33289 1.12239,0.23183 2.24634,0.45698 3.36972,0.68417 1.14442,0.25193 2.29731,0.46225 3.45221,0.67359 1.26696,0.31221 2.52226,0.65297 3.77284,1.01017 1.39492,0.3193 2.78514,0.65691 4.17279,0.99872 1.23197,0.31585 2.43657,0.69917 3.61414,1.14535 1.11416,0.37511 2.23125,0.74165 3.32581,1.1589 1.07407,0.39835 2.10701,0.87383 2.96528,1.57422 0.78294,0.59951 1.50615,1.25426 2.26199,1.87918 0.7489,0.64102 1.50285,1.29025 2.01846,2.09587 0.69788,0.9929 1.4476,1.95917 2.07939,2.98642 0.51031,0.84752 0.99987,1.70142 1.40679,2.59102 0.33823,0.784 0.54147,1.60189 0.8601,2.39169 0.42863,1.1168 0.78307,2.25494 1.04789,3.40979 0.26832,1.08436 0.46856,2.18181 0.50675,3.29248 -0.0374,1.13356 -0.0941,2.26911 -0.29104,3.39177 -0.20086,1.13204 -0.3156,2.27557 -0.61133,3.39376 -0.31307,1.18383 -0.58332,2.38129 -1.07677,3.52216 -0.49914,1.11752 -0.90558,2.26495 -1.46469,3.36268 -0.62778,1.32644 -1.32216,2.6244 -2.21186,3.83711 -0.78742,1.22615 -1.45411,2.50648 -2.20583,3.74924 -0.69395,1.14358 -1.41316,2.28359 -2.40011,3.26193 -1.06498,1.10219 -2.06383,2.24989 -3.12863,3.35229 -1.17573,1.19918 -2.34768,2.40086 -3.78825,3.37533 -1.73908,1.16666 -3.51095,2.30129 -5.44701,3.21462 -2.08432,1.09419 -4.19536,2.15505 -6.42522,3.01373 -2.56915,0.94562 -5.16959,1.82673 -7.87381,2.44326 -2.53904,0.56358 -5.09107,1.08421 -7.68363,1.43029 -2.92074,0.46634 -5.85756,0.85751 -8.76338,1.3936 -2.83537,0.46007 -5.68396,0.86168 -8.54718,1.16782 -2.83486,0.26864 -5.67097,0.52262 -8.51411,0.7172 -2.89887,0.21472 -5.8044,0.27321 -8.71145,0.35312 -2.87581,0.10575 -5.75029,0.19426 -8.62951,0.14635 -2.61586,2.8e-4 -5.23173,-7e-5 -7.84755,0.0132 -2.79124,0.018 -5.58227,0.0516 -8.37287,0.10817 -3.07165,0.049 -6.13776,0.0258 -9.20658,-0.11234 -2.93514,-6.1e-4 -5.87108,0.005 -8.80511,-0.0752 -2.77549,-0.10043 -5.54838,-0.2777 -8.28531,-0.71078 -2.61678,-0.36447 -5.199049,-0.88805 -7.824395,-1.21066 -2.264242,-0.33092 -4.546861,-0.56723 -6.798011,-0.96288 -1.886322,-0.37663 -3.791596,-0.74415 -5.588514,-1.38067 -1.479386,-0.55763 -2.862883,-1.28008 -4.262456,-1.97277 -1.583968,-0.77693 -3.133775,-1.61362 -4.488074,-2.67753 -1.43101,-1.11565 -2.808978,-2.27856 -4.201361,-3.43024 -1.557822,-1.29031 -3.134179,-2.5785 -4.364083,-4.12485 -1.23859,-1.56752 -2.321876,-3.22032 -3.104979,-5.00078 -0.661288,-1.6015 -1.288354,-3.23258 -1.424786,-4.94222 -0.06325,-1.48442 0.007,-2.97387 0.202013,-4.45003 0.20351,-1.19476 0.437812,-2.39668 0.877283,-3.54511 0.43822,-1.07871 0.934766,-2.13024 1.653065,-3.09599 0.689353,-0.97561 1.471747,-1.9015 2.072107,-2.92415 0.696711,-1.15838 1.309759,-2.36245 2.181306,-3.43361 1.090285,-1.26648 2.381732,-2.36608 3.811437,-3.34762 1.81877,-1.23586 3.587855,-2.52793 5.465602,-3.69733 1.954398,-1.23934 3.937971,-2.44671 5.999591,-3.54914 1.854946,-0.99757 3.718027,-1.98675 5.702472,-2.78265 1.955688,-0.76044 3.920698,-1.49533 5.973342,-2.042 2.029875,-0.58445 4.084334,-1.09679 6.161391,-1.54016 2.19337,-0.55039 4.41446,-1.01041 6.63095,-1.48431 2.20847,-0.43619 4.39774,-0.93535 6.60433,-1.37877 1.67477,-0.3778 3.36622,-0.68987 5.04773,-1.04312 1.12998,-0.25455 2.25224,-0.52978 3.38022,-0.78941 1.17977,-0.26807 2.36634,-0.50256 3.56875,-0.68217 1.45005,-0.27282 2.893,-0.55099 4.3016,-0.96573 1.7446,-0.47302 3.49112,-0.94715 5.27589,-1.29499 1.43598,-0.30928 2.90374,-0.59178 4.39155,-0.57126 0.52892,0 0.52892,0.64882 0,0.64882 z"
       inkscape:connector-curvature="0" />
    <use
       x="0"
       y="0"
       xlink:href="#path3120"
       id="use3122"
       transform="translate(-0.83902761,-151.04725)"
       width="300"
       height="300" />
    <path
       style="fill:#ff0000;fill-opacity:0.06825939;stroke:#fe0000;stroke-width:0;stroke-miterlimit:4;stroke-opacity:1;stroke-dasharray:none"
       d="m 116.33284,446.83659 c -9.66313,-0.2305 -11.56981,-0.39278 -19.71715,-1.67822 -10.204667,-1.61005 -11.835804,-1.99707 -15.33739,-3.63917 -3.664169,-1.71834 -5.564326,-2.99749 -9.875675,-6.64815 -4.398544,-3.72448 -6.727689,-6.77007 -7.934716,-10.37544 -1.747388,-5.2194 -0.876308,-9.78056 3.001612,-15.71709 3.116914,-4.77154 4.143362,-5.81568 8.960722,-9.11518 12.389475,-8.48578 16.004353,-9.78579 43.000157,-15.464 7.03735,-1.48021 14.16384,-3.04143 15.83665,-3.46937 2.62631,-0.67188 3.04148,-0.69802 3.04148,-0.19144 0,0.70772 1.88894,0.42582 4.19513,-0.62607 3.05607,-1.39393 5.3056,-1.62183 13.21401,-1.33877 7.08189,0.25347 7.87413,0.21038 11.97271,-0.65122 4.09789,-0.86148 5.19594,-0.92126 16.5549,-0.90133 9.77779,0.0171 12.90705,0.15387 15.94153,0.69655 5.51135,0.98565 15.40248,3.48598 19.5074,4.93118 3.06107,1.07771 3.95188,1.61597 6.2927,3.80224 8.23343,7.68982 10.01054,18.41096 4.7998,28.95681 -3.82732,7.746 -9.1029,14.58978 -13.7217,17.80056 -5.26333,3.65882 -12.20955,6.74465 -18.94703,8.41717 -4.40885,1.09445 -22.32308,3.87298 -28.76544,4.46158 -7.92733,0.72426 -36.0735,1.12971 -52.0197,0.74936 l 0,0 z"
       id="path3312"
       inkscape:connector-curvature="0" />
    <use
       x="0"
       y="0"
       xlink:href="#path3312"
       id="use4082"
       transform="translate(-3.5530099e-8,-151.28463)"
       width="300"
       height="300" />
    <path
       style="fill:none;stroke:#000000;stroke-width:0.22349636;stroke-linecap:butt;stroke-linejoin:miter;stroke-miterlimit:4;stroke-opacity:1;stroke-dasharray:none"
       d="M 61.203693,229.42761 61.045951,451.34478"
       id="path4086"
       inkscape:connector-curvature="0" />
    <use
       x="0"
       y="0"
       xlink:href="#path4086"
       id="use4088"
       transform="translate(8.8097905,14.707368)"
       width="300"
       height="300" />
    <use
       x="0"
       y="0"
       xlink:href="#use4088"
       id="use4090"
       transform="translate(19.717149,9.2888635)"
       width="300"
       height="300" />
    <use
       x="0"
       y="0"
       xlink:href="#use4090"
       id="use4092"
       transform="translate(34.819646,1.9351795)"
       width="300"
       height="300" />
    <use
       x="0"
       y="0"
       xlink:href="#use4092"
       id="use4094"
       transform="translate(39.014784,-1.548144)"
       width="300"
       height="300" />
    <use
       x="0"
       y="0"
       xlink:href="#use4094"
       id="use4096"
       transform="translate(33.980619,-5.0314682)"
       width="300"
       height="300" />
    <use
       x="0"
       y="0"
       xlink:href="#use4096"
       id="use4098"
       transform="translate(20.136662,-10.449972)"
       width="300"
       height="300" />
    <use
       x="0"
       y="0"
       xlink:href="#use4098"
       id="use4100"
       transform="translate(10.487845,-17.41662)"
       width="300"
       height="300" />
    <use
       x="0"
       y="0"
       xlink:href="#use4100"
       id="use4102"
       transform="translate(5.8731933,-14.707368)"
       width="300"
       height="300" />
    <use
       x="0"
       y="0"
       xlink:href="#use4102"
       id="use4104"
       transform="translate(-4.1951381,-16.642548)"
       width="300"
       height="300" />
    <use
       x="0"
       y="0"
       xlink:href="#use4104"
       id="use4106"
       transform="translate(-16.361039,-4.644432)"
       width="300"
       height="300" />
    <use
       x="0"
       y="0"
       xlink:href="#use4106"
       id="use4108"
       transform="translate(-26.009856,-3.8703601)"
       width="300"
       height="300" />
    <use
       x="0"
       y="0"
       xlink:href="#use4108"
       id="use4110"
       transform="translate(-35.23916,0.774072)"
       width="300"
       height="300" />
    <use
       x="0"
       y="0"
       xlink:href="#use4110"
       id="use4112"
       transform="translate(-42.370894,8.9018285)"
       width="300"
       height="300" />
    <use
       x="0"
       y="0"
       xlink:href="#use4112"
       id="use4114"
       transform="translate(-31.883049,3.4833245)"
       width="300"
       height="300" />
    <path
       style="fill:#0000ff;fill-opacity:1;stroke:#0000ff;stroke-width:0.3750101;stroke-miterlimit:4;stroke-opacity:1;stroke-dasharray:none"
       id="path4120"
       d="m 131.8972,415.75559 c -0.22622,1.80988 -0.34936,3.62334 -0.62431,5.42793 -0.17959,1.42533 -0.61365,2.80753 -0.89036,4.21745 -0.14737,0.83308 -0.17808,1.67737 -0.19276,2.51964 -0.007,0.70198 -9.7e-4,1.40399 9.8e-4,2.106 0.002,0.49554 0.003,0.9911 0.003,1.48666 -0.055,0.43361 0.18846,0.78183 0.33024,1.1902 0.0671,0.47476 0.17989,0.85425 0.53259,1.20309 0.24203,0.29227 0.51214,0.3703 0.88636,0.43088 0.67329,0.0571 1.3514,0.0473 2.02693,0.0468 0.58611,-0.002 1.17221,-0.005 1.75831,-0.007 0.57649,0.078 1.03768,-0.15241 1.57106,-0.30655 0.44669,-0.16241 0.93866,-0.35999 1.34033,-0.61415 0.44569,-0.28853 0.92402,-0.52657 1.37292,-0.81351 0.45169,-0.30762 0.79936,-0.71478 1.1144,-1.14072 0.44073,-0.48375 0.71713,-1.05871 1.0715,-1.59412 0.28807,-0.50425 0.37471,-1.07311 0.42718,-1.63363 0.0222,-0.61833 0.33353,-1.18115 0.47893,-1.7783 0.10975,-0.57931 0.12865,-1.16782 0.14154,-1.75435 0.008,-0.60882 0.004,-1.21772 0.003,-1.82658 -9.7e-4,-0.43381 -0.002,-0.86763 -0.002,-1.30145 -2.3e-4,-0.407 -2e-4,-0.814 -1.9e-4,-1.221 1e-5,-0.46472 1e-5,-0.92945 2e-5,-1.39417 0,-0.47336 0,-0.9467 1e-5,-1.42006 0,-0.28015 0,-0.56032 -1e-5,-0.84048 0,-0.36482 0,-0.72965 0,-1.09448 0,-0.39733 0,-0.79466 0,-1.19199 0,-0.1053 0,-0.21062 0,-0.31593 0,-0.77407 1.18657,-0.77407 1.18657,0 l 0,0 c 0,0.10531 0,0.21063 0,0.31593 0,0.39733 0,0.79466 0,1.19199 0,0.36483 0,0.72966 0,1.09448 0,0.28016 0,0.56033 0,0.84048 0,0.47336 0,0.94671 0,1.42007 -1e-5,0.46472 -2e-5,0.92945 -3e-5,1.39417 0,0.40669 -4e-5,0.81339 1.9e-4,1.22007 3.9e-4,0.43339 9.7e-4,0.86677 0.002,1.30016 9.8e-4,0.61704 0.005,1.23413 -0.003,1.85113 -0.0147,0.66162 -0.0389,1.32566 -0.1716,1.97788 -0.1395,0.54774 -0.41201,1.06813 -0.45331,1.62951 -0.0721,0.72875 -0.20392,1.46014 -0.59677,2.10765 -0.36566,0.55078 -0.65228,1.14407 -1.1056,1.64265 -0.39787,0.53192 -0.84661,1.03939 -1.41722,1.42117 -0.46504,0.29678 -0.96077,0.54235 -1.42095,0.84263 -0.51095,0.27964 -1.06032,0.54714 -1.61735,0.73085 -0.6338,0.17749 -1.23426,0.44224 -1.91836,0.35535 -0.58687,0.002 -1.17375,0.005 -1.76063,0.007 -0.74756,3.9e-4 -1.49909,0.0137 -2.24287,-0.065 -0.61744,-0.10861 -1.14972,-0.31545 -1.55556,-0.77766 -0.44091,-0.46611 -0.71015,-0.98163 -0.78008,-1.60454 -0.16635,-0.50109 -0.45871,-0.97465 -0.38487,-1.51776 -3.8e-4,-0.49458 -9.8e-4,-0.98916 -0.003,-1.48374 -0.003,-0.70912 -0.008,-1.41828 -9.8e-4,-2.12739 0.0159,-0.90187 0.0514,-1.80578 0.21168,-2.69747 0.27526,-1.39545 0.70134,-2.76415 0.88284,-4.17433 0.27524,-1.8053 0.39454,-3.61999 0.62468,-5.43032 0.11865,-0.7663 1.29329,-0.61148 1.17463,0.15481 z"
       inkscape:connector-curvature="0" />
    <path
       style="fill:#0000ff;fill-opacity:1;stroke:#0000ff;stroke-width:0.40000001;stroke-miterlimit:4;stroke-opacity:1;stroke-dasharray:none"
       id="path4141"
       d="m 150.05474,251.96865 c -0.17358,1.24785 -0.34451,2.49742 -0.46335,3.7519 -0.0822,0.45986 0.20352,0.82099 0.34336,1.24986 0.0114,0.66156 -0.17176,0.81649 -0.0391,1.43063 0.12326,0.46048 0.18307,0.93379 0.21636,1.40822 0.0386,0.4552 0.004,0.43486 -0.019,0.0562 0.26372,0.0533 0.35996,-0.0829 0.61186,-0.24502 0.20901,-0.14536 0.45894,-0.29706 0.49289,-0.33477 0.19592,-0.27237 0.32098,-0.34894 0.63467,-0.5541 0.82009,-0.25761 1.1844,0.90218 0.36431,1.15978 l 0,0 c 0.54824,-0.50351 -0.0571,0.12789 -0.14709,0.26156 -0.43088,0.40566 -0.33614,0.19574 -0.69146,0.49271 -0.4623,0.29248 -0.95505,0.54454 -1.51758,0.409 -0.57791,-0.16407 -0.96746,-0.51116 -0.94134,-1.16134 -0.0286,-0.41859 -0.0823,-0.83574 -0.19312,-1.24149 -0.0808,-0.39048 -0.24503,-1.02597 0.0678,-1.32035 -0.16404,-0.57797 -0.55492,-1.08481 -0.39276,-1.72596 0.12143,-1.27344 0.29322,-2.54209 0.47012,-3.80879 0.12156,-0.85096 1.325,-0.67904 1.20343,0.17192 z"
       inkscape:connector-curvature="0"
       transform="translate(0,180)" />
    <path
       style="fill:#0000ff;fill-opacity:1;stroke:#0000ff;stroke-width:0.40000001;stroke-miterlimit:4;stroke-opacity:1;stroke-dasharray:none"
       id="path4145"
       d="m 150.57258,425.97139 c -0.0549,0.47474 -0.61014,2.77914 -0.0551,2.95262 -0.0207,-0.11176 0.091,-0.38119 0.0193,-0.48795 -0.0763,-0.33181 -0.22878,-0.43761 -0.52377,-0.57161 -0.20327,-0.077 -0.10525,-0.0433 -0.29349,-0.10274 -0.81761,-0.26537 -0.44231,-1.42165 0.3753,-1.15627 l 0,0 c 0.28986,0.0958 0.13733,0.0406 0.45631,0.16894 0.71655,0.36861 1.16255,0.91463 1.19845,1.74494 -0.1687,1.12114 -1.00201,1.90644 -2.12034,1.23463 -0.12801,-0.16574 -0.29,-0.31011 -0.38404,-0.49723 -0.54382,-1.08211 0.0652,-2.51039 0.1585,-3.61929 0.23615,-0.82653 1.40503,-0.49256 1.16888,0.33396 z"
       inkscape:connector-curvature="0" />
  </g>
</svg>
