<?xml version="1.0" encoding="UTF-8" standalone="no"?>
<!-- Created with Inkscape (http://www.inkscape.org/) -->

<svg
   xmlns:dc="http://purl.org/dc/elements/1.1/"
   xmlns:cc="http://creativecommons.org/ns#"
   xmlns:rdf="http://www.w3.org/1999/02/22-rdf-syntax-ns#"
   xmlns:svg="http://www.w3.org/2000/svg"
   xmlns="http://www.w3.org/2000/svg"
   xmlns:sodipodi="http://sodipodi.sourceforge.net/DTD/sodipodi-0.dtd"
   xmlns:inkscape="http://www.inkscape.org/namespaces/inkscape"
   width="150"
   height="150"
   id="svg4193"
   version="1.1"
   inkscape:version="0.48.5 r10040"
   sodipodi:docname="Novo documento 11">
  <defs
     id="defs4195" />
  <sodipodi:namedview
     id="base"
     pagecolor="#ffffff"
     bordercolor="#666666"
     borderopacity="1.0"
     inkscape:pageopacity="0.0"
     inkscape:pageshadow="2"
     inkscape:zoom="3.36"
     inkscape:cx="75"
     inkscape:cy="75"
     inkscape:current-layer="layer1"
     inkscape:document-units="px"
     showgrid="false"
     inkscape:window-width="1106"
     inkscape:window-height="691"
     inkscape:window-x="0"
     inkscape:window-y="0"
     inkscape:window-maximized="0" />
  <metadata
     id="metadata4198">
    <rdf:RDF>
      <cc:Work
         rdf:about="">
        <dc:format>image/svg+xml</dc:format>
        <dc:type
           rdf:resource="http://purl.org/dc/dcmitype/StillImage" />
        <dc:title></dc:title>
      </cc:Work>
    </rdf:RDF>
  </metadata>
  <g
     id="layer1"
     inkscape:label="Layer 1"
     inkscape:groupmode="layer"
     transform="translate(0,-330)">
    <path
       style="fill:#0000ff;fill-opacity:1;stroke:#0000ff;stroke-width:0.40000001;stroke-miterlimit:4;stroke-opacity:1;stroke-dasharray:none"
       id="path4201"
       d="m 71.140037,410.85989 c -0.348727,-0.10985 -0.712277,-0.046 -0.956169,0.23572 -0.20136,0.31883 -0.222168,0.68692 -0.243986,1.05258 -0.03457,0.3336 0.0681,0.62607 0.246493,0.89548 0.200133,0.19738 0.483844,0.23259 0.749931,0.26741 0.364108,0.039 0.71763,0.0459 1.07172,-0.048 0.297032,-0.0945 0.453766,-0.30954 0.629959,-0.54612 0.06294,-0.19935 0.0079,-0.39205 -0.05889,-0.58113 -0.171653,-0.29519 -0.421731,-0.56196 -0.720929,-0.73113 -0.382919,-0.13349 -0.81107,-0.18059 -1.21255,-0.12459 -0.319157,0.0492 -0.502577,0.20622 -0.623667,0.49048 -0.07838,0.25861 -0.08226,0.55046 0.133998,0.74013 0.256101,0.32914 0.62756,0.40986 1.018818,0.47176 0.353729,-0.012 0.766479,-0.0569 0.979011,-0.37321 0.145633,-0.22002 -0.01083,-0.26593 -0.176648,-0.38646 -0.249287,-0.18216 -0.538262,-0.29436 -0.839471,-0.35242 0.02415,0.007 -0.02734,0.0334 -0.01462,0.0364 0.09785,0.023 0.03013,0.15271 0.01865,0.26326 -0.03844,0.25082 0.05823,0.37234 0.264346,0.47557 0.278531,0.0983 0.533923,0.0896 0.794562,-0.0443 0.297214,-0.23164 0.271862,-0.56496 0.247079,-0.90382 -0.0081,-0.18248 -0.05816,-0.37324 -0.231166,-0.42946 0.0017,0.002 0.03845,0.051 0.03021,0.0632 -0.0557,0.0824 -0.144753,0.13739 -0.206436,0.2154 -0.0784,0.0992 -0.137706,0.212 -0.20643,0.31809 -0.167443,0.22723 -0.222804,0.49522 -0.09703,0.75041 0.04114,0.0644 0.325154,0.12718 0.273984,0.0931 0.163331,-0.0573 0.215193,-0.23398 0.268608,-0.38438 -0.04058,0.0638 -0.06606,-0.0895 -0.191058,-0.11608 -0.01277,-0.0144 -0.606772,-0.36314 -0.49495,-0.21872 -0.124422,0.16076 -0.130497,0.41317 -0.151639,0.61039 -0.02599,0.18656 -0.04066,0.30406 0.110852,0.38174 -0.0072,-0.0134 -0.02929,-0.0271 -0.0215,-0.0401 0.02312,-0.0387 0.0872,-0.0305 0.121073,-0.0602 0.125691,-0.11035 0.220992,-0.25243 0.313431,-0.3896 0.142457,-0.33914 0.370931,-0.76716 0.303007,-1.14813 -0.271609,0.003 -0.554482,0.0845 -0.82053,0.16045 -0.35238,0.13558 -0.709209,0.29527 -0.839832,0.67132 0.0087,0.20476 0.122624,0.34902 0.305722,0.43017 0.305577,0.14709 0.599125,0.0479 0.871407,-0.12209 0.282071,-0.24212 0.474117,-0.54831 0.459325,-0.92831 -0.0063,-0.31205 -0.205522,-0.44314 -0.471185,-0.54295 -0.23662,-0.0847 -0.36924,0.2387 -0.449942,0.41551 -0.115915,0.22953 -0.40242,0.63495 -0.235947,0.90931 0.07559,0.11224 0.206515,0.0563 0.316219,0.0264 0.301233,-0.19589 0.408747,-0.51972 0.510406,-0.84605 0.03499,-0.12333 0.171914,-0.88828 9.66e-4,-0.91807 -0.269738,0.16342 -0.514564,0.35949 -0.74321,0.5875 -0.316651,0.34497 -0.460356,0.69758 -0.338677,1.14562 0.149428,0.27662 0.38139,0.31265 0.663688,0.2887 0.351452,-0.11077 0.577931,-0.39533 0.705586,-0.72795 0.09001,-0.24689 0.07536,-0.44796 -0.177755,-0.53645 -0.349459,-0.11216 -0.677453,-0.10991 -1.013477,0.0353 -0.275475,0.19087 -0.379552,0.45163 -0.352617,0.77214 0.101099,0.24276 0.252193,0.3897 0.486729,0.49766 0.265283,-0.0547 0.459905,-0.0816 0.629923,-0.31091 0.123374,-0.20419 0.292027,-0.48572 0.147208,-0.71249 -0.294079,-0.26201 -0.673265,-0.42223 -1.043643,-0.54588 -0.346763,-0.0541 -0.530787,0.11447 -0.697475,0.39818 -0.199135,0.38319 -0.152076,0.72408 0.0029,1.10334 0.15262,0.25268 0.366063,0.39957 0.667953,0.37251 0.421025,-0.0373 0.685902,-0.35337 0.88841,-0.69506 0.178826,-0.40246 0.324752,-0.84143 0.06495,-1.23322 -0.319566,-0.29196 -0.775143,-0.35848 -1.192554,-0.33453 -0.478754,0.0267 -0.777539,0.31754 -1.0054,0.71376 -0.231845,0.46809 -0.07581,0.90356 0.140753,1.33691 0.244993,0.39932 0.66315,0.48345 1.095218,0.54585 0.520568,0.0839 0.955301,0.0361 1.352537,-0.32082 0.321541,-0.38661 0.18188,-0.88815 0.03869,-1.3237 -0.206046,-0.56064 -0.562993,-0.78439 -1.122225,-0.91071 -0.639068,-0.0356 -1.248073,0.19351 -1.762546,0.55904 -0.376709,0.3422 -0.562166,0.75049 -0.34606,1.22831 0.310895,0.5503 0.84586,0.78266 1.425959,0.95151 0.573218,0.17138 1.086222,0.10538 1.611065,-0.16121 0.439377,-0.32736 0.509291,-0.9217 0.508533,-1.43341 -0.06962,-0.68884 -0.453515,-1.17783 -0.970117,-1.59777 -0.560906,-0.37609 -0.872407,-0.35501 -1.41602,0.003 -0.573455,0.55193 -0.750828,1.29347 -0.763958,2.06389 0.05573,0.71508 0.438548,1.21952 0.977465,1.64907 0.46752,0.34663 0.950872,0.40294 1.488722,0.21165 0.56978,-0.29256 0.803886,-0.76819 0.881096,-1.38108 0.08605,-0.79355 -0.216537,-1.3937 -0.77749,-1.92473 -0.485681,-0.39314 -1.077639,-0.49561 -1.681167,-0.54879 -0.612535,-0.004 -0.946637,0.36231 -1.224368,0.86238 -0.297723,0.66098 -0.06103,1.24657 0.291071,1.82441 0.380795,0.61842 0.984429,0.94268 1.667466,1.12941 0.540967,0.10969 1.11462,0.13769 1.502782,-0.30825 0.469084,-0.56852 0.541421,-1.28594 0.466125,-1.99329 -0.12714,-0.68686 -0.619756,-1.04587 -1.264328,-1.22062 -0.780155,-0.16441 -1.443296,0.14066 -2.079731,0.55893 -0.455761,0.34727 -0.758235,0.79785 -0.762541,1.37584 0.105174,0.40357 0.512175,0.57039 0.857057,0.73624 0.425382,0.22442 0.850574,0.0932 1.270857,-0.0742 0.533253,-0.27366 0.734601,-0.77473 0.883271,-1.32306 0.05882,-0.4966 -0.151481,-0.96626 -0.525097,-1.28938 -0.573924,-0.15854 -1.153036,0.0486 -1.663105,0.3095 -0.48311,0.3229 -0.849981,0.78269 -0.777472,1.3828 0.161712,0.55804 0.634007,0.90225 1.104175,1.19749 0.472212,0.25817 0.979841,0.36746 1.510946,0.30335 0.496739,-0.12159 0.725265,-0.51159 0.883847,-0.96188 0.106777,-0.59635 -0.181685,-1.10889 -0.606236,-1.5039 -0.436258,-0.40036 -0.932864,-0.5825 -1.515276,-0.57546 -0.548825,0.0708 -1.020486,0.30749 -1.442162,0.6568 -0.318483,0.33874 -0.173577,0.80363 -0.03246,1.19542 0.228517,0.52108 0.661367,0.84588 1.155328,1.09231 0.534521,0.24507 1.004504,0.0691 1.485885,-0.19985 0.578231,-0.37666 0.842165,-0.94096 1.016002,-1.58457 0.162218,-0.59171 0.113345,-1.08339 -0.24132,-1.57929 -0.410064,-0.4644 -0.973412,-0.51228 -1.554382,-0.4948 -0.776547,0.0818 -1.311536,0.60318 -1.732809,1.2172 -0.341223,0.67218 -0.190009,1.30127 0.143067,1.93378 0.391916,0.54205 0.981262,0.92982 1.573869,1.22747 0.505819,0.22713 0.992251,0.12142 1.429755,-0.18829 0.543082,-0.49368 0.694715,-1.22313 0.717778,-1.92787 0.02543,-0.72712 -0.195889,-1.32478 -0.747043,-1.79318 -0.577129,-0.43677 -1.214244,-0.4375 -1.887677,-0.27034 -0.666935,0.2129 -1.187836,0.63147 -1.511001,1.2481 -0.21591,0.49522 -0.208141,1.00576 0.03089,1.4877 0.328483,0.4976 0.911001,0.7397 1.451755,0.93886 0.500325,0.17917 0.937258,0.18052 1.412928,-0.0465 0.565398,-0.38432 0.937516,-0.9147 1.167778,-1.54865 0.109872,-0.57839 -0.05096,-1.08793 -0.453173,-1.50909 -0.527488,-0.45014 -1.087353,-0.65478 -1.775414,-0.6152 -0.636985,0.11171 -1.108932,0.49996 -1.450763,1.031 -0.319486,0.57399 -0.275895,1.13326 -0.07842,1.73391 0.256502,0.65679 0.6992,1.17323 1.323513,1.49447 0.564792,0.26054 1.023728,-0.0294 1.484864,-0.3541 0.416331,-0.44014 0.859438,-0.89152 0.955209,-1.51125 -0.08452,-0.58273 -0.757308,-0.78957 -1.241581,-0.93603 -0.925887,-0.24844 -1.585159,-0.24345 -2.382143,0.3059 -0.585297,0.46804 -0.830984,1.14886 -1.100457,1.81945 -0.156984,0.39053 -0.70927,0.16852 -0.552286,-0.22201 l 0,0 c 0.315053,-0.78348 0.626491,-1.56143 1.322372,-2.09257 1.007298,-0.65528 1.738298,-0.6801 2.889233,-0.37917 0.794369,0.25255 1.650364,0.65627 1.649718,1.61512 -0.162819,0.77045 -0.631633,1.35729 -1.199875,1.88901 -0.652507,0.45027 -1.327533,0.76272 -2.103474,0.39176 -0.756581,-0.40894 -1.306243,-1.02672 -1.61201,-1.83916 -0.243287,-0.77744 -0.271981,-1.51484 0.148831,-2.24364 0.462173,-0.68502 1.081717,-1.17673 1.921694,-1.29737 0.866318,-0.0278 1.5946,0.22323 2.243885,0.81219 0.528136,0.61294 0.762432,1.30681 0.568395,2.1137 -0.293848,0.77963 -0.760642,1.43488 -1.478533,1.88314 -0.626644,0.27726 -1.21707,0.2999 -1.86703,0.0632 -0.691049,-0.25724 -1.395122,-0.58763 -1.785009,-1.24662 -0.295315,-0.66676 -0.326934,-1.34809 -0.01452,-2.02119 0.420367,-0.75997 1.056163,-1.28899 1.896439,-1.54401 0.866543,-0.20018 1.689389,-0.1668 2.418805,0.40221 0.672365,0.60565 0.983873,1.3492 0.948816,2.26527 -0.04461,0.90104 -0.260404,1.7935 -0.982071,2.398 -0.63638,0.40777 -1.316085,0.55314 -2.029804,0.22385 -0.701763,-0.35999 -1.390892,-0.81953 -1.833142,-1.48506 -0.425834,-0.83821 -0.574999,-1.68242 -0.102756,-2.54684 0.540573,-0.76783 1.228588,-1.38485 2.206158,-1.47226 0.788305,-0.0172 1.528359,0.10985 2.059165,0.75122 0.46479,0.68865 0.52974,1.27156 0.325699,2.07577 -0.222851,0.79795 -0.579915,1.4937 -1.303897,1.94872 -0.658946,0.35537 -1.324984,0.54519 -2.039867,0.20935 -0.632206,-0.3215 -1.169073,-0.757 -1.449879,-1.42916 -0.217423,-0.64784 -0.321644,-1.33133 0.219917,-1.8523 0.533692,-0.42627 1.124875,-0.72462 1.815141,-0.78982 0.739156,0.002 1.379648,0.23376 1.930483,0.74218 0.585418,0.57903 0.945369,1.29735 0.752212,2.13662 -0.249853,0.66581 -0.640979,1.19735 -1.376111,1.34914 -0.668498,0.0716 -1.306988,-0.0599 -1.896807,-0.39228 -0.632766,-0.40533 -1.214982,-0.88489 -1.378856,-1.65715 -0.03945,-0.89838 0.362978,-1.47388 1.10651,-1.95884 0.736327,-0.35693 1.558673,-0.6228 2.330985,-0.21419 0.522978,0.50072 0.816132,1.15108 0.695507,1.88614 -0.205846,0.73021 -0.522379,1.37674 -1.241264,1.71896 -0.577348,0.2201 -1.16798,0.35681 -1.747028,0.0546 -0.567555,-0.27907 -1.112951,-0.59855 -1.19154,-1.28785 0.03199,-0.77729 0.405505,-1.39502 1.032548,-1.85811 0.788247,-0.51 1.617932,-0.84793 2.572552,-0.63134 0.873646,0.27113 1.530153,0.78749 1.688951,1.73407 0.07996,0.88875 -0.03178,1.7714 -0.637013,2.47118 -0.672191,0.6266 -1.218248,0.62585 -2.087667,0.46039 -0.823312,-0.24262 -1.556012,-0.63964 -2.014345,-1.39522 -0.458276,-0.77163 -0.706683,-1.5665 -0.297671,-2.42631 0.407323,-0.69771 0.940576,-1.18161 1.79452,-1.1599 0.740757,0.0679 1.456339,0.21874 2.041414,0.71355 0.687197,0.67472 1.065381,1.45125 0.953072,2.4376 -0.131496,0.83652 -0.485749,1.49252 -1.282656,1.8612 -0.738145,0.2332 -1.416022,0.16456 -2.049273,-0.31263 -0.682514,-0.55266 -1.145373,-1.22264 -1.199561,-2.12841 0.03216,-0.97219 0.277979,-1.89135 1.040876,-2.55157 0.792299,-0.48627 1.333518,-0.49384 2.111431,0.0397 0.655213,0.54065 1.118977,1.18972 1.188027,2.06477 -0.01553,0.74934 -0.165944,1.52499 -0.840367,1.9606 -0.662816,0.31987 -1.326476,0.41426 -2.043659,0.19808 -0.757605,-0.22813 -1.436315,-0.57152 -1.811821,-1.30728 -0.284996,-0.80881 -0.06762,-1.36799 0.56176,-1.93221 0.66407,-0.45256 1.425535,-0.73419 2.240777,-0.64887 0.753833,0.18878 1.280566,0.55214 1.550851,1.30985 0.210191,0.68372 0.315691,1.39218 -0.221319,1.95749 -0.546395,0.4459 -1.12809,0.57439 -1.825358,0.45542 -0.62974,-0.0967 -1.20382,-0.2831 -1.540384,-0.86986 -0.30692,-0.62173 -0.454627,-1.25689 -0.118133,-1.90766 0.346215,-0.56129 0.805846,-0.96643 1.494253,-1.00255 0.647984,-0.0143 1.298078,0.11014 1.731453,0.63478 0.324781,0.61853 0.237084,1.22465 -0.07517,1.83968 -0.32554,0.51566 -0.750683,0.94172 -1.394279,0.97843 -0.550142,-0.0197 -0.962954,-0.24544 -1.22112,-0.74511 -0.22386,-0.56114 -0.250146,-1.09772 0.04701,-1.64567 0.33655,-0.50464 0.768241,-0.78136 1.39089,-0.64214 0.524226,0.18032 1.075218,0.40988 1.401192,0.8792 0.17156,0.48174 0.05886,0.9183 -0.243445,1.3294 -0.360575,0.39497 -0.80552,0.57312 -1.341064,0.46051 -0.424546,-0.21055 -0.712958,-0.52817 -0.822478,-0.99974 -0.02415,-0.58522 0.207015,-1.05916 0.726225,-1.35906 0.500229,-0.18973 0.990902,-0.20974 1.497472,-0.0162 0.510144,0.28142 0.673621,0.7421 0.464627,1.29737 -0.233177,0.54055 -0.617568,0.97125 -1.217908,1.09488 -0.579755,0.029 -1.043784,-0.17336 -1.278638,-0.73674 -0.159085,-0.66115 0.03322,-1.21563 0.497202,-1.71486 0.437301,-0.42937 1.039329,-0.97338 1.644211,-0.51287 0.269321,0.45566 0.217529,0.94712 0.08418,1.44592 -0.167423,0.52437 -0.396141,1.02093 -0.936214,1.24492 -0.428866,0.0985 -0.833622,0.007 -1.026633,-0.42846 -0.119063,-0.4848 0.0013,-0.93017 0.270413,-1.34804 0.237951,-0.4627 0.626487,-0.91886 1.20357,-0.70613 0.491509,0.20155 0.836012,0.5451 0.84684,1.10705 -0.02799,0.59265 -0.271875,1.07146 -0.752794,1.43065 -0.464927,0.26285 -0.96077,0.38308 -1.461585,0.1296 -0.436557,-0.26346 -0.679016,-0.65341 -0.5681,-1.17628 0.238238,-0.53975 0.675294,-0.83233 1.228945,-1.01869 0.574302,-0.16058 1.323402,-0.35565 1.575491,0.36304 0.02464,0.53758 -0.151898,1.06751 -0.407093,1.53671 -0.302786,0.42765 -0.656956,0.8238 -1.226091,0.65008 -0.334998,-0.23341 -0.441154,-0.54582 -0.378567,-0.94591 0.04599,-0.41224 0.109504,-0.8514 0.494674,-1.08638 0.413313,-0.13046 0.642617,-0.0168 0.98613,0.21594 0.350803,0.17802 0.555042,0.45548 0.507794,0.8635 -0.127291,0.34323 -0.314801,0.65287 -0.6898,0.75956 -0.401328,0.0458 -0.722581,-0.0965 -0.957915,-0.43474 -0.18283,-0.44812 -0.140881,-0.90993 0.143459,-1.3116 0.265736,-0.40948 0.56422,-0.89251 1.119747,-0.81859 0.38015,0.17974 0.563718,0.51608 0.587367,0.93468 0.03813,0.59329 -0.04471,1.14325 -0.590514,1.48434 -0.441164,0.19284 -0.878791,0.22221 -1.329696,0.0271 -0.408914,-0.23259 -0.63276,-0.58167 -0.570988,-1.0662 0.05283,-0.43156 0.192761,-0.83093 0.702757,-0.81566 0.388393,0.0782 0.759768,0.22383 1.081131,0.46013 0.461292,0.35329 0.628111,0.71488 0.282785,1.23649 -0.398987,0.45754 -0.93633,0.61482 -1.537983,0.5869 -0.52279,-0.0873 -1.021096,-0.22994 -1.36664,-0.66232 -0.334919,-0.41075 -0.419307,-0.87634 -0.233197,-1.38143 0.219756,-0.472 0.571441,-0.75679 1.096454,-0.83722 0.534487,-0.0558 1.091554,-0.0143 1.588202,0.20495 0.411491,0.25482 0.767403,0.60892 0.978327,1.04886 0.127575,0.38026 0.17886,0.76459 -0.02679,1.12968 -0.256475,0.34438 -0.529424,0.6401 -0.958426,0.7669 -0.430004,0.10885 -0.859124,0.11323 -1.299527,0.0617 -0.442594,-0.0602 -0.87216,-0.16511 -1.167569,-0.52911 -0.250095,-0.37876 -0.382152,-0.79927 -0.344116,-1.25982 0.03163,-0.5135 0.08945,-1.01605 0.416634,-1.43682 0.449419,-0.42125 1.001065,-0.57155 1.598732,-0.36809 0.390793,0.15632 0.169727,0.70898 -0.221066,0.55266 z"
       inkscape:connector-curvature="0" />
    <path
       style="fill:#000000;fill-opacity:1;stroke:#0000ff;stroke-width:0.40000001;stroke-miterlimit:4;stroke-opacity:1;stroke-dasharray:none"
       id="path4203"
       d="m 71.192202,410.01814 c -0.436507,-0.13712 -0.867259,-0.1005 -1.312069,-0.0457 -0.281458,0.0784 -0.530728,0.19499 -0.749982,0.38723 -0.02929,0.0725 -0.549032,0.26332 -0.369036,0.22112 -0.02348,0.15859 -0.174238,0.25811 -0.224279,0.40174 -0.153843,0.18147 -0.274522,0.34685 -0.336159,0.57633 -0.04583,0.25657 -0.04622,0.51806 -0.04877,0.77781 -0.03716,0.22087 0.05925,0.32243 0.151588,0.50613 0.101711,0.18669 0.245888,0.35657 0.338277,0.56354 0.133723,0.17246 0.246276,0.35187 0.377767,0.52434 0.123008,0.16367 0.297978,0.28892 0.457182,0.41938 0.158708,0.13184 0.35875,0.18162 0.540774,0.27942 0.176675,0.12018 0.383177,0.15142 0.590126,0.17811 0.253722,0.02 0.508577,0.0165 0.762875,0.0164 0.31301,-0.0558 0.57796,-0.21581 0.85917,-0.35139 0.18312,-0.10399 0.445783,-0.23044 0.574524,-0.40201 0.118197,-0.16057 0.233441,-0.31628 0.315231,-0.49853 0.06542,-0.15257 0.08629,-0.32198 0.09428,-0.48689 0.006,-0.20541 0.0034,-0.41099 0.0024,-0.61647 -0.108932,-0.2102 -0.187111,-0.43089 -0.238793,-0.66158 -0.113137,-0.20864 -0.229776,-0.40998 -0.396793,-0.58092 -0.213297,-0.17954 -0.479831,-0.28934 -0.720596,-0.43254 -0.243673,-0.12821 -0.466775,-0.27781 -0.730544,-0.36478 -0.239417,-0.0619 -0.461492,-0.084 -0.694019,-0.003 -0.235369,0.10421 -0.483419,0.17 -0.737552,0.20584 -0.249739,0.025 -0.500911,0.0252 -0.751608,0.0256 -0.198193,0.002 -0.383728,0.13309 -0.578439,0.19946 -0.147829,0.10925 -0.270987,0.24632 -0.396096,0.37991 -0.120414,0.17666 -0.259628,0.32814 -0.357892,0.52113 -0.05195,0.23474 -0.05239,0.47786 -0.05649,0.71722 -0.0028,0.25716 -5.81e-4,0.51433 7.18e-4,0.7715 -0.02982,0.22587 0.02069,0.34157 0.109045,0.53343 0.08864,0.17715 0.295329,0.29183 0.445408,0.43749 0.14508,0.14227 0.300735,0.23167 0.493575,0.2848 0.183077,0.0279 0.368487,0.026 0.55311,0.0261 0.33556,0.0838 0.683073,0.0409 1.024313,0.025 0.260543,-0.014 0.521311,-0.022 0.782155,-0.0273 0.194278,-0.003 0.388578,-0.002 0.582868,-0.002 0.193732,0.0215 0.269603,0.002 0.414,-0.0899 0.202366,-0.0776 0.386566,-0.159 0.565289,-0.28093 0.154397,-0.11903 0.296761,-0.22667 0.34284,-0.42168 0.0202,-0.27483 0.151936,-0.51417 0.249995,-0.76632 0.06363,-0.20773 0.08274,-0.42227 0.09118,-0.63804 0.03966,-0.22191 -0.01748,-0.34619 -0.104056,-0.53545 -0.06932,-0.21894 -0.221062,-0.38971 -0.328089,-0.58914 -0.151678,-0.14089 -0.222721,-0.33836 -0.382688,-0.46731 -0.26778,-0.0618 -0.512011,-0.19411 -0.775775,-0.27254 -0.248303,-0.0715 -0.506935,-0.0929 -0.763957,-0.10375 -0.190269,-0.006 -0.380691,-0.004 -0.571026,-0.003 -0.261735,9.9e-4 -0.523471,0.001 -0.785208,0.002 -0.181078,-0.005 -0.356906,0.13476 -0.513803,0.24613 -0.135101,0.14332 -0.197504,0.29914 -0.222399,0.49044 -0.0261,0.26572 -0.02043,0.53346 -0.01932,0.80013 0.0019,0.25715 0.0032,0.5143 0.004,0.77145 0.105501,0.17328 0.180346,0.37763 0.234294,0.57739 -0.0012,0.23896 0.113312,0.36705 0.213867,0.57039 0.05175,0.13238 0.210379,0.23235 0.359893,0.32905 0.175239,0.0654 0.363342,0.0763 0.548499,0.0841 0.511919,0.0213 0.44614,-0.1531 0.298326,0.59677 -0.228172,0.0486 -0.4466,0.14906 -0.720113,0.12775 -0.295213,-0.054 -0.594489,-0.0721 -0.880425,-0.16381 -0.263664,-0.0904 -0.439718,-0.30536 -0.646603,-0.47984 -0.175321,-0.12827 -0.222146,-0.3437 -0.333815,-0.5179 -0.144368,-0.17798 -0.209702,-0.3892 -0.244438,-0.61177 -0.03405,-0.27018 0.131296,-0.50541 0.206859,-0.75603 0.04875,-0.2132 0.06268,-0.43091 0.07063,-0.64869 0.05228,-0.24381 0.185774,-0.45098 0.25919,-0.68795 0.07297,-0.27061 0.260003,-0.47091 0.49801,-0.60507 0.224569,-0.0588 0.381642,-0.12543 0.579819,-0.22699 0.218115,-0.0886 0.446273,-0.15401 0.679958,-0.18293 0.240484,-0.017 0.481993,-0.0125 0.722932,-0.0121 0.264997,7.5e-4 0.529995,0.001 0.794993,0.002 0.266601,-0.0162 0.503874,0.002 0.74943,0.11399 0.358854,0.19699 0.551591,0.48759 0.695432,0.86002 0.133512,0.39916 -0.430986,0.58797 -0.564498,0.18881 l 0,0 c -0.05045,-0.22779 -0.195857,-0.38388 -0.387152,-0.51155 -0.153439,-0.079 -0.314395,-0.0583 -0.493988,-0.056 -0.265103,-3.5e-4 -0.530206,-9.8e-4 -0.795308,-0.002 -0.218997,-4.1e-4 -0.438403,-0.004 -0.657116,0.008 -0.162433,0.0126 -0.318787,0.0733 -0.47321,0.12095 -0.184337,0.0945 -0.367227,0.18445 -0.570237,0.22196 -0.105021,0.0492 -0.181945,0.13617 -0.210856,0.25771 -0.05801,0.18478 -0.123186,0.37153 -0.232567,0.53258 -0.01004,0.26904 -0.02978,0.53818 -0.09608,0.80024 -0.05616,0.18271 -0.196589,0.44649 -0.186754,0.49997 0.01556,0.14649 0.06265,0.26144 0.157802,0.3758 0.08308,0.13231 0.128829,0.29711 0.214994,0.38163 0.157581,0.13322 0.276995,0.29458 0.465039,0.37487 0.220946,0.1074 0.504868,0.0558 0.738899,0.13144 0.22946,0.0374 0.415699,-0.16698 0.665357,-0.13084 0.15189,0.7616 0.230346,0.59624 -0.331104,0.59308 -0.290965,-0.0136 -0.585011,-0.04 -0.846776,-0.17995 -0.223367,-0.1463 -0.45277,-0.31709 -0.569156,-0.56511 -0.107991,-0.22112 -0.256226,-0.422 -0.254986,-0.68014 -0.06531,-0.25103 -0.20991,-0.47054 -0.254278,-0.72869 -7.1e-4,-0.25688 -0.0021,-0.51375 -0.004,-0.77062 -0.0012,-0.29725 -0.0073,-0.59582 0.02602,-0.89169 0.05756,-0.35131 0.194204,-0.64881 0.46776,-0.88771 0.252888,-0.17757 0.535665,-0.36108 0.856464,-0.35502 0.261082,-2.2e-4 0.522164,-6.1e-4 0.783244,-0.002 0.199652,-8.3e-4 0.399397,-0.003 0.598974,0.004 0.307118,0.0134 0.615508,0.0421 0.911772,0.12899 0.337999,0.10464 0.670621,0.24175 0.989074,0.38939 0.213124,0.18745 0.348395,0.43175 0.526788,0.65032 0.09413,0.21182 0.281514,0.38001 0.339402,0.61268 0.118836,0.26435 0.199722,0.51112 0.156802,0.80574 -0.01186,0.28138 -0.041,0.56136 -0.131357,0.83007 -0.09522,0.24358 -0.21846,0.46171 -0.236594,0.72818 -0.109325,0.31669 -0.299832,0.54594 -0.576384,0.73597 -0.183619,0.12424 -0.373138,0.23032 -0.586269,0.29454 -0.228927,0.1397 -0.458679,0.20727 -0.727599,0.17909 -0.190198,-5e-5 -0.380405,-4.3e-4 -0.570592,0.002 -0.255658,0.005 -0.511241,0.0131 -0.766603,0.0268 -0.347568,0.0162 -0.712819,0.0651 -1.052478,-0.0244 -0.239112,-2.2e-4 -0.479992,0.001 -0.715148,-0.0488 -0.290651,-0.0841 -0.53865,-0.22678 -0.755654,-0.44026 -0.181537,-0.20532 -0.460813,-0.32993 -0.561681,-0.60614 -0.1158,-0.25256 -0.195058,-0.49719 -0.16339,-0.77893 -0.0013,-0.26164 -0.0035,-0.52329 -6.34e-4,-0.78493 0.0059,-0.32869 0.0038,-0.66789 0.122397,-0.9792 0.125048,-0.241 0.298143,-0.43576 0.452762,-0.6557 0.193205,-0.20614 0.383786,-0.41966 0.646174,-0.53892 0.254176,-0.0756 0.483229,-0.25433 0.761774,-0.22871 0.223774,-3.5e-4 0.447877,-2.7e-4 0.670991,-0.02 0.219937,-0.0297 0.431765,-0.0929 0.635321,-0.18236 0.359251,-0.11196 0.70537,-0.0986 1.067027,0.005 0.303974,0.10319 0.565659,0.26812 0.845711,0.41761 0.289205,0.17216 0.611274,0.30145 0.853084,0.53976 0.228287,0.2546 0.422076,0.53824 0.541984,0.86061 0.05421,0.2732 0.210004,0.50662 0.251979,0.78342 10e-4,0.21746 0.0039,0.43505 -0.0033,0.65242 -0.01452,0.23894 -0.04863,0.48087 -0.147207,0.70113 -0.113335,0.24481 -0.265458,0.46364 -0.435944,0.67224 -0.218529,0.20138 -0.470381,0.3906 -0.738188,0.51778 -0.361315,0.17144 -0.706736,0.37249 -1.1158,0.40974 -0.280185,1.8e-4 -0.561109,0.004 -0.840445,-0.0214 -0.277929,-0.0368 -0.556178,-0.09 -0.796015,-0.2447 -0.217089,-0.11828 -0.462805,-0.17814 -0.646554,-0.35238 -0.184713,-0.16383 -0.399795,-0.30296 -0.543633,-0.51173 -0.159375,-0.21479 -0.309467,-0.43064 -0.453069,-0.65652 -0.06247,-0.20028 -0.2563,-0.33367 -0.323964,-0.53143 -0.110396,-0.25246 -0.264093,-0.47498 -0.210497,-0.77027 0.0031,-0.31152 0.005,-0.62556 0.07057,-0.93163 0.07254,-0.25419 0.175717,-0.49156 0.373296,-0.67491 0.08062,-0.15388 0.190517,-0.27224 0.242477,-0.43654 0.125131,-0.19611 0.299519,-0.2763 0.49801,-0.37848 0.310612,-0.26547 0.667257,-0.43606 1.066576,-0.52757 0.505415,-0.0618 1.005268,-0.0957 1.50131,0.0528 0.412723,0.0825 0.295987,0.66622 -0.116736,0.58368 z"
       inkscape:connector-curvature="0" />
    <path
       style="fill:#000000;fill-opacity:1;stroke:#000000;stroke-width:0.40000001;stroke-miterlimit:4;stroke-opacity:1;stroke-dasharray:none"
       id="path4213"
       d="m 51.827094,407.73982 c 0.103931,-0.50856 0.277744,-1.01271 0.579524,-1.43783 0.172937,-0.23812 0.434786,-0.35843 0.716219,-0.41063 0.40342,-0.0409 0.660408,0.26987 0.838238,0.58616 0.134429,0.38613 0.233826,0.78572 0.331019,1.18377 0.122892,0.47503 0.146352,0.96567 0.164729,1.45351 0.01267,0.47732 0.01028,0.95489 0.0096,1.43233 -10e-4,0.49131 -0.0015,0.98262 -0.0019,1.47393 -1.88e-4,0.28315 -2.53e-4,0.56629 -2.63e-4,0.84944 -1e-6,0.23078 8e-6,0.46156 1.2e-5,0.69233 3e-6,0.18776 4e-6,0.37551 5e-6,0.56327 -0.03275,-0.0156 0.02222,0.0708 0,0.0674 -0.693304,-0.1046 -0.595238,-0.0128 -0.595238,-0.4858 0,-0.29973 0,-0.59946 0,-0.89919 -0.0031,-0.45667 0.141016,-0.89838 0.220251,-1.34575 0.0594,-0.35976 0.0703,-0.72422 0.07688,-1.08797 -0.02053,-0.3832 0.136609,-0.74012 0.226289,-1.10504 0.04654,-0.25997 0.07662,-0.50851 0.180646,-0.75409 0.105151,-0.31626 0.255896,-0.61689 0.435475,-0.89678 0.183782,-0.26462 0.449964,-0.44811 0.723,-0.61118 0.232057,-0.13557 0.435008,-0.3018 0.683285,-0.40935 0.19467,-0.0799 0.406655,-0.10047 0.614962,-0.11184 0.362201,0.10856 0.504029,0.37458 0.61546,0.71439 0.184459,0.35475 0.279051,0.7361 0.33484,1.12911 0.05219,0.49559 0.05542,0.99452 0.05811,1.49231 -0.0064,0.50508 0.136719,0.99726 0.210899,1.49465 0.05569,0.37164 0.07391,0.74716 0.08357,1.12235 0.0039,0.22575 0.0027,0.45154 0.0018,0.6773 -0.0026,0.29394 0.05037,0.23118 -0.59619,0.042 -0.0084,-0.002 -3.78e-4,-0.27162 -3.84e-4,-0.28442 -3.6e-5,-0.13249 0,-0.26499 6.6e-5,-0.39749 -0.01987,-0.21467 0.296602,0.2197 0.368567,0.28186 -0.0554,0.31803 -0.06276,0.64162 -0.07058,0.96357 -0.02145,0.26945 0.108008,0.51524 0.196453,0.76427 0.093,0.27277 0.158438,0.23618 -0.492176,0.0604 -0.02136,-0.006 0.0061,-0.0439 0.0077,-0.0659 0.0043,-0.0597 0.0042,-0.13988 0.0049,-0.19879 -0.0019,-0.26325 -0.0082,-0.52644 -0.01147,-0.78967 0.02784,-0.23268 -0.02569,-0.28236 -0.1126,-0.47475 -0.112889,-0.25753 -0.154514,-0.53722 -0.177581,-0.8152 -0.02212,-0.25289 -0.02436,-0.49475 0.03931,-0.74007 0.13068,-0.28851 0.180398,-0.59777 0.215705,-0.90955 0.02946,-0.32517 0.03222,-0.6518 0.03383,-0.97803 -0.0369,-0.3112 0.04962,-0.58756 0.149991,-0.87686 0.07844,-0.20106 0.120181,-0.41099 0.136847,-0.62545 0.06878,-0.22625 0.188415,-0.43017 0.275082,-0.65061 0.0473,-0.13954 0.08205,-0.24439 0.195001,-0.37659 0.217213,-0.15591 0.419005,-0.31816 0.660638,-0.43747 0.212542,-0.13003 0.420297,-0.24942 0.661226,-0.32474 0.219485,-0.11841 0.522222,-0.01 0.734371,-0.11628 0.228787,-0.12616 0.481835,-0.18855 0.736401,-0.23673 0.287945,-0.0532 0.558618,0.11567 0.787774,0.26923 0.254176,0.20093 0.354413,0.49936 0.403129,0.80719 0.03094,0.34473 0.02402,0.69169 0.02313,1.03747 -0.0013,0.2799 -0.0027,0.55981 -0.0032,0.83972 -4.69e-4,0.29482 -4.83e-4,0.58964 -5.1e-4,0.88447 -7e-6,0.23371 1.1e-5,0.46742 1.8e-5,0.70112 8e-6,0.2771 8e-6,0.5542 9e-6,0.8313 10e-7,0.25664 0,0.51328 0,0.76992 0,0.21773 0,0.43547 0,0.6532 0.03087,0.2756 -0.14365,0.49075 -0.235738,0.73271 -0.04417,0.13156 -0.05022,0.38115 -0.04196,0.44195 0.09958,0.0811 0.122619,0.20557 0.214451,0.26832 0.175085,0.0703 -0.09174,0.0605 0.133666,-0.0475 0.276605,-0.10306 0.184274,-0.0847 0.389511,-0.24895 0.131101,-0.11038 0.06475,-0.0541 0.199009,-0.16906 0.319663,-0.27381 0.706883,0.17826 0.387221,0.45207 l 0,0 c -0.142477,0.12201 -0.07067,0.0611 -0.215439,0.18264 -0.15988,0.12643 -0.304691,0.26443 -0.506108,0.32153 -0.26604,0.1231 -0.513956,0.18361 -0.75657,-0.0235 -0.178695,-0.14804 -0.289869,-0.34579 -0.408545,-0.54181 -0.06705,-0.28843 -0.036,-0.56627 0.04965,-0.85059 0.06825,-0.17428 0.201013,-0.33023 0.195616,-0.51787 0,-0.21773 0,-0.43547 0,-0.6532 0,-0.25664 0,-0.51328 0,-0.76992 -1e-6,-0.27709 -2e-6,-0.55418 -9e-6,-0.83128 -7e-6,-0.23373 -2.5e-5,-0.46746 -1.8e-5,-0.7012 2.7e-5,-0.29519 4.1e-5,-0.59038 5.11e-4,-0.88557 5.46e-4,-0.28003 0.0019,-0.56006 0.0032,-0.84009 8.12e-4,-0.31532 0.0061,-0.63137 -0.01631,-0.94609 -0.02143,-0.14812 -0.04912,-0.31347 -0.165781,-0.41636 -0.09423,-0.0914 -0.267278,-0.17182 -0.326768,-0.16491 -0.234934,0.0438 -0.459627,0.10909 -0.672627,0.22106 -0.244737,0.0623 -0.493532,0.0558 -0.739001,0.11766 -0.212995,0.0569 -0.376386,0.18614 -0.568227,0.28847 -0.172292,0.0837 -0.344182,0.21496 -0.48232,0.30348 -0.03221,-0.12427 -0.02318,0.0951 -0.08156,0.19425 -0.06481,0.16433 -0.123896,0.34416 -0.235751,0.48208 -0.02316,0.26378 -0.07197,0.52366 -0.167885,0.77162 -0.08193,0.23454 -0.155197,0.42735 -0.116892,0.68406 -0.0017,0.34779 -0.0051,0.69603 -0.03767,1.04259 -0.04078,0.35468 -0.09923,0.70768 -0.244665,1.03691 -0.02418,0.13958 -0.0226,0.33404 -0.0085,0.49677 0.01693,0.21145 0.04377,0.42602 0.1285,0.62244 0.100352,0.23315 0.198869,0.44675 0.16361,0.7086 0.0033,0.26839 0.0099,0.53674 0.01146,0.80514 -0.0052,0.33461 -0.201404,1.33956 -0.676496,0.39541 -0.112579,-0.31699 -0.260463,-0.6333 -0.2306,-0.97804 0.01033,-0.41977 0.0034,-0.85608 0.154203,-1.25355 0.144956,-0.19533 0.628464,-0.58723 0.738111,0.023 -6.6e-5,0.13229 -1.02e-4,0.26458 -6.6e-5,0.39687 6e-6,0.0123 0.0081,0.27981 3.78e-4,0.28207 -0.647509,0.18801 -0.594263,0.25153 -0.594276,-0.0417 8.55e-4,-0.21991 0.002,-0.43984 -0.0016,-0.65974 -0.009,-0.35104 -0.02527,-0.70245 -0.07732,-1.0502 -0.07758,-0.52529 -0.228866,-1.04463 -0.217342,-1.57885 -0.0025,-0.47146 -0.0052,-0.94395 -0.05244,-1.4135 -0.04899,-0.36104 -0.146121,-0.70251 -0.311993,-1.02908 -0.02691,-0.0864 -0.05239,-0.21458 -0.117473,-0.28252 -0.02242,-0.0234 -0.107677,-0.0546 -0.07587,-0.0608 0.05921,-0.0115 0.117468,0.0275 0.176202,0.0413 -0.139137,0.007 -0.282883,0.0153 -0.41389,0.0653 -0.224325,0.0924 -0.396456,0.26243 -0.612069,0.3733 -0.199245,0.11744 -0.395309,0.23975 -0.531323,0.42908 -0.17154,0.24227 -0.283853,0.52612 -0.384877,0.80372 -0.09504,0.21194 -0.09347,0.43604 -0.149339,0.66176 -0.08126,0.32084 -0.222106,0.63588 -0.208624,0.97158 -0.0073,0.39495 -0.0205,0.79059 -0.08593,1.18104 -0.07338,0.41319 -0.206873,0.82156 -0.211104,1.24181 0,0.29973 0,0.59946 0,0.89919 0,0.47296 0.09807,0.3812 -0.595238,0.4858 -0.02222,0.003 0.03275,-0.083 0,-0.0674 -10e-7,-0.18776 -2e-6,-0.37551 -5e-6,-0.56326 -4e-6,-0.23079 -1.3e-5,-0.46158 -1.2e-5,-0.69236 1e-5,-0.28328 7.5e-5,-0.56655 2.63e-4,-0.84983 3.31e-4,-0.49147 8.43e-4,-0.98295 0.0019,-1.47442 7.08e-4,-0.4697 0.0031,-0.93952 -0.0091,-1.40911 -0.01674,-0.44797 -0.03536,-0.89896 -0.148308,-1.33526 -0.08417,-0.34808 -0.180281,-0.69299 -0.2743,-1.03771 -0.08397,-0.15844 -0.176823,-0.29609 -0.214111,-0.28643 -0.13172,0.0198 -0.256898,0.0601 -0.336124,0.17277 -0.259072,0.34999 -0.386821,0.78497 -0.478387,1.20606 -0.08254,0.41273 -0.666223,0.29599 -0.583679,-0.11673 z"
       inkscape:connector-curvature="0" />
    <path
       style="fill:#000000;fill-opacity:1;stroke:#000000;stroke-width:0.40000001;stroke-miterlimit:4;stroke-opacity:1;stroke-dasharray:none"
       id="path4215"
       d="m 115.11052,377.86145 c 0.47106,-0.49486 0.98538,-0.94889 1.55292,-1.32984 0.37345,-0.23009 0.73587,-0.4671 1.15563,-0.60221 0.36957,-0.11437 0.7373,0.0397 1.0965,0.12247 0.38415,0.12247 0.65383,0.39236 0.91823,0.68161 0.23665,0.30393 0.44977,0.60857 0.58709,0.97065 0.13606,0.25437 0.26293,0.50744 0.34891,0.78349 0.10746,0.32174 -0.0282,0.61677 -0.12766,0.91925 -0.12514,0.26806 -0.28384,0.52215 -0.35517,0.81199 -0.0519,0.29198 -0.23895,0.52343 -0.41845,0.74728 -0.23111,0.23525 -0.44257,0.47322 -0.71985,0.65657 -0.28855,0.18089 -0.58515,0.35744 -0.88885,0.51328 -0.23573,0.19687 -0.60711,0.11487 -0.85472,0.25421 -0.36762,0.0771 -0.74753,0.0306 -1.11968,0.0138 -0.35424,-0.0832 -0.7029,-0.19925 -1.00618,-0.40249 -0.36481,-0.26491 -0.60715,-0.61019 -0.79143,-1.01624 -0.2305,-0.41293 -0.35706,-0.86683 -0.44217,-1.32873 -0.0568,-0.38458 -0.0596,-0.77426 -0.0616,-1.16219 0.0544,-0.36198 0.18213,-0.69845 0.37964,-1.00471 0.1448,-0.2113 0.32359,-0.39687 0.50251,-0.5793 0.25366,-0.16799 0.49751,-0.35134 0.7644,-0.50136 0.27045,-0.15679 0.57495,-0.28176 0.826,-0.46833 0.2085,-0.21914 0.50266,-0.26896 0.76479,-0.38635 0.24757,-0.0998 0.43702,-0.28908 0.66225,-0.42559 0.14567,-0.16229 0.35395,-0.24168 0.48921,-0.41024 0.12527,-0.22182 0.24176,-0.45799 0.37723,-0.67704 0.1727,-0.26967 0.29311,-0.57155 0.4283,-0.86331 0.0794,-0.24098 0.21521,-0.44612 0.33502,-0.66583 0.0538,-0.10237 0.0996,-0.2086 0.13903,-0.31721 -0.0453,-0.0837 0.0963,-0.33642 0.15232,-0.47068 0.0807,-0.17505 0.11256,-0.36293 0.12718,-0.55358 0.0254,-0.41519 -0.0813,-0.28174 0.60566,-0.0823 -3.7e-4,0.42089 -0.59561,0.42037 -0.59524,-5.3e-4 l 0,0 c 0.66887,-0.10302 0.60391,-0.28192 0.58278,0.13213 -0.0224,0.25528 -0.0673,0.50788 -0.17496,0.74265 -0.0953,0.21213 -0.12172,0.18264 -0.13602,0.42921 -0.0508,0.14379 -0.11371,0.28314 -0.18519,0.4178 -0.12058,0.20271 -0.23494,0.39083 -0.31055,0.61867 -0.14587,0.31454 -0.27977,0.63816 -0.4647,0.93023 -0.15527,0.2398 -0.26992,0.50554 -0.42681,0.74467 -0.18767,0.21522 -0.43319,0.3512 -0.64526,0.54062 -0.25278,0.13196 -0.44688,0.37199 -0.7289,0.45875 -0.23247,0.0945 -0.47601,0.14063 -0.65898,0.32845 -0.27938,0.18425 -0.57899,0.34305 -0.87549,0.4989 -0.21089,0.11344 -0.45894,0.30701 -0.62721,0.39714 -0.15143,0.15424 -0.3039,0.31023 -0.4286,0.48728 -0.13775,0.2087 -0.21933,0.43464 -0.28318,0.67687 0.002,0.35304 0.003,0.70763 0.0519,1.058 0.0755,0.41553 0.18986,0.82186 0.39963,1.19199 0.13665,0.30816 0.30887,0.56582 0.5847,0.76896 0.21054,0.14904 0.45716,0.20787 0.69677,0.29904 0.29283,0.0132 0.58619,0.0355 0.87938,0.0252 0.26349,-0.0885 0.54812,-0.10122 0.79951,-0.22971 0.28557,-0.14167 0.56144,-0.31155 0.83112,-0.4799 0.22773,-0.14766 0.39089,-0.34525 0.58369,-0.53343 0.13009,-0.15943 0.27606,-0.31494 0.30575,-0.52551 0.0827,-0.29783 0.21272,-0.57649 0.36499,-0.8451 0.0627,-0.19074 0.17447,-0.36073 0.12443,-0.55746 -0.0814,-0.26585 -0.21665,-0.50127 -0.33774,-0.75079 -0.10722,-0.29206 -0.28373,-0.53046 -0.46917,-0.77784 -0.18372,-0.20151 -0.35492,-0.39921 -0.61359,-0.50321 -0.25354,-0.0595 -0.52826,-0.18793 -0.78478,-0.13382 -0.36818,0.10851 -0.67262,0.34017 -1.00239,0.5292 -0.53768,0.35497 -1.01647,0.79151 -1.46203,1.25536 -0.29762,0.29761 -0.71852,-0.12328 -0.4209,-0.4209 z"
       inkscape:connector-curvature="0" />
    <path
       style="fill:#000000;fill-opacity:1;stroke:#000000;stroke-width:0.40000001;stroke-miterlimit:4;stroke-opacity:1;stroke-dasharray:none"
       id="path4217"
       d="m 126.85376,370.82905 c -0.5286,0.57933 -0.85759,1.29145 -1.14936,2.0101 -0.29861,0.83599 -0.49996,1.69118 -0.61303,2.57038 -0.0883,0.78169 -0.0927,1.56919 -0.0968,2.35482 -0.0291,0.77687 0.002,1.54208 0.16738,2.30244 0.14274,0.71749 0.37705,1.41002 0.55975,2.11736 0.17807,0.36963 0.24479,0.79456 0.42405,1.16066 0.12267,0.1435 0.15503,0.35709 0.29961,0.4712 0.0256,0.026 0.10069,0.061 0.11823,0.0691 -0.005,-0.002 -0.01,-0.003 -0.0145,-0.004 0.40974,0.0963 0.2736,0.67573 -0.13614,0.57946 l 0,0 c -0.0109,-0.003 -0.0219,-0.006 -0.0328,-0.009 -0.12312,-0.0425 -0.23421,-0.11169 -0.33456,-0.19434 -0.1988,-0.18923 -0.29858,-0.43678 -0.4424,-0.66735 -0.17567,-0.40817 -0.2856,-0.84587 -0.45786,-1.25677 -0.18457,-0.71531 -0.42169,-1.41572 -0.56544,-2.14143 -0.17013,-0.80288 -0.2135,-1.61032 -0.18058,-2.4303 0.004,-0.81007 0.01,-1.62205 0.10168,-2.42796 0.1207,-0.92981 0.33375,-1.83516 0.65207,-2.71857 0.32314,-0.79151 0.69141,-1.57301 1.27976,-2.20652 0.29762,-0.29762 0.71852,0.12327 0.4209,0.42089 z"
       inkscape:connector-curvature="0" />
    <path
       style="fill:#000000;fill-opacity:1;stroke:#000000;stroke-width:0.40000001;stroke-miterlimit:4;stroke-opacity:1;stroke-dasharray:none"
       id="path4219"
       d="m 130.31749,370.73873 c -0.13359,0.80851 -0.18743,1.62685 -0.22479,2.44453 -0.0316,0.83752 -0.0336,1.67579 -0.0352,2.5138 -0.0189,0.67727 0.12412,1.34496 0.21433,2.01342 0.0296,0.35736 0.0412,0.69816 0.1928,1.02566 0.13608,0.065 0.2564,-0.015 0.407,-0.0516 0.39398,-0.19729 0.75084,-0.4578 1.11679,-0.70207 0.37005,-0.19795 0.72377,-0.40683 1.01893,-0.70759 -0.018,0.0204 -0.0361,0.0407 -0.0541,0.0611 0.124,-0.40221 0.69282,-0.22685 0.56882,0.17537 l 0,0 c -0.0305,0.0607 -0.061,0.12139 -0.0914,0.18208 -0.3248,0.32654 -0.70361,0.5726 -1.11177,0.78416 -0.42276,0.28205 -0.83296,0.5929 -1.30676,0.78539 -0.42914,0.10393 -0.82272,0.1368 -1.08928,-0.28041 -0.17161,-0.38235 -0.21657,-0.77647 -0.24085,-1.19252 -0.0936,-0.69518 -0.24056,-1.38953 -0.21967,-2.09404 0.002,-0.84673 0.004,-1.69372 0.0358,-2.53995 0.0386,-0.84133 0.0946,-1.68329 0.23227,-2.51514 0.0692,-0.41517 0.65634,-0.31732 0.58714,0.0979 z"
       inkscape:connector-curvature="0" />
    <path
       style="fill:#000000;fill-opacity:1;stroke:#000000;stroke-width:0.40000001;stroke-miterlimit:4;stroke-opacity:1;stroke-dasharray:none"
       id="path4221"
       d="m 127.70345,375.47134 c 0.71017,-0.39718 1.50666,-0.59361 2.26396,-0.87931 0.51439,-0.20294 1.0396,-0.37311 1.57792,-0.4992 0.34844,-0.10486 0.51331,0.15202 0.58614,0.44892 0.0756,0.41406 -0.50999,0.52093 -0.58556,0.10687 l 0,0 c 0.002,-0.0158 -0.0108,-0.0495 0.005,-0.0474 0.0455,0.006 0.0771,0.0535 0.12178,0.0641 0.0323,0.008 0.0738,-0.0338 0.0988,-0.0121 0.0233,0.0203 -0.0604,0.0128 -0.0906,0.0192 -0.51326,0.11973 -1.01338,0.2832 -1.50369,0.47665 -0.72435,0.27218 -1.48455,0.46223 -2.16744,0.83266 -0.36091,0.21655 -0.66716,-0.29387 -0.30625,-0.51042 z"
       inkscape:connector-curvature="0" />
    <path
       style="fill:#000000;fill-opacity:1;stroke:#000000;stroke-width:0.40000001;stroke-miterlimit:4;stroke-opacity:1;stroke-dasharray:none"
       id="path4223"
       d="m 133.62187,369.67583 c 0.65539,0.22441 1.28263,0.51592 1.79411,0.98772 0.41542,0.37062 0.72518,0.83274 1.00936,1.30608 0.22738,0.47029 0.41508,0.96566 0.57213,1.46454 0.13466,0.46865 0.17837,0.95309 0.19982,1.43794 0.0132,0.50702 0.009,1.01432 0.008,1.52146 0.0188,0.46472 -0.13658,0.90973 -0.22349,1.36143 -0.007,0.35634 -0.1579,0.67092 -0.2729,0.99914 -0.19186,0.33334 -0.39124,0.66481 -0.614,0.978 -0.18133,0.30157 -0.4072,0.57144 -0.62464,0.84766 -0.23256,0.36557 -0.43241,0.74598 -0.66541,1.11115 -0.13251,0.25384 -0.30098,0.48386 -0.44344,0.73049 -0.12049,0.19465 -0.26762,0.3731 -0.39248,0.56693 -0.023,0.0344 -0.0571,0.0932 -0.074,0.12265 -0.1899,0.37562 -0.72111,0.10706 -0.53121,-0.26856 l 0,0 c 0.0322,-0.0605 0.0681,-0.11891 0.105,-0.17667 0.12269,-0.19007 0.26926,-0.36238 0.38395,-0.5533 0.1541,-0.24671 0.3106,-0.48539 0.45056,-0.74191 0.24368,-0.38123 0.44769,-0.78244 0.6996,-1.15926 0.21327,-0.27016 0.43383,-0.5323 0.61009,-0.82841 0.19598,-0.2635 0.34914,-0.55837 0.53543,-0.82889 0.10884,-0.30074 0.2454,-0.58291 0.249,-0.91165 0.0801,-0.41511 0.22524,-0.82413 0.21275,-1.2501 0.001,-0.49804 0.005,-0.99623 -0.007,-1.49415 -0.0187,-0.43347 -0.0552,-0.86674 -0.17327,-1.28636 -0.14101,-0.45478 -0.31546,-0.90408 -0.51434,-1.33574 -0.25618,-0.42671 -0.5313,-0.84654 -0.90751,-1.17951 -0.44406,-0.43209 -1.03167,-0.6592 -1.6067,-0.86801 -0.39079,-0.15632 -0.16973,-0.70899 0.22107,-0.55267 z"
       inkscape:connector-curvature="0" />
    <path
       style="fill:#ff0000;fill-opacity:0.23208191000000000;stroke:#ff0000;stroke-width:0.40000001000000002;stroke-miterlimit:4;stroke-opacity:0.23890784;stroke-dasharray:none"
       id="path4227"
       d="m 72.04599,409.4573 c 0.103338,-0.55752 0.340888,-1.06851 0.550925,-1.58996 0.175739,-0.2726 0.340007,-0.55684 0.532173,-0.81885 0.164384,-0.20216 0.271589,-0.43775 0.429883,-0.64573 0.129082,-0.19709 0.267403,-0.38485 0.409729,-0.5748 0.117075,-0.1604 0.149717,-0.36016 0.233173,-0.53836 0.119584,-0.2564 0.280455,-0.48134 0.465749,-0.6936 0.119079,-0.14831 0.184509,-0.32734 0.298996,-0.48431 0.127072,-0.17804 0.205976,-0.37834 0.336558,-0.5572 0.131922,-0.18099 0.212996,-0.38612 0.346708,-0.56872 0.137362,-0.20232 0.254131,-0.41614 0.401271,-0.61454 0.09387,-0.22156 0.215758,-0.42137 0.363953,-0.61088 0.107043,-0.22552 0.258117,-0.42266 0.370445,-0.64558 0.177587,-0.30549 0.393827,-0.58208 0.596806,-0.87044 0.187283,-0.27722 0.348712,-0.57414 0.535884,-0.85136 0.169511,-0.28868 0.391658,-0.53821 0.559216,-0.8276 0.182791,-0.26546 0.310324,-0.5625 0.476729,-0.83672 0.150414,-0.29686 0.341334,-0.56191 0.524477,-0.83758 0.169764,-0.27289 0.37065,-0.52272 0.56471,-0.77813 0.230227,-0.28446 0.441319,-0.58104 0.657292,-0.8765 0.163987,-0.3081 0.371892,-0.58828 0.531881,-0.89832 0.06526,-0.28413 0.258131,-0.50718 0.375279,-0.76747 0.17557,-0.36753 0.395911,-0.70849 0.595296,-1.06245 0.124874,-0.30886 0.323045,-0.58064 0.456646,-0.88523 0.108613,-0.34068 0.235574,-0.66784 0.463169,-0.94649 0.155864,-0.15969 0.280894,-0.33963 0.341033,-0.55598 0.03428,-0.25082 0.183279,-0.45753 0.288545,-0.68197 0.06959,-0.23852 0.184483,-0.44685 0.318147,-0.65603 0.129346,-0.29307 0.276792,-0.58002 0.444117,-0.85346 0.146265,-0.34597 0.428699,-0.60369 0.608406,-0.92773 0.141967,-0.20286 0.328941,-0.35358 0.442264,-0.57437 0.03992,-0.21459 0.181882,-0.39148 0.29681,-0.57231 0.06665,-0.23975 0.178854,-0.45736 0.293917,-0.67755 0.118929,-0.24161 0.170762,-0.49465 0.316932,-0.72478 0.08854,-0.15181 0.172139,-0.30363 0.212346,-0.47483 0.02081,-0.28822 0.175026,-0.52975 0.340655,-0.75739 0.169756,-0.25317 0.429629,-0.40331 0.678873,-0.56413 0.205905,-0.10884 0.306044,-0.15205 0.438899,-0.31494 0.110714,-0.11593 0.169981,-0.23842 0.209363,-0.38956 0.0113,-0.0376 0.02065,-0.10476 0.02466,-0.13479 0.167286,0.0816 0.358683,0.12596 0.501857,0.24492 0.047,0.039 -0.08441,0.0896 -0.11613,0.14185 -0.06794,0.11187 -0.149395,0.21214 -0.231458,0.31385 -0.233521,0.31355 -0.46756,0.6326 -0.720577,0.93183 -0.310195,0.36879 -0.638892,0.72528 -0.975247,1.07136 -0.299159,0.2921 -0.603108,0.57692 -0.879658,0.89057 -0.217768,0.25123 -0.471627,0.46788 -0.671087,0.73609 -0.304919,0.36019 -0.654358,0.67737 -1.012932,0.98321 -0.323583,0.25735 -0.585266,0.58618 -0.906055,0.84463 -0.124212,0.11149 -0.240424,0.23219 -0.345104,0.36224 -0.654127,-0.57873 -0.436793,-0.41791 -0.0026,-0.97755 0.282889,-0.32637 0.501353,-0.70367 0.776126,-1.03419 0.17423,-0.20635 0.315334,-0.43226 0.467643,-0.65399 0.132087,-0.22842 0.304425,-0.42696 0.483268,-0.61943 0.190456,-0.13824 0.302462,-0.31399 0.432205,-0.50206 0.15857,-0.20344 0.276543,-0.42417 0.432695,-0.62962 0.14332,-0.16779 0.195915,-0.3728 0.318003,-0.5536 0.170671,-0.24669 0.332693,-0.50194 0.539527,-0.72162 0.160547,-0.22025 0.372292,-0.38474 0.562389,-0.57595 0.163252,-0.10676 0.319782,-0.24533 0.425398,-0.4026 0.114995,-0.15472 0.257504,-0.2547 0.340979,-0.4267 0.28986,-0.35356 0.6303,-0.40541 0.848587,0.0577 0.126488,0.16845 0.189585,0.37372 0.249322,0.5731 0.04951,0.22673 0.03333,0.45793 0.01678,0.68714 0.01142,0.32481 -0.156648,0.60068 -0.268607,0.89346 -0.152106,0.24323 -0.323918,0.45946 -0.420078,0.7318 -0.121248,0.21141 -0.275976,0.39869 -0.359474,0.62866 -0.05159,0.19432 -0.0731,0.39419 -0.09271,0.59369 -0.02124,0.24236 -0.0402,0.48492 -0.05998,0.7274 -0.04961,0.23002 -0.01398,0.35087 0.06118,0.55304 0.09586,0.2251 0.118337,0.46915 0.120674,0.71096 -0.0054,0.23346 -0.02584,0.4662 -0.04593,0.69875 -0.0092,0.10387 -0.01893,0.20768 -0.0279,0.31156 -0.01167,0.13596 -0.02318,0.27193 -0.03471,0.4079 -0.195495,-0.0429 -0.39906,-0.0586 -0.586484,-0.1288 -0.02763,-0.0104 0.01049,-0.0589 0.0074,-0.0882 -0.01736,-0.16758 -0.09519,-0.36563 -0.125016,-0.53696 -0.168027,-0.3765 -0.230726,-0.78238 -0.26449,-1.18978 0.02115,-0.41087 -0.01885,-0.80373 -0.08867,-1.20693 -0.08202,-0.39445 -0.07215,-0.79806 -0.05994,-1.1983 0.05887,-0.28105 -0.03826,-0.51725 -0.108192,-0.78228 -0.01221,-0.38821 0.132538,-0.75536 0.318462,-1.08951 0.136567,-0.28586 0.364702,-0.50818 0.533107,-0.77513 0.158718,-0.26431 0.124189,-0.37554 0.674537,-0.0584 0.06817,0.0393 0.01775,0.15636 0.02662,0.23454 0.0068,0.60718 -0.280303,1.13875 -0.547644,1.66599 -0.365836,0.70247 -0.860638,1.31105 -1.349112,1.92804 -0.426583,0.52392 -0.811636,1.07918 -1.212382,1.62265 -0.375406,0.41671 -0.734005,0.84894 -1.122314,1.25343 -0.07688,0.0538 -0.589103,0.65178 -0.631535,0.63985 -0.172755,-0.0486 -0.323303,-0.15584 -0.484955,-0.23377 -0.02237,-0.55293 0.392959,-0.98808 0.676692,-1.43155 0.468284,-0.64586 0.915415,-1.30648 1.324251,-1.99162 0.192058,-0.35896 0.493936,-0.65182 0.663752,-1.02199 0.04143,-0.19316 0.262409,-0.29404 0.321838,-0.47537 0.08407,-0.21713 0.228799,-0.40687 0.368629,-0.59135 0.43959,-0.54652 0.655656,0.14393 0.72078,0.45613 0.06466,0.67099 0.02773,1.34235 0.07526,2.01483 0.01905,0.64384 0.07311,1.2773 0.17312,1.91298 -0.141079,-0.12872 0.221467,0.78071 0.09047,0.54793 -0.02085,-0.037 -0.01944,-0.10525 -0.06145,-0.11173 -0.1586,-0.0245 -0.320417,0.0187 -0.480626,0.028 0.0696,-0.63667 0.116883,-1.27564 0.169441,-1.91389 0.04003,-0.48741 0.08006,-0.97482 0.120183,-1.46222 0.0266,-0.29979 -0.03341,-0.33995 0.595352,0.0198 0.04426,0.0253 -0.0086,0.10161 -0.01287,0.15241 -0.0062,0.0731 -0.01234,0.14625 -0.01851,0.21937 -0.01288,0.61744 -0.197536,1.20711 -0.335144,1.80394 -0.09093,0.41755 -0.164056,0.83844 -0.218573,1.26221 -0.05091,0.4076 0.06497,0.27152 -0.61121,0.10443 0.04114,-0.47082 0.08068,-0.94178 0.120523,-1.41271 0.02033,-0.74859 0.212413,-1.47152 0.367948,-2.19939 0.136305,-0.68965 0.19365,-1.38653 0.376657,-2.0664 0.104788,-0.44164 0.229929,-0.87574 0.636131,-1.11782 0.654554,-0.0267 0.492886,0.75018 0.465509,1.18195 -0.124882,0.85692 -0.42043,1.67368 -0.636735,2.50959 -0.212177,0.63641 -0.393936,1.28409 -0.675241,1.89416 -0.142582,0.39597 -0.310418,0.77579 -0.488542,1.15671 -0.257596,0.55434 -0.0071,0.54518 -0.773544,0.23882 -0.04832,-0.27998 0.125116,-0.60784 0.03859,-0.87779 0.0025,-0.0727 -0.201889,-0.3112 -0.05391,-0.15276 -0.05142,-0.007 -0.102664,-0.0137 -0.154542,-0.0164 0.323041,-0.60843 0.209856,-0.40767 0.59853,-0.27937 0.08753,0.0262 0.176301,0.0492 0.266807,0.0623 -0.290496,0.63454 -0.21527,0.55564 -0.680859,0.24354 -0.148435,-0.11871 -0.425253,-0.26366 -0.531619,-0.28142 -0.19503,0.0623 -0.392102,0.10795 -0.594911,0.13647 -0.06727,10e-4 -0.164745,0.0685 0.168709,-0.38982 0.01614,-0.0222 0.03889,0.0392 0.06173,0.0544 0.0422,0.028 0.09319,0.0398 0.13981,0.0597 0.245068,0.0647 0.462702,0.19849 0.684897,0.31797 0.06022,0.0276 0.111174,0.0707 0.176632,0.0839 0.398953,0.13413 0.209264,0.69834 -0.189688,0.56421 l 0,0 c -0.09438,-0.0351 -0.183336,-0.0701 -0.268859,-0.12382 -0.212455,-0.11425 -0.410125,-0.24095 -0.645437,-0.29859 -0.301878,-0.13829 -0.959847,-0.689 -0.209941,-0.85745 0.224252,-0.0309 0.434753,-0.10262 0.657377,-0.14183 0.345745,0.0256 0.617036,0.1902 0.895569,0.39075 0.409672,0.32867 0.561037,0.074 0.259155,0.83222 -0.129168,-0.0198 -0.256679,-0.0489 -0.381208,-0.089 -0.581312,-0.20198 -0.58767,-0.19574 -0.382783,-0.87887 0.124741,0.008 0.249436,0.0215 0.367688,0.0651 0.227454,0.15171 0.34083,0.32865 0.404149,0.60191 0.03859,0.32334 -0.02052,0.64087 -0.03073,0.96573 -0.790315,0.0384 -0.594617,0.10162 -0.360477,-0.4828 0.178759,-0.37971 0.343448,-0.7588 0.487169,-1.15376 0.267901,-0.57688 0.434356,-1.19229 0.639233,-1.79344 0.207225,-0.79966 0.485793,-1.58127 0.618929,-2.39817 0.01104,-0.17241 0.02304,-0.33248 0.02789,-0.50437 0.0016,-0.0555 -0.04154,-0.18706 0.0099,-0.16623 0.285628,0.11562 0.04518,0.12227 0.307621,0.0807 0.01836,-0.0192 0.06549,-0.0821 0.05507,-0.0576 -0.02601,0.0609 -0.08941,0.0988 -0.124402,0.15506 -0.117915,0.18962 -0.138433,0.41305 -0.209115,0.62151 -0.181927,0.66888 -0.228874,1.35737 -0.369151,2.03537 -0.15039,0.70351 -0.338663,1.40143 -0.356919,2.12516 -0.03993,0.47203 -0.0796,0.94408 -0.120801,1.41601 -0.689472,0.0539 -0.619489,0.19485 -0.571983,-0.23394 0.05714,-0.44316 0.133536,-0.88337 0.228932,-1.31999 0.131464,-0.56948 0.310856,-1.13091 0.322017,-1.72018 0.01001,-0.11857 0.03138,-0.37191 0.0314,-0.37192 0.67956,-0.25017 0.613847,-0.22096 0.590997,0.0793 -0.04014,0.48739 -0.08026,0.97479 -0.120183,1.4622 -0.0539,0.6554 -0.101461,1.3117 -0.175893,1.96514 -0.175324,0.098 -0.33123,0.24478 -0.525971,0.29386 -0.108441,0.0273 -0.183118,-0.70538 -0.197192,-0.76564 -0.102642,-0.6524 -0.158995,-1.30308 -0.178883,-1.96366 -0.04545,-0.64716 -0.01969,-1.29213 -0.06492,-1.93866 -0.01025,-0.0529 -0.0184,-0.10624 -0.03074,-0.15869 -0.0094,-0.0399 -0.07345,-0.10569 -0.03438,-0.1179 0.680516,-0.21264 0.521647,-0.0928 0.401944,0.0623 -0.117372,0.15446 -0.242125,0.31103 -0.308895,0.49469 -0.100968,0.18706 -0.250587,0.327 -0.316891,0.46509 -0.184258,0.38662 -0.475216,0.70556 -0.691517,1.07423 -0.412246,0.69021 -0.861046,1.35726 -1.333978,2.00735 -0.02525,0.0394 -0.577119,0.93416 -0.588635,0.94177 -0.01605,0.0106 -0.02298,-0.0309 -0.03446,-0.0463 -0.625507,-0.0607 -0.464645,0.0489 -0.328313,-0.10496 0.150203,-0.1695 0.282015,-0.35697 0.461494,-0.49919 0.372317,-0.38359 0.709311,-0.8004 1.071709,-1.19356 0.405118,-0.54864 0.793549,-1.10983 1.224744,-1.63881 0.464229,-0.58578 0.936732,-1.16145 1.285152,-1.82831 0.222155,-0.4353 0.474915,-0.87088 0.48348,-1.37122 0.102267,-0.26347 0.751585,-0.22532 0.396535,0.11727 -0.163891,0.25826 -0.380541,0.47551 -0.517139,0.74837 -0.118007,0.20745 -0.188429,0.42779 -0.26118,0.64871 0.07947,0.31481 0.189644,0.61832 0.126926,0.94979 -0.01113,0.36014 -0.02337,0.7236 0.0515,1.0785 0.0727,0.4201 0.118064,0.8334 0.09548,1.26078 0.0304,0.39277 0.10816,0.7709 0.257856,1.13695 0.01277,0.076 0.170946,0.76674 0.124012,0.77572 -0.196558,0.0376 -0.399809,0.0186 -0.599714,0.028 0.01155,-0.13625 0.02309,-0.27251 0.03478,-0.40875 0.009,-0.10374 0.01871,-0.20742 0.02786,-0.31114 0.01849,-0.21407 0.03724,-0.42826 0.04373,-0.6431 -8.04e-4,-0.17301 -0.01162,-0.34836 -0.08359,-0.50854 -0.09904,-0.26797 -0.152881,-0.52293 -0.09631,-0.80827 0.02004,-0.24582 0.03919,-0.49172 0.06082,-0.7374 0.02474,-0.25039 0.05338,-0.50155 0.127304,-0.74316 0.08477,-0.22361 0.202313,-0.43917 0.357143,-0.62229 0.09997,-0.2742 0.24036,-0.51905 0.425131,-0.74533 0.0943,-0.24101 0.238405,-0.45609 0.229985,-0.7216 0.01151,-0.1578 0.02406,-0.31599 0.0065,-0.47392 -0.06068,-0.20473 -0.142643,-0.39249 -0.250476,-0.57701 0.101429,0.0943 0.359203,0.1264 0.255712,0.0416 -0.08687,0.17151 -0.193613,0.32576 -0.348967,0.44216 -0.130639,0.21525 -0.311921,0.41177 -0.529311,0.54256 -0.191193,0.19019 -0.399347,0.35133 -0.55989,0.57345 -0.209945,0.19186 -0.329348,0.46778 -0.507363,0.68636 -0.0071,-0.14499 -0.262846,0.69194 -0.300446,0.5317 -0.150573,0.19635 -0.261913,0.41263 -0.417694,0.60908 -0.145942,0.20553 -0.27761,0.41369 -0.484401,0.56669 -0.159887,0.17171 -0.313611,0.34747 -0.429687,0.55281 -0.165313,0.23738 -0.315826,0.48287 -0.505949,0.70354 -0.281388,0.30749 -0.470575,0.70443 -0.757639,1.01162 -0.410447,0.52521 -0.232392,0.58512 -0.966737,0.28642 -0.0189,-0.008 0.06527,-0.0449 0.03686,-0.0489 0.13449,-0.1658 0.282726,-0.32061 0.444868,-0.45966 0.325715,-0.22801 0.55662,-0.59531 0.884217,-0.82698 0.327674,-0.27586 0.643688,-0.56579 0.924118,-0.88956 0.213862,-0.27669 0.467647,-0.51309 0.700185,-0.77144 0.284874,-0.31775 0.58987,-0.61416 0.897652,-0.90991 0.327801,-0.33664 0.648428,-0.68322 0.949406,-1.04301 0.252891,-0.29193 0.479849,-0.61058 0.710231,-0.91939 0.33265,-0.41032 0.212509,-0.52366 0.902919,-0.29361 -0.0075,0.0864 -0.02204,0.17194 -0.04401,0.256 -0.06543,0.24004 -0.172195,0.45025 -0.342438,0.63439 -0.164182,0.17395 -0.342242,0.32166 -0.562905,0.41939 -0.195095,0.1191 -0.386783,0.2267 -0.519564,0.41667 -0.137826,0.17777 -0.225962,0.31956 -0.239564,0.54259 -0.05912,0.23685 -0.165219,0.45195 -0.292702,0.65998 -0.141941,0.20504 -0.14971,0.46265 -0.287331,0.67434 -0.124408,0.23806 -0.225873,0.46936 -0.319104,0.72115 -0.121457,0.1911 -0.225567,0.30794 -0.271717,0.52889 -0.11962,0.22591 -0.282548,0.40807 -0.453827,0.59543 -0.192275,0.32621 -0.459943,0.59703 -0.618416,0.94448 -0.172819,0.2739 -0.308326,0.56915 -0.448417,0.86029 -0.123807,0.19376 -0.218112,0.3612 -0.281186,0.58906 -0.09638,0.20407 -0.230331,0.37768 -0.258661,0.60507 -0.09607,0.29297 -0.246036,0.55592 -0.465393,0.77572 -0.220614,0.18664 -0.24108,0.54895 -0.364374,0.79426 -0.146475,0.31999 -0.345574,0.61014 -0.481816,0.93486 -0.193981,0.33975 -0.404852,0.668 -0.574199,1.02169 -0.12865,0.26688 -0.311055,0.49699 -0.385625,0.78842 -0.175079,0.33638 -0.396422,0.6438 -0.579803,0.97565 -0.218374,0.29866 -0.433271,0.59797 -0.664721,0.88644 -0.18826,0.24552 -0.381293,0.4869 -0.544786,0.75043 -0.183872,0.26831 -0.364434,0.52958 -0.513577,0.82088 -0.173268,0.25963 -0.281622,0.56461 -0.46633,0.81954 -0.177323,0.3028 -0.404476,0.56781 -0.585357,0.86852 -0.19785,0.26834 -0.344884,0.58045 -0.537449,0.8536 -0.186919,0.26512 -0.385575,0.5181 -0.552528,0.79683 -0.130996,0.25701 -0.298291,0.48931 -0.433098,0.74389 -0.146973,0.1864 -0.246135,0.38725 -0.354372,0.59833 -0.14732,0.19793 -0.26134,0.41122 -0.400393,0.61336 -0.134644,0.17988 -0.202408,0.39357 -0.346259,0.56811 -0.131687,0.17632 -0.19673,0.38549 -0.336569,0.55722 -0.125052,0.1671 -0.180715,0.37193 -0.330187,0.52311 -0.157236,0.17917 -0.291242,0.36633 -0.390249,0.58501 -0.144178,0.12767 -0.07538,0.50296 -0.280526,0.61224 -0.145071,0.19304 -0.286024,0.37314 -0.413177,0.57934 -0.158104,0.205 -0.256923,0.44485 -0.42675,0.6416 -0.168384,0.21482 -0.28915,0.46718 -0.455978,0.68395 -0.203283,0.50263 -0.433198,0.99427 -0.531097,1.53257 -0.116954,0.40432 -0.688754,0.23891 -0.571795,-0.16541 z"
       inkscape:connector-curvature="0"
       inkscape:transform-center-x="5.0595238"
       inkscape:transform-center-y="2.9761905" />
    <path
       style="fill:#000000;fill-opacity:1;stroke:#000000;stroke-width:0.40000001000000002;stroke-miterlimit:4;stroke-opacity:1;stroke-dasharray:none"
       id="path4229"
       d="M 7.5085232,3.9242785 C 7.0682161,4.4247166 6.6827645,4.9717246 6.3378692,5.5414803 6.0305071,5.9605048 5.7735572,6.4182717 5.558746,6.8912429 5.3173917,7.3764301 5.0757139,7.8585448 4.9248654,8.3804298 4.7503556,8.8477654 4.5930959,9.3165917 4.513621,9.8099266 4.3904318,10.23699 4.2767992,10.662759 4.2135302,11.102948 c -0.1242006,0.422187 -0.238541,0.844921 -0.2954385,1.281819 -0.044404,0.446062 -0.048213,0.894784 -0.051217,1.342632 -0.00111,0.34851 3.699e-4,0.697021 0.00123,1.04553 8.621e-4,0.428296 8.451e-4,0.856593 9.185e-4,1.284889 -0.038528,0.461452 0.026047,0.898439 0.127449,1.345589 0.099599,0.370737 0.1391155,0.751056 0.1599294,1.133018 0.00674,0.318682 0.1434602,0.618366 0.219302,0.926733 0.021473,0.310148 0.1546713,0.584422 0.2521686,0.874856 0.096449,0.280645 0.1944213,0.587061 0.3464265,0.844216 0.1704566,0.241026 0.2701459,0.517367 0.4030098,0.778534 0.2143792,0.23862 0.3322412,0.537567 0.5280434,0.788339 0.1372016,0.14592 0.262859,0.27352 0.3202016,0.471627 0.055543,0.154988 0.162684,0.305058 0.2255981,0.47459 0.1297351,0.340545 0.084645,0.6524 -0.048399,0.983411 -0.167064,0.386321 -0.7134042,0.150057 -0.5463402,-0.236264 l 0,0 c 0.090488,-0.183676 0.1097273,-0.346902 0.035469,-0.54337 C 5.8259072,23.712886 5.6932173,23.562876 5.6488378,23.36807 5.7571824,23.427634 5.4740257,23.192254 5.4340224,23.112639 5.218372,22.830457 5.0730234,22.506191 4.846556,22.23023 4.7164842,21.973455 4.6182427,21.703145 4.4514035,21.466642 4.2964781,21.168332 4.1659688,20.846172 4.063495,20.527193 3.9615891,20.222686 3.8225671,19.929436 3.7975928,19.604925 3.7134977,19.260871 3.5630241,18.926902 3.5620316,18.568586 3.5433141,18.220032 3.5082277,17.873117 3.4159671,17.535027 3.305008,17.045565 3.2360681,16.561999 3.2737837,16.05792 c -7.33e-5,-0.427841 -5.61e-5,-0.855684 -9.167e-4,-1.283525 -8.63e-4,-0.350334 -0.00235,-0.70067 -0.00122,-1.051005 0.0032,-0.472579 0.00764,-0.94612 0.056341,-1.416662 0.058757,-0.43849 0.1601755,-0.867731 0.2964167,-1.288888 C 3.6887773,10.574342 3.7945005,10.142248 3.9261939,9.7138128 4.0118366,9.1971822 4.1667839,8.702142 4.3535653,8.2133236 4.515671,7.6646825 4.7599222,7.1529441 5.0176191,6.6432709 5.2449416,6.1508888 5.5069402,5.6693809 5.8291629,5.2324071 6.2005141,4.6232086 6.6112247,4.0357371 7.0876263,3.5033816 7.3852453,3.2057625 7.8061422,3.6266594 7.5085232,3.9242785 z"
       inkscape:connector-curvature="0"
       transform="translate(0,330)" />
    <path
       style="fill:#000000;fill-opacity:1;stroke:#000000;stroke-width:0.40000001;stroke-miterlimit:4;stroke-opacity:1;stroke-dasharray:none"
       id="path4231"
       d="m 6.994452,11.276017 c 0.2697491,-0.504258 0.6561891,-0.910032 1.1219183,-1.234292 0.3859392,-0.2281596 0.7613306,-0.1291167 1.085145,0.144369 0.2418016,0.274173 0.3898383,0.596197 0.5424131,0.923127 0.2455083,0.507492 0.4377326,1.024372 0.5537876,1.576582 0.09761,0.561371 0.113595,1.132306 0.121869,1.700714 0.0035,0.459303 6.81e-4,0.918623 -9.72e-4,1.377929 0.06895,0.241569 0.170961,0.471772 0.233293,0.715632 0.08034,0.297743 -0.08008,0.567604 -0.165591,0.843204 -0.04925,0.21528 -0.05939,0.436454 -0.06845,0.656328 -0.01045,0.300018 0.05766,0.25134 -0.5977467,0.05744 -0.060168,-0.0178 5.137e-4,-0.125491 7.249e-4,-0.188236 6.821e-4,-0.31721 5.803e-4,-0.63442 6.064e-4,-0.95163 1.7e-5,-0.414567 1.9e-6,-0.829135 -6.7e-6,-1.243702 -6.7e-6,-0.27021 -8.6e-6,-0.540419 -9.9e-6,-0.810628 0.066631,-0.28202 0.19084,-0.539693 0.250056,-0.824609 0.0088,-0.326086 0.158874,-0.617128 0.237632,-0.927729 0.033,-0.358725 0.218514,-0.619016 0.431455,-0.893385 0.218488,-0.271353 0.476467,-0.514395 0.738096,-0.7448 0.188338,-0.193389 0.430712,-0.363513 0.597531,-0.575401 0.173804,-0.12729 0.300876,-0.268666 0.40269,-0.456094 0.245563,-0.316333 0.556075,-0.280985 0.892956,-0.145173 0.173202,0.07261 0.360968,0.103497 0.545692,0.132514 0.302201,0.01582 0.495378,0.246196 0.597525,0.505532 0.178562,0.280306 0.256543,0.597471 0.311296,0.921189 0.04928,0.393725 0.190865,0.768593 0.267101,1.159318 0.06657,0.39972 0.07771,0.805013 0.08546,1.209226 0.0035,0.294464 0.0018,0.588956 9.24e-4,0.88343 -7.14e-4,0.26237 -0.0011,0.52474 -0.0012,0.78711 -1.03e-4,0.252821 -9.3e-5,0.505642 -9e-5,0.758463 5e-6,0.177708 9e-6,0.355417 1.3e-5,0.533126 2e-6,0.06161 2e-6,0.123214 3e-6,0.184821 0,0.135767 0,0.271534 -1e-6,0.407301 0,0.03369 0,0.06739 0,0.10108 -0.678758,-0.0572 -0.595238,0.01161 -0.595238,-0.404608 0,-0.156554 0,-0.313108 0,-0.469662 0,-0.196298 0,-0.392596 0,-0.588894 0,-0.271734 0,-0.543467 0,-0.815201 0,-0.228101 0,-0.456203 0,-0.684305 0,-0.237395 0,-0.47479 0,-0.712186 0.03363,-0.264222 0.19484,-0.485741 0.252703,-0.742917 0.04468,-0.254365 0.196292,-0.468033 0.277797,-0.710213 0.120234,-0.294898 0.310252,-0.545755 0.514272,-0.786524 0.152488,-0.189294 0.271745,-0.404238 0.433713,-0.589001 0.198027,-0.182822 0.387087,-0.373389 0.583513,-0.557986 0.175874,-0.160075 0.385971,-0.254061 0.558215,-0.418065 0.134469,-0.152862 0.352626,-0.207094 0.526445,-0.259541 0.06667,-0.04637 0.127037,-0.100699 0.180239,-0.1618518 0.268129,-0.1750479 0.54452,-0.1972391 0.750378,0.096542 0.144727,0.0026 0.278288,0.364767 0.324323,0.528154 0.05719,0.230136 0.06154,0.468853 0.0648,0.704687 0.0011,0.230384 -5.47e-4,0.460773 -0.0012,0.691157 -6.94e-4,0.248622 -8.33e-4,0.497244 -9.23e-4,0.745866 -6.5e-5,0.246502 -4.5e-5,0.493004 -4e-5,0.739505 6e-6,0.261875 1e-5,0.52375 1.2e-5,0.785625 1e-6,0.232791 1e-6,0.465581 1e-6,0.698372 0,0.192346 0,0.384691 0,0.577037 0,0.233525 0,0.46705 0,0.700575 0.05196,0.171892 -0.09731,0.535092 0.02202,0.670178 0.09032,0.165856 0.161716,0.334852 0.272082,0.489219 -0.05165,-0.02934 0.157046,0.157981 0.148914,0.118063 -0.01512,-0.07423 -0.114501,-0.0231 0.04399,-0.07869 0.135976,-0.115775 0.295182,-0.256181 0.432611,-0.392842 0.176306,-0.16057 0.291988,-0.379913 0.431069,-0.574146 0.264996,-0.36353 0.11135,-0.295852 0.682986,0.09926 -0.107239,0.407007 -0.682833,0.255348 -0.575594,-0.151658 l 0,0 c 0.664907,0.196679 0.618843,0.05314 0.376544,0.398973 -0.15943,0.222582 -0.295766,0.470258 -0.500027,0.654304 -0.207616,0.194379 -0.40695,0.390744 -0.660077,0.531039 -0.343944,0.110418 -0.655418,0.06053 -0.86611,-0.260197 -0.144721,-0.205698 -0.246719,-0.429027 -0.354472,-0.655598 -0.06787,-0.279713 -0.0501,-0.560837 -0.04918,-0.847902 0,-0.233525 0,-0.46705 0,-0.700575 0,-0.192346 0,-0.384691 0,-0.577037 0,-0.232789 0,-0.465578 -10e-7,-0.698368 -2e-6,-0.261872 -6e-6,-0.523744 -1.2e-5,-0.785617 -5e-6,-0.246577 -2.5e-5,-0.493155 4e-5,-0.739733 9e-5,-0.249077 2.29e-4,-0.498155 9.25e-4,-0.747231 6.04e-4,-0.227171 0.0022,-0.454345 0.0012,-0.681516 -0.0025,-0.185693 -0.003,-0.374195 -0.04389,-0.556162 -0.04816,-0.186587 -0.113169,-0.258139 -0.267379,-0.390325 0.08421,0.06581 -0.01344,-0.0042 0.214466,0.06709 0.02853,0.0089 -0.110543,0.02707 -0.08948,0.0059 0.02928,-0.02951 0.06418,-0.05286 0.09626,-0.07929 -0.106485,0.123981 -0.23201,0.230406 -0.373803,0.312338 -0.12975,0.05252 -0.286968,0.06572 -0.379025,0.157712 -0.175588,0.164145 -0.377105,0.274692 -0.562972,0.422499 -0.190095,0.169903 -0.364252,0.356183 -0.552556,0.527283 -0.173416,0.15446 -0.248716,0.403255 -0.414199,0.56712 -0.156246,0.183855 -0.305325,0.371632 -0.404828,0.593737 -0.07835,0.227011 -0.21208,0.430008 -0.263911,0.663326 -0.05506,0.206583 -0.129357,0.410724 -0.23466,0.597474 0,0.237396 0,0.474791 0,0.712186 0,0.228102 0,0.456204 0,0.684305 0,0.271734 0,0.543467 0,0.815201 0,0.196298 0,0.392596 0,0.588894 0,0.156554 0,0.313108 0,0.469662 0,0.416217 0.08352,0.347411 -0.595238,0.404608 0,-0.03369 0,-0.06739 0,-0.10108 0,-0.135767 0,-0.271534 0,-0.407301 0,-0.0616 0,-0.123205 -2e-6,-0.184808 -4e-6,-0.17771 -8e-6,-0.355421 -1.3e-5,-0.533131 -3e-6,-0.252931 -1.3e-5,-0.505862 9e-5,-0.758794 1.42e-4,-0.262833 4.82e-4,-0.525667 0.0012,-0.788499 8.35e-4,-0.290118 0.0025,-0.580254 -8.18e-4,-0.870362 -0.007,-0.370166 -0.01597,-0.741341 -0.07476,-1.107703 -0.07558,-0.396037 -0.222924,-0.775153 -0.269953,-1.175241 -0.0466,-0.291353 -0.126503,-0.559566 -0.28263,-0.812598 -0.02667,-0.08913 -0.0093,-0.122705 -0.131715,-0.123122 -0.229297,-0.03635 -0.460828,-0.07855 -0.675924,-0.168602 -0.105214,-0.04262 -0.155048,-0.07461 -0.148539,-0.119502 -0.123102,0.221386 -0.272591,0.420591 -0.482124,0.567647 -0.206815,0.217168 -0.42989,0.421179 -0.648769,0.625721 -0.235849,0.20186 -0.464437,0.421714 -0.65939,0.661747 -0.171674,0.21931 -0.30537,0.382334 -0.324737,0.677002 -0.08008,0.30278 -0.220852,0.582945 -0.231268,0.900638 -0.05117,0.240848 -0.112788,0.487288 -0.237306,0.702066 10e-7,0.270206 3e-6,0.540412 10e-6,0.810618 9e-6,0.414588 2.4e-5,0.829176 7e-6,1.243764 -2.6e-5,0.317862 7.6e-5,0.635724 -6.1e-4,0.953586 -5e-6,0.0015 -6.1e-4,0.190192 -7.35e-4,0.190227 -0.6515478,0.183547 -0.5999884,0.226819 -0.5922032,-0.08615 0.011358,-0.271504 0.026265,-0.544678 0.094954,-0.808896 0.053594,-0.170992 0.1712663,-0.357031 0.1556163,-0.524525 -0.06586,-0.291478 -0.2276905,-0.556472 -0.2503277,-0.859174 0.00164,-0.455726 0.00446,-0.911465 0.00103,-1.367188 -0.0076,-0.530642 -0.021291,-1.06367 -0.1094732,-1.588169 C 9.6106229,12.298697 9.429516,11.826575 9.2040476,11.359895 9.0879298,11.108703 8.9804998,10.850648 8.8084335,10.633079 8.7022689,10.531404 8.5961486,10.451448 8.4550637,10.53121 8.0565013,10.804893 7.7321562,11.151134 7.5048645,11.582265 7.2883148,11.943181 6.7779023,11.636933 6.994452,11.276017 z"
       inkscape:connector-curvature="0"
       transform="translate(0,330)" />
    <path
       style="fill:#000000;fill-opacity:1;stroke:#000000;stroke-width:0.40000001;stroke-miterlimit:4;stroke-opacity:1;stroke-dasharray:none"
       id="path4233"
       d="m 26.395608,17.25282 c -0.25171,0.430186 -0.443928,0.939572 -0.877819,1.212707 -0.565426,0.08631 -0.714143,-0.417268 -0.783926,-0.867916 -0.04879,-0.321682 -0.05349,-0.617048 0.07252,-0.920267 0.133347,-0.383741 0.408982,-0.51348 0.799435,-0.433162 0.346355,0.147134 0.495188,0.419487 0.559637,0.773732 0.05992,0.308249 0.01422,0.579114 -0.154885,0.843975 -0.122431,0.199763 -0.331587,0.266577 -0.551599,0.292255 -0.460412,0.02655 -0.477576,-0.438135 -0.340511,-0.728564 0.09803,-0.201297 0.204026,-0.308028 0.392022,-0.424342 0.287405,-0.0785 0.339004,-0.03195 0.60852,0.143948 0.09952,0.268476 0.07312,0.56808 0.0739,0.850314 0.0407,0.438943 -0.04484,0.853221 -0.144469,1.276845 -0.159303,0.398256 -0.273074,0.81729 -0.454348,1.206203 -0.15553,0.268238 -0.246959,0.561614 -0.37977,0.840908 -0.129097,0.226929 -0.162734,0.480963 -0.28183,0.710014 0.09037,-0.07004 -0.312458,0.323711 -0.26234,0.220951 0.212409,-0.435514 0.141836,-0.167418 0.123554,-0.07373 -0.101477,0.408481 -0.679156,0.26497 -0.577679,-0.143511 l 0,0 c 0.06085,-0.115553 0.08179,-0.278566 0.217208,-0.327827 0.04978,-0.132356 0.131448,-0.45843 0.243591,-0.641646 0.133063,-0.279494 0.223396,-0.574163 0.380675,-0.842802 0.173014,-0.344304 0.252768,-0.733273 0.411519,-1.084875 0.08948,-0.380198 0.17084,-0.743596 0.128654,-1.138908 -3.92e-4,-0.145417 -0.01902,-0.477093 0.006,-0.554072 0.374011,0.174926 0.264978,0.09891 0.105259,0.119376 0.198311,-0.185289 -0.04017,0.05996 -0.05866,0.130564 -0.04377,0.07369 -0.01964,0.05652 -0.05001,-0.05106 -0.02252,-0.07979 -0.158171,-0.0499 -0.236274,-0.07772 -0.0094,-0.0033 0.01989,-0.0011 0.02983,-0.0017 0.15739,-0.01541 0.02718,0.06113 0.12009,-0.02865 0.09726,-0.136958 0.09585,-0.24714 0.06422,-0.419298 -0.01481,-0.113482 -0.04129,-0.203471 -0.100586,-0.289107 -0.18149,-0.04537 0.09033,-0.262086 -0.122819,0.08354 -0.08125,0.187957 -0.06249,0.382825 -0.03199,0.60174 0.02151,0.156733 0.0098,0.102518 0.0453,0.247808 0.01109,0.04539 0.07892,0.103584 0.04296,0.133417 -0.04322,0.03586 -0.135661,-0.05433 -0.162921,0.04298 0.257937,-0.168944 0.402264,-0.631854 0.594883,-0.903155 0.156317,-0.390793 0.708982,-0.169727 0.552665,0.221065 z"
       inkscape:connector-curvature="0"
       transform="translate(0,330)" />
    <path
       style="fill:#000000;fill-opacity:1;stroke:#000000;stroke-width:0.40000001;stroke-miterlimit:4;stroke-opacity:1;stroke-dasharray:none"
       id="path4235"
       d="m 31.937726,12.509084 c 0.205359,-0.539166 0.545003,-1.031042 0.960992,-1.429092 0.252656,-0.273311 0.554792,-0.48403 0.907478,-0.601015 0.269948,-0.09646 0.533527,-0.205214 0.814419,-0.275325 0.277849,-0.01966 0.523172,-0.110429 0.769541,-0.2334138 0.230707,-0.1664702 0.472755,-0.091326 0.711527,0.014244 0.215447,0.081515 0.430017,0.1328339 0.634353,0.2461489 0.243232,0.112781 0.436807,0.283194 0.620148,0.476371 0.189966,0.13809 0.240335,0.38376 0.406451,0.533892 0.180333,0.19763 0.238693,0.454532 0.364338,0.680281 0.140002,0.220065 0.210993,0.465625 0.246952,0.721452 0.02474,0.227144 0.02166,0.455983 0.02146,0.684106 0.0036,0.317698 -0.144089,0.623428 -0.289141,0.90043 -0.130623,0.241564 -0.303134,0.451908 -0.487083,0.653881 -0.223238,0.167332 -0.42302,0.360098 -0.642913,0.5319 -0.281919,0.22063 -0.585057,0.401072 -0.849114,0.644129 -0.210464,0.165583 -0.442263,0.26888 -0.706137,0.304611 -0.212748,0.01847 -0.426879,0.01238 -0.640208,0.01069 -0.183631,-0.002 -0.367272,-0.0026 -0.550912,-0.003 -0.293631,0.01255 -0.551912,-0.151574 -0.826929,-0.227881 -0.263044,-0.139881 -0.531278,-0.276641 -0.735721,-0.496996 -0.208767,-0.172003 -0.367448,-0.401955 -0.538759,-0.610852 -0.127972,-0.218043 -0.220842,-0.445732 -0.361783,-0.656291 -0.188925,-0.279309 -0.128303,-0.537419 -0.01087,-0.825141 0.05011,-0.212193 0.149499,-0.399682 0.255849,-0.590069 0.136926,-0.216686 0.284102,-0.428918 0.438142,-0.633007 0.176312,-0.191924 0.391474,-0.348812 0.606994,-0.495251 0.180885,-0.214921 0.461006,-0.294558 0.67901,-0.452298 0.261271,-0.125904 0.494538,-0.296947 0.746241,-0.438145 0.229767,-0.180263 0.487697,-0.317219 0.721732,-0.49193 0.301282,-0.167654 0.550882,-0.406722 0.827908,-0.6099597 0.23356,-0.137283 0.412888,-0.3250971 0.593371,-0.5185158 0.15975,-0.1814547 0.347502,-0.3401802 0.479258,-0.5449249 0.0964,-0.2049506 0.20722,-0.4059266 0.307176,-0.6116287 0.01909,-0.2344852 0.16722,-0.3900674 0.278584,-0.578581 0.07268,-0.1593524 0.09673,-0.3337557 0.164068,-0.498252 0.07885,-0.1441649 0.174019,-0.2788392 0.27925,-0.4048378 -0.07706,0.1475307 -0.03745,-0.039625 -0.03586,-0.093227 -5.85e-4,-0.041901 -0.0014,-0.080086 -0.0017,-0.1289971 1.83e-4,-0.3501603 -0.06304,-0.1889278 0.594602,-0.091158 -1.43e-4,0.4208969 -0.595381,0.4206934 -0.595238,-2.034e-4 l 0,0 c 0.658811,-0.099209 0.59277,-0.26064 0.595865,0.088083 2.64e-4,0.048237 9.23e-4,0.096323 0.0015,0.1445455 -0.0037,0.1630576 -0.01556,0.3188926 -0.103176,0.4634537 -0.07232,0.088237 -0.140456,0.1800038 -0.19811,0.2786752 -0.06631,0.1905816 -0.09042,0.4201037 -0.219952,0.5921011 -0.02933,0.037928 -0.05651,0.077623 -0.08799,0.1137853 -0.0066,0.00763 -0.02075,-0.027651 -0.0243,-0.018178 -0.04719,0.1260507 -0.04217,0.2735187 -0.112316,0.393073 -0.111765,0.2297322 -0.236186,0.4500548 -0.345594,0.6790686 -0.155498,0.2320241 -0.359622,0.4204857 -0.54478,0.6273553 -0.209934,0.2143527 -0.408773,0.4345176 -0.673072,0.5886076 -0.275818,0.201555 -0.524698,0.440206 -0.824045,0.607106 -0.256717,0.190792 -0.536324,0.344391 -0.791841,0.53688 -0.24193,0.126635 -0.457365,0.302755 -0.708421,0.415625 -0.23172,0.142232 -0.484833,0.251636 -0.678497,0.451965 -0.169562,0.09865 -0.322584,0.232274 -0.46381,0.364913 -0.145769,0.166882 -0.256878,0.373251 -0.385446,0.554172 -0.10313,0.184567 -0.178232,0.306871 -0.224383,0.524678 -0.08445,0.206921 -0.125644,0.06241 -0.0451,0.269832 0.128949,0.193761 0.235573,0.395585 0.326915,0.609228 0.166455,0.202978 0.317644,0.424751 0.521918,0.591204 0.122914,0.148123 0.310426,0.200036 0.458803,0.322616 0.220799,0.06633 0.435569,0.194047 0.661756,0.20412 0.184768,4.14e-4 0.369537,0.0011 0.554296,0.0031 0.186741,0.0015 0.374033,0.0064 0.560455,-0.006 0.140201,-0.0158 0.261795,-0.07075 0.378884,-0.152836 0.277645,-0.25378 0.590984,-0.449646 0.888757,-0.677427 0.195326,-0.146382 0.366036,-0.324577 0.565689,-0.460914 0.15156,-0.166053 0.295659,-0.336637 0.403219,-0.535714 0.105568,-0.185871 0.215682,-0.404608 0.217639,-0.618096 1.83e-4,-0.202256 0.0035,-0.405132 -0.01647,-0.606673 -0.02072,-0.18376 -0.07601,-0.352951 -0.176991,-0.509208 -0.09979,-0.179844 -0.161463,-0.367014 -0.260043,-0.543689 -0.169017,-0.171071 -0.248113,-0.38593 -0.422583,-0.550276 -0.14501,-0.1534 -0.281582,-0.284698 -0.480269,-0.367175 -0.184372,-0.106441 -0.389892,-0.129904 -0.58341,-0.220572 -0.387575,-0.172481 0.156144,-0.144637 -0.205447,-0.02527 -0.282611,0.139782 -0.573732,0.253094 -0.891111,0.278062 -0.26752,0.06576 -0.517361,0.172011 -0.775296,0.264196 -0.271073,0.08296 -0.491776,0.263884 -0.683887,0.469748 -0.362213,0.324613 -0.636307,0.765579 -0.814249,1.2148 -0.156317,0.390793 -0.708982,0.169727 -0.552664,-0.221066 z"
       inkscape:connector-curvature="0"
       transform="translate(0,330)" />
    <path
       style="fill:#000000;fill-opacity:1;stroke:#000000;stroke-width:0.40000001;stroke-miterlimit:4;stroke-opacity:1;stroke-dasharray:none"
       id="path4243"
       d="m 43.21915,3.0010686 c 0.374805,0.4830132 0.69107,1.0064574 1.012054,1.525485 0.194284,0.3395654 0.362378,0.6936273 0.569968,1.0261675 0.15344,0.2764349 0.321793,0.5358462 0.492247,0.8017207 0.124123,0.2881494 0.223317,0.5785863 0.347242,0.8676474 0.169893,0.1643414 0.06241,0.5217953 0.198243,0.684321 0.154942,0.2242538 0.217589,0.4906749 0.257682,0.7557052 0.132248,0.2715981 0.21908,0.5602291 0.275323,0.8561758 0.04897,0.2717527 0.05523,0.5477788 0.05851,0.8230428 0.0012,0.275739 -4.15e-4,0.551483 -9.23e-4,0.827223 -7e-4,0.397718 -8.11e-4,0.795436 -8.96e-4,1.193154 -5.4e-5,0.299666 -4.9e-5,0.599331 -4.2e-5,0.898997 0.01825,0.317629 -0.0065,0.61716 -0.09764,0.922568 -0.100038,0.296008 -0.152627,0.601444 -0.182076,0.911424 -0.0032,0.277014 -0.165691,0.508291 -0.251755,0.762482 -0.03106,0.303585 -0.123062,0.58915 -0.211347,0.879903 -0.08942,0.330914 -0.277558,0.61984 -0.368584,0.950621 -0.02885,0.302122 -0.170268,0.564919 -0.281317,0.841609 -0.03611,0.26367 -0.150699,0.495002 -0.251252,0.737228 -0.05561,0.255394 -0.240725,0.450559 -0.34238,0.682697 -0.0578,0.244223 -0.199255,0.451585 -0.300377,0.678834 -0.164226,0.236228 -0.271559,0.503891 -0.427697,0.742612 -0.128381,0.218078 -0.273279,0.422755 -0.432458,0.619311 -0.116558,0.23208 -0.328439,0.403099 -0.516825,0.576167 -0.165969,0.193019 -0.314469,0.397677 -0.447356,0.615941 -0.167396,0.162524 -0.291564,0.350875 -0.472442,0.497379 -0.158959,0.17284 -0.34655,0.321985 -0.539007,0.457239 -0.19316,0.142359 -0.382496,0.289844 -0.570012,0.439535 -0.328952,0.262575 -0.700287,-0.202633 -0.371336,-0.465207 l 0,0 c 0.197385,-0.157543 0.396663,-0.312804 0.600317,-0.462187 0.200949,-0.13954 0.378082,-0.298803 0.55375,-0.46722 -0.02072,0.06138 0.273194,-0.342165 0.290577,-0.309521 0.162261,-0.265546 0.346645,-0.51169 0.552833,-0.74432 0.169654,-0.155826 0.353133,-0.302124 0.457112,-0.512645 0.152571,-0.187997 0.28794,-0.384848 0.412191,-0.592827 0.165768,-0.157654 0.194528,-0.470863 0.367141,-0.637627 0.105367,-0.233897 0.247709,-0.441921 0.307421,-0.693984 0.110995,-0.220003 0.267689,-0.413167 0.330408,-0.656235 0.103243,-0.240447 0.205533,-0.46439 0.247173,-0.727347 0.105046,-0.260523 0.238168,-0.496776 0.261237,-0.783084 0.09771,-0.33279 0.267838,-0.631355 0.371468,-0.96039 0.09124,-0.298783 0.175376,-0.589073 0.217676,-0.899465 0.07276,-0.210348 0.206273,-0.40366 0.222322,-0.626323 0.03379,-0.34936 0.09366,-0.694074 0.205171,-1.027992 0.07766,-0.248108 0.08515,-0.489 0.07182,-0.749164 -7e-6,-0.299712 -1.2e-5,-0.599424 4.2e-5,-0.899137 8.5e-5,-0.398041 1.96e-4,-0.796082 8.97e-4,-1.194123 5.03e-4,-0.273038 0.002,-0.546079 9.63e-4,-0.819116 -0.0028,-0.241354 -0.0065,-0.4834952 -0.04865,-0.7219333 C 45.732198,9.320123 45.610565,9.0394038 45.507478,8.7473201 45.477619,8.5262967 45.415702,8.3224325 45.289435,8.1353035 45.210722,7.9117588 45.194873,7.6734507 45.093577,7.4566259 44.982847,7.1983299 44.882602,6.9404405 44.792173,6.6754724 44.620562,6.4072291 44.452281,6.1419683 44.294883,5.8657389 44.089909,5.5316223 43.915755,5.1806084 43.72474,4.8392879 43.403107,4.3175462 43.082668,3.7942603 42.708738,3.307316 42.492188,2.9463999 43.002601,2.6401525 43.21915,3.0010686 z"
       inkscape:connector-curvature="0"
       transform="translate(0,330)" />
    <path
       style="fill:#000000;fill-opacity:1;stroke:#000000;stroke-width:0.40000001;stroke-miterlimit:4;stroke-opacity:1;stroke-dasharray:none"
       id="path4245"
       d="m 52.175821,10.128132 c 0.02371,-0.05356 0.156364,-0.6493779 0.194942,-0.630918 0.550138,0.2632411 0.539768,0.197222 0.446995,0.4610316 -0.04794,0.1166514 -0.03309,0.2610644 0.02034,0.3785764 0.0186,0.04091 -0.0241,-0.08964 -0.05321,-0.123883 -0.0238,-0.01164 -0.08529,-0.01235 -0.0714,-0.03491 0.0429,-0.0697 0.151979,-0.06637 0.214993,-0.118597 0.161811,-0.1341152 0.260518,-0.2705149 0.365855,-0.4511533 0.10157,-0.198522 0.263755,-0.4293857 0.0737,-0.605675 -0.07228,-0.016497 -0.211471,-0.035871 -0.266614,0.076616 -0.09343,0.090367 -0.105025,0.2081719 -0.123565,0.3317772 0.01904,-0.2487066 -0.141164,-0.1942214 0.0073,-0.2512935 0.02263,0.00691 0.3453,-0.1671038 0.34391,-0.1471486 -0.03596,0.516528 0.07048,0.5144421 -0.130111,0.4953181 0.124651,0.02846 0.109666,0.028824 0.08638,0.1477848 -0.0027,0.017655 -0.0054,0.070632 -0.008,0.052964 -0.0066,-0.045479 0.0021,-0.092295 -0.0044,-0.1378003 -0.01949,-0.138117 -0.260331,-0.07658 -0.06999,-0.1656057 0.06831,-0.070627 0.180431,-0.1092331 0.239274,-0.1888628 0.01053,-0.014248 -0.03117,0.019152 -0.04878,0.021107 -0.01766,0.00196 -0.01608,-0.032039 -0.02018,-0.049324 0.0252,0.1515545 -0.179158,0.05171 -0.274814,0.043682 -0.172213,-0.033387 -0.264848,0.036874 -0.407083,0.1259698 0.02948,0.081926 -0.167512,0.3345081 -0.24001,0.4476739 0.128005,-0.2160167 -0.04877,-0.1828104 -0.191281,-0.3577595 -0.01456,-0.01787 0.04566,-0.00988 0.06593,-0.020844 0.05231,-0.028293 0.09287,-0.074326 0.140192,-0.1103348 0.255425,-0.2131454 0.28893,-0.391546 0.578525,0.3257274 0.03082,0.076334 -0.0894,0.1382542 -0.134104,0.2073813 -0.232232,0.3510308 -0.728665,0.022606 -0.496433,-0.3284249 l 0,0 c 0.307271,-0.4493783 0.952696,0.02188 0.404531,0.27494 -0.382305,0.2748977 -1.06583,0.4215327 -0.868537,-0.3118263 0.137639,-0.2147535 0.248806,-0.4504552 0.427978,-0.6327043 0.238962,-0.1465986 0.489937,-0.2603206 0.77747,-0.2122839 0.352487,0.036845 0.679919,0.1165741 0.809845,0.4888415 0.02711,0.4012824 -0.183343,0.6387627 -0.522295,0.8216493 -0.346798,0.1481784 -0.8325,0.079875 -0.740425,-0.4166494 0.07752,-0.3545418 0.249225,-0.5970391 0.641564,-0.602497 0.72762,0.2121037 0.22544,0.7130359 -0.151308,0.7867652 -0.393966,0.1438468 -0.731973,0.050095 -0.803283,-0.3987433 0.04461,-0.2762095 0.130002,-0.5326915 0.355093,-0.7161432 0.363004,-0.2338245 0.739626,-0.2816062 1.085017,0.024597 0.316831,0.4244703 0.234094,0.8541746 -0.02688,1.2901974 C 53.52059,10.369515 53.16587,10.7652 52.59767,10.777965 52.198727,10.581507 52.117331,10.155821 52.260593,9.7487804 c 0.135874,-0.3481275 0.0062,-0.1725634 0.634712,0.029796 0.04085,0.013152 -0.02999,0.080563 -0.04104,0.1220338 -0.01886,0.070807 -0.03445,0.142476 -0.05424,0.21303 -0.02215,0.07901 -0.0477,0.157038 -0.07155,0.235558 -0.156317,0.390793 -0.708981,0.169727 -0.552664,-0.221066 z"
       inkscape:connector-curvature="0"
       transform="translate(0,330)" />
    <path
       style="fill:#000000;fill-opacity:1;stroke:#000000;stroke-width:0.40000001;stroke-miterlimit:4;stroke-opacity:1;stroke-dasharray:none"
       id="path4247"
       d="m 53.044237,17.019517 c -0.277793,0.293238 -0.631287,0.595817 -0.698346,1.015186 0.0895,0.05835 -0.02713,-0.09832 -0.02762,-0.09979 -0.01218,-0.03644 0.05509,-0.05391 0.07855,-0.08433 0.166445,-0.232862 0.223436,-0.503803 0.262071,-0.781538 -0.04707,-0.123634 -0.09345,-0.03301 -0.222568,-0.0066 -0.221522,0.111198 -0.267226,0.305088 -0.313181,0.533664 -0.04514,0.247666 0.05885,0.496027 0.201765,0.695927 0.02148,0.02587 0.03565,0.06024 0.06444,0.07762 0.01482,0.009 -0.04887,-0.05471 -0.02519,-0.0728 0.01846,-0.0141 0.08258,-0.04034 0.06497,-0.02519 -0.05498,0.04734 -0.114976,0.08854 -0.172463,0.132812 -0.02247,0.120561 -0.05371,0.0031 -0.08454,-0.04265 0.708253,-0.0247 0.49506,-0.03443 0.499406,0.503153 -0.01332,-0.459685 -0.421662,0.01843 -0.167098,-0.406902 0.128345,-0.305565 0.147153,-0.640394 0.166094,-0.967103 -0.02414,-0.108478 -0.06648,-0.214206 -0.145876,-0.293237 0.351883,0.09762 0.26318,0.07295 0.116912,0.216458 0.08653,-0.514641 0.121185,-0.235896 0.361387,0.03491 0.431544,0.421296 -0.274299,-0.129593 -0.339508,0.328987 -0.04863,0.03836 0.0713,0.07143 0.04898,0.101737 -0.0049,0.0066 -0.265965,-0.0229 -0.355376,-0.02594 -0.323049,0.004 -0.228973,0.01104 -0.557328,-0.298723 -0.0421,-0.307065 -0.08702,-0.202644 0.417281,0.145108 -0.2327,0.350721 -0.728694,0.02163 -0.495994,-0.329087 l 0,0 c 0.73198,-0.024 0.626023,-0.231628 0.65794,0.04685 -0.476226,-0.266422 -0.240669,-0.136762 -0.0011,-0.159026 0.319294,0.01141 0.665161,0.0088 0.846402,0.319484 0.0091,0.08236 0.08883,0.191748 0.02716,0.247093 -0.437887,0.392991 -0.482297,0.25103 -0.693857,0.01836 -0.263394,-0.297302 -0.385736,-0.406539 -0.331165,-0.856272 0.225744,-0.218638 0.370403,-0.325275 0.719724,-0.210308 0.196223,0.205043 0.29901,0.464893 0.318665,0.748396 -0.02506,0.424104 -0.05945,0.856147 -0.252392,1.242668 -0.241329,0.389262 -0.705927,0.794101 -0.936044,0.101181 -0.0047,-0.619511 -0.14039,-0.581653 0.58613,-0.845282 0.115717,0.170894 0.189362,0.34891 0.161097,0.561709 -0.07019,0.08392 -0.128848,0.179012 -0.210561,0.251755 -0.215988,0.19228 -0.655605,-0.01352 -0.778537,-0.20851 -0.229125,-0.34144 -0.373528,-0.745118 -0.292794,-1.160339 0.107787,-0.468228 0.309195,-0.844222 0.797461,-0.99376 0.502771,-0.07301 0.902865,0.124659 0.909108,0.677581 -0.0631,0.436676 -0.177305,0.854414 -0.498464,1.177139 -0.477093,0.30488 -0.964898,0.24907 -0.986792,-0.415645 0.122564,-0.532547 0.470087,-0.944297 0.860377,-1.315646 0.297619,-0.297619 0.718516,0.123278 0.420896,0.420897 z"
       inkscape:connector-curvature="0"
       transform="translate(0,330)" />
    <path
       style="fill:#000000;fill-opacity:1;stroke:#000000;stroke-width:0.47610587;stroke-miterlimit:4;stroke-opacity:1;stroke-dasharray:none"
       id="path4259"
       d="m 63.204296,440.84616 c -0.191728,-0.73618 -0.269624,-1.48402 -0.321339,-2.23188 -0.04733,-0.83885 -0.04738,-1.67869 -0.04926,-2.51814 0.09036,-1.21697 0.39275,-2.41897 0.75877,-3.60426 0.487138,-1.58358 0.989996,-3.15988 1.402102,-4.75575 0.428524,-2.03854 0.937291,-4.06587 1.615312,-6.06605 0.804107,-2.37237 1.956159,-4.66534 3.201067,-6.92408 1.496831,-2.59669 3.066782,-5.1667 4.785545,-7.68486 2.548047,-3.73164 5.917786,-7.08107 9.379916,-10.35221 3.824,-3.45852 7.86408,-6.77869 11.84929,-10.13212 3.36032,-2.768 6.537641,-5.65074 9.705411,-8.54191 2.03958,-1.91162 3.99153,-3.86737 6.29223,-5.60861 2.03187,-1.46499 4.30403,-2.71695 6.50236,-4.03291 1.31834,-0.81482 2.68327,-1.59222 4.11788,-2.28889 0.36143,-0.16345 0.80755,-0.25378 1.1008,-0.49363 0.22964,-0.14202 0.47854,-0.26543 0.73465,-0.37866 1.0221,-0.34865 0.50494,0.67388 0.45741,0.76956 -0.22017,0.40137 -0.97626,0.16762 -0.7561,-0.23375 l 0,0 c 0.20309,-0.31307 0.32156,-0.19509 0.71312,-0.007 -0.20506,0.0903 -0.40389,0.18897 -0.59163,0.2986 -0.36231,0.2388 -0.77306,0.41383 -1.21426,0.56001 -1.41227,0.68526 -2.75463,1.45147 -4.05209,2.25336 -2.17373,1.30111 -4.4205,2.53879 -6.43182,3.98542 -2.28451,1.72632 -4.21426,3.67148 -6.24103,5.56609 -3.17473,2.89751 -6.359251,5.78644 -9.726771,8.56062 -3.97487,3.34472 -8.00436,6.65633 -11.81926,10.10536 -3.42886,3.23924 -6.76834,6.55504 -9.292403,10.25028 -1.709123,2.50321 -3.269025,5.05841 -4.757702,7.63964 -1.230587,2.23151 -2.369244,4.49699 -3.164212,6.84085 -0.675317,1.98849 -1.177564,4.00474 -1.604957,6.03136 -0.414014,1.60325 -0.918985,3.18689 -1.408354,4.77778 -0.353108,1.13941 -0.643257,2.29482 -0.737575,3.46435 0.0019,0.82922 0.0018,1.65882 0.04816,2.48746 0.04937,0.71809 0.123018,1.43624 0.306553,2.14322 0.113388,0.42564 -0.688428,0.54603 -0.801822,0.12039 z"
       inkscape:connector-curvature="0" />
  </g>
</svg>
