<?xml version="1.0" encoding="UTF-8" standalone="no"?>
<!-- Created with Inkscape (http://www.inkscape.org/) -->

<svg
   xmlns:dc="http://purl.org/dc/elements/1.1/"
   xmlns:cc="http://creativecommons.org/ns#"
   xmlns:rdf="http://www.w3.org/1999/02/22-rdf-syntax-ns#"
   xmlns:svg="http://www.w3.org/2000/svg"
   xmlns="http://www.w3.org/2000/svg"
   xmlns:sodipodi="http://sodipodi.sourceforge.net/DTD/sodipodi-0.dtd"
   xmlns:inkscape="http://www.inkscape.org/namespaces/inkscape"
   width="476"
   height="339"
   id="svg3918"
   version="1.1"
   inkscape:version="0.48.5 r10040"
   sodipodi:docname="point-in-potato.svg">
  <defs
     id="defs3920" />
  <sodipodi:namedview
     id="base"
     pagecolor="#ffffff"
     bordercolor="#666666"
     borderopacity="1.0"
     inkscape:pageopacity="0.0"
     inkscape:pageshadow="2"
     inkscape:zoom="1.4645833"
     inkscape:cx="320"
     inkscape:cy="240"
     inkscape:current-layer="layer1"
     inkscape:document-units="px"
     showgrid="false"
     inkscape:window-width="1440"
     inkscape:window-height="885"
     inkscape:window-x="0"
     inkscape:window-y="0"
     inkscape:window-maximized="1" />
  <metadata
     id="metadata3923">
    <rdf:RDF>
      <cc:Work
         rdf:about="">
        <dc:format>image/svg+xml</dc:format>
        <dc:type
           rdf:resource="http://purl.org/dc/dcmitype/StillImage" />
        <dc:title />
      </cc:Work>
    </rdf:RDF>
  </metadata>
  <g
     id="layer1"
     inkscape:label="Layer 1"
     inkscape:groupmode="layer"
     transform="translate(0,-141)">
    <path
       style="fill:#0000ff;fill-opacity:1"
       id="path3928"
       d="m 271.82655,211.43295 c -1.8771,-0.26993 -3.76595,-0.39953 -5.65494,-0.48575 -1.61796,-0.17453 -3.2158,0.14486 -4.8193,0.342 -1.96852,0.15235 -3.93418,0.23268 -5.90028,0.43156 -3.07713,0.30799 -6.16639,0.36896 -9.25284,0.42072 -3.82663,0.25085 -7.65392,0.46136 -11.48541,0.5764 -3.92946,-0.003 -7.85012,0.19106 -11.77364,0.41486 -3.93736,0.081 -7.85607,0.46678 -11.77217,0.91804 -4.33482,0.68291 -8.67275,1.32799 -13.02128,1.88495 -4.7765,0.63428 -9.52997,1.46811 -14.28778,2.26377 -4.84373,0.82386 -9.67938,1.70496 -14.51602,2.58252 -4.14972,0.71521 -8.22508,1.88416 -12.32475,2.89944 -4.05601,1.17544 -8.03857,2.64572 -11.96015,4.32363 -4.22916,1.73169 -8.32937,3.85156 -12.46109,5.86971 -4.04205,1.98995 -8.12998,3.83663 -12.15607,5.87166 -3.82312,2.03538 -7.64428,4.08105 -11.42825,6.21461 -3.36947,1.97008 -6.81671,3.74826 -10.217897,5.64005 -2.85956,1.53462 -5.65277,3.20073 -8.405415,4.97871 -0.4272,0.25851 -0.85826,0.50857 -1.28162,0.77549 -0.5033,0.31734 -2.01234,1.32904 -2.51355,1.66205 -0.406649,0.27017 -1.625819,1.08228 -1.220839,0.80872 0.68518,-0.46284 1.370159,-0.92622 2.061439,-1.37655 0.42553,-0.2772 -0.84273,0.57142 -1.264099,0.85713 -1.54641,1.0205 -3.09282,2.041 -4.63924,3.06151 -0.43782,0.29296 -1.7502,1.17409 -1.31348,0.87891 0.67521,-0.45634 2.70546,-1.81602 2.02888,-1.36243 -15.43427,10.34747 1.96733,-1.53143 -3.68526,2.58873 -2.18013,1.69691 -4.19494,3.64845 -6.13707,5.69384 -2.13203,2.35292 -4.27948,4.69692 -6.24313,7.24289 -1.97073,2.60815 -3.70785,5.43261 -5.43476,8.25977 -1.66458,2.6171 -3.20039,5.3162 -4.56877,8.15598 -1.24681,2.64051 -2.41191,5.32677 -3.41095,8.10648 -0.84818,2.27298 -1.78453,4.50036 -2.72013,6.72623 -0.82312,1.86979 -1.41057,3.84636 -1.91869,5.85658 -0.5089,2.18744 -1.297,4.26395 -1.97103,6.38489 -0.7042,2.14309 -1.30941,4.31407 -1.67044,6.57096 -0.34268,2.66394 -0.61687,5.33455 -0.77813,8.02168 -0.28957,2.95296 -0.4999,5.91128 -0.612,8.88037 -0.11789,3.03974 -0.12355,6.0744 0.0481,9.10995 0.1262,3.10422 0.55701,6.16122 1.23131,9.16313 0.57777,3.02392 1.72997,5.82945 2.87842,8.60367 1.19289,2.81455 2.27109,5.68854 3.5564,8.44891 1.15519,2.53103 2.42521,4.97002 3.86914,7.28916 1.35885,2.10564 2.67209,4.25006 4.00334,6.37976 1.36926,2.28772 2.73055,4.59336 4.29317,6.70911 1.55608,2.07308 3.33604,3.8814 5.25266,5.48446 2.06686,1.6196 4.1446,3.21127 6.34023,4.58526 2.53486,1.53122 5.17975,2.79816 7.82395,4.04684 2.94795,1.37128 6.012109,2.3672 9.053949,3.41039 3.426025,1.0046 6.837535,2.06827 10.280612,2.99109 3.53641,0.87555 7.10575,1.53848 10.67038,2.23204 4.07979,0.88575 8.18482,1.60509 12.30129,2.21521 4.72612,0.76422 9.46188,1.41544 14.22227,1.79885 4.816,0.31987 9.62765,0.68848 14.44921,0.88023 4.27541,0.1045 8.54294,0.44814 12.80477,0.84122 4.14497,0.28789 8.28081,0.71752 12.42689,0.9851 4.0327,0.20249 8.05872,0.55515 12.07989,0.9585 3.81775,0.53199 7.64908,0.90274 11.47637,1.32447 3.5272,0.39271 7.06966,0.50922 10.61047,0.5747 3.72508,-0.0482 7.44184,0.24779 11.16131,0.43645 3.86946,0.20025 7.73112,0.5409 11.60241,0.71387 3.90134,0.15178 7.8052,0.16909 11.70831,0.18167 3.68676,0.007 7.37351,0.002 11.06027,-5.4e-4 3.80126,-0.20519 7.60103,-0.42326 11.40532,-0.53884 3.89359,-0.002 7.77848,-0.18771 11.66588,-0.4197 3.65823,-0.33922 7.31777,-0.66073 10.9532,-1.25402 3.11793,-0.41314 6.1647,-1.30541 9.23308,-2.0383 2.93211,-0.72909 5.7859,-1.8041 8.67475,-2.72689 3.15854,-1.0262 6.28641,-2.16917 9.44327,-3.20205 3.15078,-0.98853 6.23636,-2.22606 9.3239,-3.44913 3.29733,-1.43496 6.49185,-3.16178 9.71826,-4.79616 2.96198,-1.59202 5.89071,-3.2552 8.78573,-5.00451 0.44914,-0.29913 1.79608,-1.19741 1.3474,-0.89738 -0.67069,0.44846 -1.31459,0.9568 -2.01338,1.3427 -0.45084,0.24898 0.84305,-0.62189 1.26609,-0.93002 1.29786,-0.94525 2.57725,-1.89696 3.83529,-2.91323 2.4825,-2.02824 5.038,-3.93629 7.60329,-5.81935 2.30597,-1.69686 4.48928,-3.59883 6.66551,-5.50923 2.06423,-1.88122 3.99206,-3.95774 5.98,-5.94715 2.28575,-2.24204 4.32702,-4.79011 6.30426,-7.39182 1.85085,-2.4239 3.73193,-4.81389 5.49971,-7.3215 1.74382,-2.5973 3.29858,-5.36249 4.82765,-8.1353 1.32189,-2.65217 2.80009,-5.19831 4.04954,-7.89834 1.17339,-2.64326 2.00759,-5.47199 2.75897,-8.30959 0.76504,-2.92129 1.37269,-5.89663 1.7721,-8.91501 0.23887,-2.83699 0.50799,-5.6722 0.70551,-8.51418 0.0928,-2.66592 0.2536,-5.32041 0.46325,-7.97702 0.20611,-2.58758 0.26309,-5.186 0.29804,-7.78293 -0.0933,-2.5985 -0.29697,-5.18846 -0.58378,-7.7669 -0.23109,-2.60254 -0.47424,-5.20178 -0.72422,-7.80223 -0.28188,-2.59589 -0.75651,-5.15192 -1.26816,-7.69698 -0.49155,-2.36916 -1.3739,-4.58734 -2.04562,-6.88884 -0.75211,-2.78546 -1.61233,-5.52694 -2.39525,-8.30073 -0.69319,-2.75168 -1.94328,-5.22214 -3.2216,-7.649 -1.29407,-2.34358 -2.59407,-4.6907 -3.99348,-6.95195 -1.31147,-2.04696 -2.75707,-3.96509 -4.18919,-5.89662 -1.41278,-1.71399 -2.92548,-3.31128 -4.40289,-4.94866 -1.26857,-1.40773 -2.51552,-2.84144 -3.75871,-4.27943 -1.13283,-1.21537 -2.14018,-2.55681 -3.12251,-3.93369 -0.89428,-1.26631 -2.0024,-2.29765 -3.0415,-3.39622 -1.10123,-1.33412 -2.3793,-2.40091 -3.71058,-3.39605 -1.50594,-1.17378 -3.00146,-2.36669 -4.49162,-3.56778 -1.53815,-1.22557 -2.99764,-2.57138 -4.47922,-3.88517 -1.37689,-1.11008 -2.77691,-2.16687 -4.21565,-3.1634 -1.36075,-0.79687 -2.77474,-1.45846 -4.1452,-2.23018 -1.31745,-0.62353 -2.64143,-1.2342 -3.92417,-1.95073 -1.09198,-0.61639 -2.27308,-0.98791 -3.37671,-1.56386 -0.91289,-0.41318 -1.8046,-0.89637 -2.74701,-1.21555 -0.79196,-0.22572 -1.53721,-0.60323 -2.34406,-0.78202 -0.60038,-0.1293 -1.21283,-0.13978 -1.82148,-0.1453 -0.68235,-0.29912 -1.41918,-0.36981 -2.09816,-0.66558 -0.70658,-0.38248 -1.49578,-0.40236 -2.22186,-0.68835 -0.76437,-0.37365 -1.59538,-0.40326 -2.38585,-0.64251 -0.81922,-0.3754 -1.71259,-0.36561 -2.54602,-0.65415 -1.05331,-0.39986 -2.16546,-0.47199 -3.2637,-0.53694 -1.44685,-0.32146 -2.92834,-0.3805 -4.37228,-0.70487 -1.24151,-0.23273 -2.45199,-0.5813 -3.67357,-0.92058 -1.13243,-0.42121 -2.28844,-0.74941 -3.46804,-0.92266 -1.00779,-0.34294 -2.03837,-0.53837 -3.07999,-0.66883 -0.96479,-0.0138 -1.89484,-0.31422 -2.83859,-0.51956 -0.89048,-0.21808 -1.81125,-0.0913 -2.69507,-0.32257 -0.82362,-0.25658 -1.66228,-0.40595 -2.50989,-0.49401 -0.69717,-0.0572 -1.39631,-0.0557 -2.09478,-0.0565 -0.60458,-0.21705 -1.19962,-0.45496 -1.82753,-0.56008 -0.44332,-0.0785 -0.89203,-0.0883 -1.33953,-0.0894 -0.37473,-1.8e-4 -0.74942,0.003 -1.12414,0.004 -0.40172,0.002 -0.80344,0.001 -1.20516,0.001 -0.45697,2e-4 -0.91395,1.2e-4 -1.37092,-1.9e-4 -0.87836,0.12825 -1.74688,0.38507 -2.63876,0.49048 -1.38132,0.13164 -2.76865,0.14449 -4.1538,0.15788 -0.76992,0.006 -1.53985,0.007 -2.30979,0.004 -0.37909,-0.002 -0.75819,-0.002 -1.13728,-0.002 -0.55977,-5.7e-4 -1.11954,-7.3e-4 -1.67931,-4.7e-4 -0.51512,-1.2e-4 -1.03024,-2e-4 -1.54536,5.6e-4 -0.27739,0 -0.55478,5.6e-4 -0.83218,1.6e-4 -0.38159,-2.3e-4 -0.76319,-3.8e-4 -1.14478,-3e-4 -0.53258,-3e-4 -1.06515,-2.5e-4 -1.59772,-6.5e-4 -0.87879,-0.26882 -1.77477,-0.44116 -2.67726,-0.55449 -0.59101,-0.0812 -1.1856,-0.0956 -1.77992,-0.10013 -0.59739,1.6e-4 -1.19477,0.002 -1.79215,0.003 -0.81701,0.0335 -1.62643,-0.0276 -2.44135,-0.091 0,0 3.15875,-2.64069 3.15875,-2.64069 l 0,0 c 0.81302,0.0456 1.62304,0.0893 2.43712,0.0616 0.59917,-0.002 1.1984,-0.007 1.79754,0.001 0.60212,0.0138 1.20351,0.0513 1.8013,0.14084 0.89032,0.13377 1.76531,0.35956 2.65189,0.50973 0.53309,-4.1e-4 1.06619,-3.6e-4 1.59929,-6.6e-4 0.38182,8e-5 0.76365,-7e-5 1.14547,-2.9e-4 0.27728,-4.1e-4 0.55455,1.5e-4 0.83182,1.5e-4 0.5147,7.5e-4 1.0294,6.3e-4 1.54409,5e-4 0.56012,2.6e-4 1.12026,3e-5 1.68038,-3e-5 0.37944,1.7e-4 0.75889,10e-4 1.13832,0.003 0.76689,0.004 1.53379,0.003 2.30066,-0.004 1.37764,-0.0175 2.75848,-0.033 4.13015,-0.19765 0.89279,-0.13744 1.76789,-0.43683 2.66958,-0.45139 0.45712,-2.9e-4 0.91424,-3e-4 1.37136,-4.1e-4 0.40161,-1.8e-4 0.80323,-0.001 1.20487,-0.003 0.37606,-0.002 0.75219,-0.005 1.12822,0.003 0.4604,0.0153 0.92075,0.0483 1.3742,0.14885 0.6021,0.14402 1.17858,0.40822 1.78838,0.49762 0.70592,0.005 1.41283,0.012 2.11607,0.092 0.85287,0.10801 1.69153,0.29942 2.52726,0.52428 0.89554,0.13922 1.80919,0.0975 2.69662,0.32598 0.93603,0.20948 1.86507,0.4584 2.82204,0.4928 1.04202,0.14898 2.06398,0.39576 3.08493,0.678 1.18444,0.21014 2.3419,0.56263 3.48961,0.96043 1.21217,0.34935 2.42705,0.65136 3.65819,0.89844 1.4413,0.27174 2.90117,0.41057 4.34575,0.66106 1.11823,0.0839 2.23829,0.20339 3.31095,0.6072 0.84617,0.21609 1.71411,0.31722 2.53949,0.64467 0.80778,0.18937 1.62445,0.32029 2.40031,0.66418 0.74716,0.21762 1.51238,0.35111 2.22897,0.70036 0.66687,0.22106 1.35093,0.40846 2.03136,0.55213 0.62505,0.0188 1.25214,0.0569 1.86423,0.21799 0.8026,0.22141 1.56302,0.58623 2.36297,0.81621 0.94149,0.35969 1.8511,0.82298 2.76871,1.25593 1.12363,0.53518 2.28555,0.96613 3.38264,1.57881 1.29078,0.69804 2.61267,1.31186 3.92487,1.95258 1.38565,0.76066 2.80447,1.43903 4.16317,2.26588 1.44983,1.00444 2.85582,2.08224 4.23844,3.20859 1.47405,1.31432 2.93633,2.64441 4.46888,3.86725 1.48916,1.19567 2.97929,2.39069 4.48656,3.55497 1.34262,1.01701 2.6254,2.11486 3.74586,3.45737 1.05372,1.11084 2.17096,2.16096 3.07016,3.4508 0.97466,1.36577 1.98075,2.68935 3.10207,3.89753 1.24105,1.43567 2.48579,2.86717 3.75196,4.2729 1.48606,1.64738 3.01021,3.25197 4.42185,4.98726 1.43847,1.9422 2.89109,3.87084 4.20486,5.93208 1.4035,2.27158 2.70987,4.62726 4.00849,6.98072 1.29189,2.4578 2.55953,4.95777 3.26416,7.74173 0.78253,2.77237 1.64222,5.51217 2.39718,8.29497 0.67053,2.31742 1.56312,4.5459 2.06323,6.92751 0.51384,2.56224 0.9988,5.13281 1.28925,7.74496 0.24643,2.59838 0.50085,5.19333 0.72082,7.79477 0.29152,2.59855 0.49823,5.20664 0.60969,7.82491 -0.0321,2.60701 -0.0837,5.21573 -0.28484,7.8139 -0.2081,2.65564 -0.39055,5.30661 -0.46626,7.97281 -0.19225,2.85201 -0.47455,5.69435 -0.69407,8.54298 -0.38474,3.03887 -0.98656,6.03382 -1.7486,8.97443 -0.73168,2.86438 -1.58035,5.71083 -2.727,8.38869 -1.22044,2.72824 -2.7316,5.26037 -4.03822,7.93289 -1.52355,2.78764 -3.0884,5.55494 -4.80954,8.18286 -1.75436,2.52535 -3.63868,4.91611 -5.49547,7.33869 -1.97493,2.61399 -4.0007,5.19099 -6.28361,7.44923 -1.98853,1.992 -3.92774,4.05476 -5.96729,5.97327 -2.18439,1.90541 -4.35129,3.8403 -6.65784,5.54627 -2.56888,1.87346 -5.12249,3.78303 -7.61049,5.79836 -3.53613,2.91131 -7.29496,5.43246 -11.07551,7.88473 -2.89534,1.75039 -5.835,3.39358 -8.8001,4.97825 -3.2295,1.63501 -6.42615,3.36919 -9.7391,4.76775 -3.09065,1.22207 -6.18305,2.44382 -9.33691,3.43046 -3.15643,1.0368 -6.28366,2.18654 -9.44567,3.20075 -2.89083,0.92804 -5.74961,2.00208 -8.69045,2.70441 -3.06901,0.74776 -6.12587,1.59901 -9.24652,2.01138 -3.64292,0.56544 -7.30609,0.9025 -10.97026,1.22107 -3.88888,0.23085 -7.77617,0.39144 -11.67071,0.41027 -3.80679,0.12252 -7.60867,0.35676 -11.41366,0.53117 -3.68647,0.002 -7.37296,0.006 -11.05943,-0.002 -3.90545,-0.0149 -7.81171,-0.0358 -11.71518,-0.19601 -3.87173,-0.18025 -7.73446,-0.5225 -11.60524,-0.71422 -3.71756,-0.19291 -7.43312,-0.4685 -11.1564,-0.42529 -3.54669,-0.0716 -7.0945,-0.20223 -10.62685,-0.60436 -3.8259,-0.42392 -7.65535,-0.80126 -11.47284,-1.32255 -4.01865,-0.40202 -8.04274,-0.7398 -12.0725,-0.94827 -4.14712,-0.27689 -8.28536,-0.69847 -12.43147,-0.99378 -4.25764,-0.3908 -8.52137,-0.7174 -12.79214,-0.82741 -4.82314,-0.20045 -9.63692,-0.57168 -14.4547,-0.89523 -4.76513,-0.39714 -9.50593,-1.05749 -14.23814,-1.8174 -4.12045,-0.62016 -8.22952,-1.34282 -12.31513,-2.22449 -3.57099,-0.68961 -7.14445,-1.36687 -10.684367,-2.25473 -3.44775,-0.92895 -6.866275,-1.99188 -10.294685,-3.01244 -3.052669,-1.04625 -6.125249,-2.05372 -9.078639,-3.44536 -2.65411,-1.25905 -5.30983,-2.53426 -7.84969,-4.08662 -2.20195,-1.39666 -4.29513,-2.99524 -6.36974,-4.63318 -1.93122,-1.63676 -3.72913,-3.4733 -5.29997,-5.57606 -1.56343,-2.1307 -2.93539,-4.44091 -4.31002,-6.73918 -1.3322,-2.12935 -2.64569,-4.27394 -4.00379,-6.38072 -1.45254,-2.33613 -2.7283,-4.79417 -3.8917,-7.34212 -1.28766,-2.76703 -2.37275,-5.64483 -3.56662,-8.46683 -1.15924,-2.7993 -2.32613,-5.63031 -2.91358,-8.68019 -0.68899,-3.02562 -1.13745,-6.10712 -1.26635,-9.23902 -0.17971,-3.05034 -0.18831,-6.09858 -0.0675,-9.15413 0.10479,-2.97221 0.30059,-5.93533 0.6054,-8.88946 0.15417,-2.7017 0.42694,-5.38507 0.75714,-8.06492 0.33867,-2.28349 0.92343,-4.47945 1.64074,-6.64062 0.65273,-2.12225 1.46826,-4.17731 1.98143,-6.3559 0.49086,-2.03589 1.07344,-4.03608 1.89125,-5.93003 0.93914,-2.21873 1.86752,-4.44378 2.73358,-6.70225 0.99211,-2.79677 2.14335,-5.50205 3.39479,-8.15487 1.35944,-2.85774 2.87087,-5.58464 4.55192,-8.20199 1.73534,-2.83041 3.45338,-5.68073 5.42048,-8.30457 1.93555,-2.58254 4.1043,-4.9108 6.22377,-7.28624 1.93647,-2.06632 3.94725,-4.03222 6.11283,-5.76943 3.02642,-2.21532 -0.48213,0.33441 5.74318,-3.99656 0.68199,-0.47447 -2.75041,1.85339 -2.06183,1.39202 1.53958,-1.03156 3.07511,-2.07132 4.61483,-3.1026 0.43818,-0.29349 1.74197,-1.19383 1.31888,-0.87169 -0.65313,0.4973 -1.33991,0.93188 -2.00987,1.39782 3.60036,-2.43937 7.184659,-4.91924 10.866594,-7.18956 2.75506,-1.77152 5.56265,-3.40741 8.416497,-4.95322 3.4063,-1.87543 6.83995,-3.68218 10.21318,-5.6391 3.78976,-2.12166 7.60571,-4.18258 11.43707,-6.19942 4.02733,-2.03011 8.12044,-3.86378 12.15753,-5.86633 4.13271,-2.02148 8.24015,-4.12684 12.47311,-5.85346 3.93405,-1.66013 7.92537,-3.13217 11.99535,-4.27539 4.10087,-1.01745 8.17994,-2.17625 12.33353,-2.87618 4.83654,-0.88116 9.67426,-1.75005 14.51787,-2.57752 4.75966,-0.80199 9.51783,-1.61997 14.29695,-2.25331 4.34983,-0.56562 8.6886,-1.22233 13.02789,-1.88399 3.91969,-0.45055 7.8437,-0.80062 11.78336,-0.89995 3.92504,-0.2252 7.84819,-0.39181 11.77872,-0.40659 3.83326,-0.12214 7.66164,-0.34881 11.49118,-0.57492 3.08355,-0.0572 6.16959,-0.13094 9.24296,-0.45191 1.96595,-0.19492 3.93538,-0.24836 5.90084,-0.44393 1.61334,-0.20477 3.22441,-0.46441 4.85148,-0.28607 1.89706,0.0968 3.79327,0.24006 5.67852,0.51232 0,0 -3.18158,2.62243 -3.18158,2.62243 z"
       inkscape:connector-curvature="0" />
    <path
       style="fill:#0000ff;fill-opacity:1"
       id="path3930"
       d="m 382.9908,398.18712 c 0.66443,2.87577 0.74487,5.85955 0.6983,8.81809 -0.0717,3.23019 -0.41588,6.44352 -0.81815,9.63742 -0.38581,2.58766 -0.84749,5.15758 -1.26673,7.73767 -0.23496,1.45967 -0.36374,2.93797 -0.43919,4.41927 0.0121,0.53434 -0.025,0.99237 -0.23122,1.46998 -0.088,0.19934 -0.18234,0.39475 -0.27528,0.59099 -0.43717,1.38595 -4.11834,3.04884 -3.32631,1.3486 0.28209,-1.27614 0.5367,-2.5654 0.81123,-3.84645 0.55478,-2.4591 1.03226,-4.94111 1.54546,-7.41252 0.57772,-2.25017 0.98141,-4.5416 1.19461,-6.87522 0.10589,-1.8124 0.39375,-3.59912 0.55032,-5.40601 0.22337,-1.61412 0.46606,-3.22168 0.60023,-4.85003 -0.005,-1.24236 -0.21893,-2.46543 -0.33649,-3.6969 -0.0782,-0.81975 -0.10449,-1.64424 -0.11573,-2.46837 0.0297,-0.51558 -0.18339,-0.97819 -0.36708,-1.43182 -0.042,-0.1075 -0.0909,-0.21107 -0.14007,-0.31409 3.79883,-2.50699 3.42266,-3.14783 3.42371,-0.77702 -0.0789,1.04939 0.18187,2.02358 0.46443,3.00383 0.49258,1.44157 1.06076,2.84314 1.67412,4.21972 0.64657,1.31553 1.29122,2.62749 2.086,3.83037 0.59984,1.11586 1.19634,2.22121 1.86056,3.28953 0.60811,0.95516 1.11198,1.97384 1.61035,3.01008 0.32498,0.82654 0.65765,1.64796 0.95176,2.49059 0.28604,0.27696 0.36985,0.96698 0.71801,1.13602 0.16091,0.0901 0.26598,-0.10508 0.40872,-0.19906 -1.04082,0.68144 -2.07563,1.3755 -3.12249,2.04429 -0.23199,0.14821 0.42333,-0.37182 0.61618,-0.58282 0.915,-1.28131 1.72022,-2.66826 2.55313,-4.02341 1.10795,-1.62093 2.01225,-3.40511 2.95435,-5.15691 0.90847,-1.68499 1.81065,-3.38085 2.67425,-5.0983 0.81758,-1.70605 1.72085,-3.35331 2.59617,-5.01938 0.55352,-1.27581 1.12106,-2.55243 1.58928,-3.87537 0.30672,-0.80603 0.67085,-1.57991 1.00785,-2.36872 0.15364,-0.3908 0.2824,-0.79389 0.39743,-1.20201 4.15329,-2.16572 3.52535,-2.71071 3.51654,0.48412 -0.0427,1.93923 -0.28912,3.8648 -0.40652,5.80113 -0.10401,2.56231 -0.38631,5.10981 -0.71039,7.64527 -0.47186,2.45299 -0.73657,4.94273 -1.04221,7.42704 -0.32564,2.16031 -0.49213,4.34197 -0.58082,6.53066 -0.0598,1.8641 -0.0633,3.72979 -0.0629,5.59494 8.2e-4,1.11508 0.004,2.23016 0.007,3.34523 8.2e-4,0.54528 0.003,1.09056 0.002,1.63585 4e-5,0.53756 -7e-5,1.07513 1.5e-4,1.61271 1.8e-4,0.23033 5.4e-4,0.46067 0.002,0.691 0.0396,0.30248 -0.10818,0.4056 -0.27194,0.59691 -0.24754,0.27053 -0.15918,0.35299 -0.35118,-0.19236 0.28423,-0.36976 0.77016,-0.43521 1.18463,-0.53509 0.81535,-0.40686 1.68902,-0.61505 2.5391,-0.90719 0.74306,-0.28819 1.51525,-0.42858 2.29186,-0.51673 0.10963,0.009 0.27221,-0.0326 0.3719,-0.0529 0,0 -3.11975,2.73637 -3.11975,2.73637 l 0,0 c -0.12399,0.003 -0.25839,-0.004 -0.3833,0.0283 -0.76335,0.11111 -1.51448,0.29999 -2.24667,0.57836 -0.8526,0.29687 -1.71755,0.53863 -2.55566,0.88881 -0.42597,0.13101 -0.84239,0.4844 -1.2834,0.38494 -0.3043,-0.5237 -0.32744,-0.37201 -0.0557,-0.67558 0.13922,-0.15663 0.26495,-0.33838 0.4003,-0.26871 7e-4,-0.23084 8.2e-4,-0.46166 0.002,-0.6925 2.5e-4,-0.53758 1.9e-4,-1.07518 1.5e-4,-1.61277 -5e-4,-0.54521 -2e-5,-1.09043 -6.3e-4,-1.63565 -1.6e-4,-1.11643 -0.003,-2.23286 -0.003,-3.34929 0.002,-1.87181 0.003,-3.74403 0.0579,-5.61499 0.0831,-2.20204 0.23167,-4.39974 0.56542,-6.57238 0.31962,-2.4818 0.54095,-4.98144 1.04293,-7.42876 0.32446,-2.5245 0.62299,-5.05969 0.72253,-7.61183 0.10923,-1.92778 0.34164,-3.8444 0.41226,-5.77094 0.004,-3.32862 -0.49303,-2.00333 3.4835,-4.49497 -0.0926,0.43436 -0.23696,0.85153 -0.37637,1.26749 -0.29547,0.80602 -0.6931,1.55674 -1.01687,2.3481 -0.45187,1.35245 -1.05014,2.62949 -1.5672,3.9488 -0.88152,1.65812 -1.7733,3.31036 -2.60209,5.0052 -0.82649,1.74366 -1.78648,3.41228 -2.6679,5.11752 -0.9524,1.74925 -1.82526,3.56469 -2.94463,5.18186 -0.84066,1.3591 -1.65959,2.73866 -2.52773,4.07286 -1.11002,1.58403 -3.09943,3.83989 -4.79943,2.91938 -0.34457,-0.38127 -0.53475,-0.91076 -0.82359,-1.34797 -0.28422,-0.82728 -0.61268,-1.6295 -0.92537,-2.44202 -0.4896,-1.02174 -0.98669,-2.02436 -1.58633,-2.9652 -0.66099,-1.06539 -1.25548,-2.16831 -1.85439,-3.27914 -0.80462,-1.22718 -1.46107,-2.56151 -2.11867,-3.90006 -0.62345,-1.3966 -1.19951,-2.81915 -1.70582,-4.2791 -0.2961,-1.01903 -0.60227,-2.03762 -0.52725,-3.13157 -0.004,-2.44576 -0.11603,-1.48579 3.42725,-3.57656 0.0581,0.11877 0.11247,0.23987 0.16203,0.36389 0.20398,0.50485 0.45527,1.03706 0.44406,1.60405 0.007,0.8116 0.0247,1.62394 0.0968,2.43185 0.11166,1.26129 0.32418,2.50973 0.36945,3.77842 -0.123,1.63079 -0.34609,3.24355 -0.60036,4.85321 -0.148,1.81008 -0.43816,3.5967 -0.55244,5.40911 -0.19656,2.35272 -0.57608,4.66986 -1.17431,6.93215 -0.51284,2.47071 -0.99112,4.95179 -1.54053,7.4111 -0.2679,1.30142 -0.58488,2.58892 -0.7774,3.90927 -0.44488,1.55866 -4.50045,3.30565 -3.7891,2.39191 0.10215,-0.18471 0.19488,-0.37619 0.28687,-0.56798 0.25042,-0.52906 0.34684,-0.63088 0.30482,-1.2961 0.0731,-1.49955 0.19458,-2.9973 0.42582,-4.47617 0.41244,-2.57799 0.88237,-5.14196 1.27754,-7.72407 0.40485,-3.17771 0.76335,-6.37311 0.8424,-9.58778 0.0562,-2.90451 -0.006,-5.82967 -0.64105,-8.65897 0,0 3.40676,-2.20441 3.40676,-2.20441 z"
       inkscape:connector-curvature="0" />
    <path
       style="fill:#0000ff;fill-opacity:1"
       id="path3932"
       d="m 375.2716,434.72024 c 1.53664,-0.69527 3.12509,-1.29286 4.78064,-1.35576 1.35822,0.0408 2.71164,0.19155 4.06747,0.28818 0.70581,-0.005 1.20394,0.25576 0.97063,1.13992 0,0 -3.56771,1.83915 -3.56771,1.83915 l 0,0 c 0.065,-0.0588 0.12156,-0.13281 0.1948,-0.17639 0.0293,-0.0174 0.11568,0.0346 0.0987,0.002 -0.11678,-0.22457 -0.72755,-0.0839 -0.86402,-0.15943 -1.34408,-0.10193 -2.68785,-0.26396 -4.03597,-0.24531 -1.62913,0.17177 -3.19579,0.75339 -4.70286,1.48296 0,0 3.05837,-2.81511 3.05837,-2.81511 z"
       inkscape:connector-curvature="0" />
    <path
       style="fill:#008000;fill-opacity:1"
       id="path3934"
       d="m 162.80624,300.13041 c -0.50809,1.52629 -1.10255,3.11618 -1.00872,4.78555 0.11046,0.86542 0.72051,0.75336 1.21608,0.35783 -1.02764,0.66757 -2.02677,1.3985 -3.08292,2.00271 -0.1337,0.0765 0.2014,-0.25743 0.28423,-0.40164 0.42752,-0.74443 0.49036,-1.53708 0.45142,-2.40558 -0.10866,-0.89813 -0.29462,-2.16084 -1.21033,-2.32461 -1.1652,0.14312 -3.77648,1.83115 2.30587,-1.69813 0.16021,-0.093 -0.28155,0.26004 -0.40369,0.41243 -0.32124,0.40084 -0.38809,0.61893 -0.60957,1.09684 -0.31357,0.91556 -0.59264,1.90479 -0.34543,2.88098 0.12581,0.18844 0.17938,0.0652 0.29572,-0.0592 -1.06282,0.68263 -2.11802,1.38163 -3.18848,2.04789 -0.17438,0.10854 0.28599,-0.32287 0.39648,-0.51382 0.0469,-0.0661 0.57599,-1.56305 0.2515,-1.30538 -0.72321,1.35986 -0.0612,0.0547 3.05889,-1.86434 0.0952,-0.0585 -0.1703,0.1547 -0.24485,0.24509 -0.21325,0.25859 -0.36794,0.57476 -0.51254,0.88728 -0.17374,0.5623 0.14218,0.65152 0.54058,0.74105 1.26641,-0.55547 2.81352,-1.60317 -2.68825,1.82991 -0.0961,0.06 0.17812,-0.14834 0.25549,-0.23779 0.20419,-0.23603 0.2819,-0.41272 0.43395,-0.69176 0.30333,-0.61308 0.34194,-1.31903 -0.1577,-1.79084 -0.21723,-0.17686 -0.39719,-0.24781 -0.65086,-0.14306 -0.0661,0.0273 -0.25355,0.13946 -0.19239,0.0994 3.31079,-2.16787 4.05205,-3.05201 3.02742,-1.87585 -0.29514,0.59775 -0.27104,1.22905 -0.0747,1.85531 0.249,0.32282 0.59091,0.44067 0.91643,0.22424 -6.68943,3.99599 -3.1118,2.51292 -2.39001,1.24576 0.20593,-0.36153 0.21343,-0.51446 0.32618,-0.9442 0.2418,-1.17315 0.26123,-2.32017 -0.34119,-3.33878 -0.0759,-0.0932 -0.1342,-0.21101 -0.22743,-0.27944 -0.20215,-0.14839 -0.3254,-0.0221 -0.51623,0.0652 1.01976,-0.63796 2.01648,-1.32865 3.05929,-1.9139 0.14865,-0.0834 -0.25372,0.24916 -0.35815,0.39795 -0.12623,0.17983 -0.21963,0.38778 -0.32945,0.58168 -0.62671,1.50053 -1.05374,3.08251 -1.11975,4.7511 -0.0467,0.69637 0.1613,1.59772 0.90634,1.37904 1.18241,-0.64027 2.9723,-1.53055 -2.51358,1.67779 -0.13418,0.0784 0.21444,-0.24762 0.29987,-0.39142 0.2299,-0.38697 0.29934,-0.69485 0.43857,-1.13365 0.23587,-1.0545 0.55737,-2.1898 -0.0233,-3.15005 -0.56694,-0.69124 -1.22762,-1.31298 -2.06363,-0.94468 -1.52618,1.13077 1.06622,-0.80473 2.5797,-1.57709 0.16686,-0.0852 -0.22811,0.33218 -0.32422,0.51243 -0.37202,0.69775 -0.58589,1.42163 -0.75673,2.21084 -0.14096,1.1578 -0.22996,2.6052 0.78142,3.21142 0.70782,0.29631 1.41343,0.35827 2.12902,0.0558 0.19624,-0.083 0.74995,-0.42571 0.56974,-0.30298 -0.93187,0.63466 -1.8846,1.22682 -2.82688,1.84022 1.04594,-0.8782 1.32498,-2.12742 0.95373,-3.52238 -0.31776,-1.15336 -1.01613,-1.76212 -1.98235,-2.07475 -1.14986,0.12547 -4.56182,2.33871 2.22268,-1.68262 0.10512,-0.0623 -0.16448,0.19927 -0.22845,0.31468 -0.0716,0.12914 -0.11681,0.2757 -0.17521,0.41354 -0.36065,1.30096 -0.27275,2.64751 0.18016,3.89453 0.34567,0.99588 0.87515,1.64368 1.74279,1.96473 1.18636,-0.21419 3.79157,-2.02428 -2.34978,1.71164 -0.14111,0.0858 0.2588,-0.21772 0.37492,-0.34454 0.3648,-0.39843 0.36323,-0.48553 0.62057,-1.0002 0.55323,-1.43607 0.58867,-2.92772 -0.12341,-4.27868 -0.61687,-0.87827 -1.53334,-1.60225 -2.53673,-1.5802 -0.12186,0.0216 -0.2548,0.002 -0.3656,0.0649 -0.11456,0.0651 -0.39415,0.37018 -0.28084,0.30221 1.01066,-0.6063 1.95061,-1.3716 2.98389,-1.92377 0.16117,-0.0861 -0.22597,0.32045 -0.31627,0.4982 -0.2591,0.50999 -0.30106,0.80605 -0.45014,1.37985 -0.37171,1.69376 -0.1229,3.35933 0.62801,4.85229 0.6518,1.12684 1.52531,1.47336 2.63636,1.21471 0.71749,-0.34493 5.36511,-2.60449 -2.34396,1.56629 -0.17886,0.0968 0.29102,-0.3125 0.41488,-0.49123 0.49011,-0.70728 0.71321,-1.47465 0.91166,-2.33693 0.33021,-1.85948 -0.0956,-3.49858 -1.04606,-4.98614 -0.86449,-1.02419 -1.61726,-1.62799 -2.7904,-0.93954 5.5652,-3.58902 2.78539,-2.16375 1.91093,-0.90309 -0.4452,0.64182 -0.74551,1.40238 -1.03647,2.14599 -0.42808,1.48901 -0.35399,3.01387 0.21953,4.42558 0.66243,1.15803 1.61711,1.20291 2.68741,0.93666 1.17514,-0.84914 3.80762,-1.61239 -1.74426,1.10664 -0.21257,0.10411 0.32345,-0.38485 0.46317,-0.59852 0.41341,-0.63221 0.44179,-0.83515 0.71657,-1.5724 0.60333,-1.81136 0.36323,-3.53733 -0.49657,-5.14805 -0.87541,-1.37296 -1.9926,-1.37474 -3.30209,-0.96909 -0.24076,0.11391 -0.48972,0.20667 -0.72228,0.34171 -0.22338,0.12971 -0.86113,0.58791 -0.64137,0.4501 0.91227,-0.5721 1.77559,-1.25556 2.71945,-1.75329 0.22231,-0.11722 -0.3649,0.37994 -0.52393,0.59552 -0.43001,0.58293 -0.41481,0.68181 -0.65894,1.35925 -0.39197,1.52886 0.13407,2.78798 1.0733,3.83617 1.02512,0.91125 2.26252,1.39417 3.54828,1.34277 0.40938,-0.0594 0.6062,-0.0452 0.98012,-0.26562 0.13942,-0.0821 0.52265,-0.39747 0.38497,-0.31146 -0.98603,0.61609 -1.92926,1.32557 -2.93236,1.90308 -0.1492,0.0858 0.24392,-0.26556 0.34908,-0.41581 0.10543,-0.15066 0.18678,-0.32216 0.28019,-0.48324 0.60543,-1.49291 0.30801,-3.09597 -0.23351,-4.54158 -0.67454,-1.43558 -1.8673,-1.87095 -3.18844,-1.86764 -0.61963,0.1479 -0.54737,0.0751 -1.09447,0.41669 -0.14305,0.0893 -0.55601,0.39004 -0.41401,0.29848 4.81319,-3.10329 3.23546,-2.57392 2.32122,-1.12503 -0.62128,1.34069 -0.20046,2.8398 0.27133,4.14825 0.52231,1.32555 1.37556,2.2856 2.51358,2.85709 1.35201,0.42738 4.0785,-1.80806 -2.25857,2.00394 -0.0831,0.05 0.14308,-0.14775 0.18637,-0.24432 0.0608,-0.13561 0.0795,-0.2916 0.11921,-0.43739 0.26729,-1.2493 0.0394,-2.3855 -0.44455,-3.50941 -0.25465,-0.39551 -0.47083,-0.80766 -0.89787,-0.95408 -0.45974,-0.15764 -0.5023,0.0695 -0.50094,0.0686 1.05398,-0.67622 2.11105,-1.34585 3.16657,-2.01877 0,0 -3.62088,1.69363 -3.62088,1.69363 l 0,0 c 2.54073,-1.70673 3.59618,-3.72338 5.2396,-1.03688 0.52459,1.20612 0.81029,2.43728 0.574,3.79273 -0.004,0.0199 -0.1357,0.94094 -0.19002,0.9826 -1.81923,1.39521 -2.82244,2.94064 -4.62397,2.16707 -1.18606,-0.68079 -2.09588,-1.73578 -2.65851,-3.14546 -0.52156,-1.41954 -0.96713,-3.03097 -0.44385,-4.539 0.95712,-2.00832 2.05272,-2.02959 4.28255,-3.55293 0.49987,-0.34149 1.05637,-0.50313 1.63318,-0.52105 1.44069,0.11264 2.70133,0.75804 3.42225,2.29777 0.59512,1.56069 0.91862,3.26477 0.40326,4.92672 -1.08651,2.37776 -3.52634,3.8408 -5.78112,4.07576 -1.3638,-0.0919 -2.65151,-0.60204 -3.71236,-1.63203 -1.00534,-1.18065 -1.62085,-2.59231 -1.28421,-4.29189 0.86821,-3.22384 3.9021,-4.54564 6.4579,-5.65656 1.45827,-0.30417 2.65517,-0.0393 3.56889,1.43432 0.90712,1.71235 1.24853,3.57096 0.66351,5.52535 -1.04873,3.29141 -3.15911,4.58098 -6.08529,5.69241 -1.22848,0.15562 -2.25675,-0.13988 -2.96144,-1.42357 -0.62443,-1.51408 -0.75374,-3.14077 -0.36859,-4.77062 1.26859,-3.63395 2.33874,-3.81505 5.73428,-5.93454 1.24666,-0.37946 2.24574,0.34204 3.07175,1.42586 0.99912,1.59025 1.49996,3.34502 1.20468,5.33433 -0.58898,3.26064 -2.60414,5.15555 -5.61708,5.93942 -1.23381,0.0809 -2.18922,-0.42989 -2.88557,-1.65739 -0.79073,-1.58577 -1.11817,-3.35791 -0.77089,-5.17252 0.60617,-2.85019 2.24068,-4.75125 5.11911,-4.91245 1.09842,0.21353 2.06065,0.90402 2.73353,1.94204 0.76673,1.4761 0.8415,3.07383 0.3048,4.68906 -0.87124,2.28403 -3.25446,4.3673 -5.4311,4.04135 -0.9175,-0.43609 -1.52236,-1.2108 -1.90654,-2.28202 -0.50341,-1.34675 -0.62574,-2.77793 -0.32325,-4.21429 0.65096,-2.23521 2.96752,-3.79783 4.94693,-3.50145 1.03532,0.44474 1.81098,1.18195 2.17178,2.44095 0.43792,1.50638 0.30841,2.94062 -0.73624,4.06596 -2.24737,1.5138 -4.19635,3.81795 -6.78012,2.51155 -1.1069,-0.90691 -1.15435,-2.22007 -1.01377,-3.70199 0.544,-3.27619 2.02193,-4.65235 5.11959,-5.85815 0.96557,-0.0565 1.69849,0.55741 2.31577,1.38491 0.6412,1.11706 0.46908,2.27409 0.18913,3.52214 -0.68146,2.60696 -2.27373,4.16629 -4.91506,4.43811 -0.85416,-0.22241 -1.26313,-0.98281 -1.2218,-1.99462 0.033,-1.73944 0.43852,-3.36092 1.03734,-4.95343 0.90573,-2.04883 3.67939,-5.07758 5.29541,-2.99418 0.64528,1.13202 0.74222,2.35924 0.49456,3.67837 -0.48905,2.66421 -2.39202,3.07602 -4.56256,4.40295 -0.51762,-0.0255 -0.92323,-0.24478 -1.21755,-0.76217 -0.24357,-0.73389 -0.32674,-1.45926 -0.079,-2.21469 0.57453,-1.9477 3.19517,-3.61771 4.70051,-2.31562 0.538,0.64691 0.72653,1.48417 0.40165,2.33249 -0.90688,1.9527 -2.80325,3.72453 -4.78306,3.51624 -0.58217,-0.23674 -0.93031,-0.66456 -0.87009,-1.42152 0.61255,-1.92992 2.79986,-4.23765 4.50308,-3.66482 0.53956,0.54218 0.28182,1.26277 0.0494,1.94968 -0.67245,1.84076 -3.23141,4.38407 -4.4829,2.57273 -0.30853,-1.07945 -0.1072,-2.14135 0.2172,-3.19308 0.9003,-2.35179 3.16426,-4.62706 5.48203,-4.24102 0.96675,0.50617 1.31512,1.61759 1.44338,2.78859 0.30728,3.55718 -1.33704,3.83924 -4.16937,5.71695 -0.78161,0.22645 -1.439,-0.0906 -1.61445,-1.07825 -0.1825,-1.73076 0.41011,-3.3965 0.92324,-4.99 0,0 3.5421,-1.89574 3.5421,-1.89574 z"
       inkscape:connector-curvature="0" />
    <path
       style="fill:#008000;fill-opacity:1"
       id="path3936"
       d="m 163.40495,323.03894 c 0.004,-1.48706 5.6e-4,-2.97412 -5.4e-4,-4.46117 0.0204,-0.81596 0.33493,-1.37827 0.8726,-1.86408 1.2499,-0.96212 1.63991,-1.27076 3.78219,-2.46908 1.08422,-0.60649 -4.1659,2.80184 -3.14077,2.06909 1.43866,-1.02833 2.62598,-1.86879 4.03846,-2.63817 0.49547,-0.3529 0.78266,0.34756 1.04493,0.76399 0.56213,1.05504 0.62573,2.32548 0.71154,3.53184 0.15092,1.89774 0.0266,3.7802 -0.23022,5.65571 -0.27521,2.17525 -0.72101,4.31228 -1.05531,6.47468 -0.06,1.13817 -0.44181,2.19887 -0.64661,3.29989 -4.39116,2.81297 -3.52055,2.61199 -2.94208,0.0162 0.35842,-1.61002 0.79233,-3.19223 1.2663,-4.76034 0.3399,-1.28894 0.65601,-2.58788 1.09324,-3.83831 0.37148,-1.02858 0.8769,-1.97435 1.39966,-2.9051 0.48638,-0.8618 1.03278,-1.669 1.58906,-2.46924 1.27749,-1.86033 3.04203,-2.62932 4.85747,-3.84243 0.56976,-0.0888 1.06102,-0.41954 1.60558,-0.61937 0.55873,-0.1525 1.1317,-0.17344 1.70259,-0.18959 0.53782,-0.0891 0.96187,0.0982 1.43334,0.37486 0.517,0.52977 0.54466,1.28021 0.58585,2.02982 0.0357,1.20485 0.0241,2.41086 0.0208,3.6162 0.0747,1.39166 -0.17646,2.7528 -0.3324,4.12395 -0.0772,1.52243 -0.3641,3.00925 -0.55052,4.51496 -0.0919,1.26621 -0.37756,2.49625 -0.61947,3.73115 -0.1132,0.55897 -0.15499,1.13066 -0.1755,1.70287 0.0258,0.0682 -0.0696,0.46436 0.0216,0.49966 0.0506,0.0196 0.11026,-0.19967 0.0626,-0.17166 -1.08629,0.63847 -2.15253,1.32218 -3.22881,1.98327 0.38409,-0.85976 0.58388,-1.78234 0.6872,-2.737 0.26359,-1.48774 0.45474,-2.98149 0.5552,-4.49594 0.1732,-1.53139 0.34393,-3.06408 0.69613,-4.555 0.27077,-0.99834 0.57966,-2.00066 1.00606,-2.92514 0.24942,-0.64885 0.59727,-1.22213 0.94649,-1.8006 0.41544,-0.58407 0.80115,-1.20101 1.23534,-1.7664 1.26723,-1.58773 2.62153,-2.13501 4.43965,-3.34009 1.03446,-0.68566 -2.06503,1.37927 -3.09754,2.06891 1.31797,-0.92719 2.64951,-1.78964 4.00873,-2.66243 0.0673,-0.0432 0.28671,-0.1244 0.22033,-0.0793 -3.90215,2.65411 -4.134,2.84683 -2.96778,1.92537 1.98212,-1.57418 3.04036,-2.48856 5.06168,-2.66769 0.42832,0.0305 0.97075,-0.21099 1.28705,0.17076 0.166,0.28868 0.30736,0.6069 0.55851,0.81715 0.36044,0.41207 0.5806,0.87681 0.69645,1.44442 0.10748,0.74264 0.0895,1.50145 0.0914,2.25212 -0.098,0.90589 -0.32739,1.78037 -0.4495,2.68313 -0.0769,0.98032 -0.36219,1.91067 -0.5083,2.87748 -0.22034,1.04251 -0.4695,2.07124 -0.60988,3.13366 -0.0987,0.81546 -0.10977,1.63935 -0.1168,2.46126 -0.004,0.91416 -2.6e-4,1.82834 0.002,2.74249 -0.002,0.83793 -0.0495,1.66168 0.1366,2.47602 0.26718,0.77753 0.80959,0.86609 1.45248,0.97692 0.66728,0.0706 1.33832,0.0651 2.00766,0.0577 0,0 -3.1556,2.67276 -3.1556,2.67276 l 0,0 c -0.68363,-3.7e-4 -1.37136,-0.003 -2.0483,-0.12663 -0.77009,-0.19116 -1.36334,-0.51832 -1.68282,-1.41005 -0.20913,-0.85432 -0.21253,-1.6965 -0.18481,-2.58367 -8.2e-4,-0.91535 -0.004,-1.83072 -0.004,-2.74608 0.004,-0.84025 0.009,-1.68211 0.0934,-2.51782 0.12772,-1.06699 0.33314,-2.11048 0.60796,-3.14011 0.12392,-0.9739 0.40822,-1.8972 0.5103,-2.86971 0.0999,-0.89039 0.28177,-1.75647 0.47469,-2.62436 -4e-4,-0.72284 0.0158,-1.45066 -0.0566,-2.16958 -0.0703,-0.48428 -0.25736,-0.85405 -0.57027,-1.18889 -0.20222,-0.2318 -0.39194,-0.50239 -0.53987,-0.7797 -0.33839,0.0909 -0.75992,0.0325 -1.12588,0.0973 -1.61741,0.22432 -3.93456,1.94071 1.70978,-1.68488 -2.00681,1.37651 -7.50168,5.00183 -0.82478,0.50995 0.14808,-0.0996 -0.62468,0.45903 -0.43167,0.32289 -7.36805,4.92967 -2.39532,1.61255 -0.46137,0.28262 0.0759,-0.0522 -0.1657,0.0746 -0.23873,0.13199 -0.25485,0.20024 -0.43726,0.52444 -0.68305,0.73799 -0.46569,0.52888 -0.8143,1.15488 -1.25413,1.715 -0.37318,0.54969 -0.72903,1.10755 -0.96605,1.75193 -0.46384,0.87611 -0.7551,1.85781 -1.04872,2.82416 -0.36247,1.46562 -0.55375,2.96306 -0.73354,4.47415 -0.0879,1.51856 -0.24247,3.02559 -0.54566,4.50881 -0.079,0.99368 -0.24231,1.96873 -0.62907,2.86982 -0.13887,0.10355 -3.90553,4.4194 -3.89,1.62295 0.0143,-0.59724 0.0428,-1.19519 0.14515,-1.78224 0.243,-1.22455 0.54631,-2.44276 0.63891,-3.69819 0.17467,-1.50768 0.48317,-2.98763 0.55202,-4.5104 0.14541,-1.35686 0.42204,-2.69747 0.35275,-4.07248 0.004,-1.19714 0.0129,-2.39463 -0.0125,-3.59152 -0.0214,-0.5439 0.0475,-1.24894 -0.3758,-1.60634 -0.43367,-0.21843 -0.85691,-0.25211 -1.32706,-0.19846 -0.55226,0.0299 -1.10807,0.0812 -1.63427,0.29477 -0.52496,0.22046 -1.04556,0.45369 -1.56865,0.67412 5.79276,-3.92715 2.89498,-2.24817 1.76732,-0.80026 -0.49886,0.84256 -1.13986,1.56604 -1.59875,2.44873 -0.53317,0.90619 -1.04426,1.82803 -1.42586,2.83547 -0.51133,1.20031 -0.76146,2.53492 -1.11086,3.80565 -0.46998,1.55774 -0.92165,3.11961 -1.279,4.71894 -0.20941,1.04165 -1.93074,8.84541 -4.06387,3.98054 -0.0179,-1.12423 0.7111,-2.19097 0.63758,-3.34616 0.32397,-2.16441 0.78514,-4.29673 1.05938,-6.47192 0.27536,-1.83974 0.41008,-3.68746 0.26792,-5.55418 -0.0709,-1.11988 -0.0992,-2.32093 -0.61016,-3.30747 -0.29442,-0.46043 -0.32143,-0.53394 -0.7395,-0.24644 -0.14618,0.0843 -0.57728,0.35377 -0.43641,0.25793 1.02813,-0.69954 4.15726,-2.70268 3.09116,-2.08504 -12.11457,7.01855 2.34209,-0.58976 -0.6509,0.3728 -0.52277,0.35487 -0.94884,0.71747 -1.03116,1.46112 -8.2e-4,1.48727 -0.004,2.97454 -5.2e-4,4.4618 0,0 -3.47296,2.06097 -3.47296,2.06097 z"
       inkscape:connector-curvature="0" />
    <path
       style="fill:#008000;fill-opacity:1"
       id="path3938"
       d="m 199.41497,337.26891 c -0.21459,0.10696 -0.43442,0.20064 -0.64377,0.32086 -0.22129,0.12706 -0.43093,0.27996 -0.64639,0.41993 -0.21705,0.13276 -0.8635,0.54098 -0.65115,0.39829 4.84115,-3.25323 2.96098,-2.1475 1.93397,-0.97298 -0.56196,0.80617 -0.82876,1.83591 -1.0567,2.82594 -0.13401,0.83391 -0.29346,1.69672 -0.0949,2.5288 0.11361,0.64762 0.34259,1.21061 0.59896,1.78988 0.28241,0.51575 0.70116,0.64205 1.18897,0.73119 0.64554,0.10773 1.21599,0.039 1.8246,-0.19493 0.0956,-0.0391 0.18972,-0.0838 0.28686,-0.11743 0.60375,-0.20946 0.0409,0.0623 0.56985,-0.28293 0.0965,-0.063 0.39398,-0.23415 0.29807,-0.16996 -3.27012,2.18874 -3.97436,2.86347 -2.83176,1.80604 0.38902,-0.49321 0.76341,-0.99278 0.9678,-1.62414 0.0978,-0.72603 0.33577,-1.40316 0.50958,-2.10515 0.16112,-0.70324 0.2043,-1.4301 0.22913,-2.1541 0.0145,-0.59462 0.012,-1.18956 0.0101,-1.78434 0.0572,-0.53526 -0.17051,-0.98415 -0.31058,-1.47591 -0.10446,-0.36324 -0.0615,-0.75244 -0.39497,-0.90576 -0.34783,-0.36159 -0.76777,-0.47857 -1.21384,-0.57162 -0.62353,-0.54024 -1.11402,-0.20991 -1.72918,0.20879 0.89001,-0.57603 1.78002,-1.15205 2.67001,-1.72808 0,0 -3.62651,1.651 -3.62651,1.651 l 0,0 c 1.334,-0.91829 2.668,-1.83657 4.00201,-2.75486 0.72955,-0.342 1.19296,-0.38405 1.88806,0.0297 0.46993,0.1345 0.8969,0.34682 1.28439,0.68979 0.36558,0.30555 0.45746,0.69496 0.53997,1.19347 0.14108,0.53405 0.42029,1.023 0.36726,1.59865 0.002,0.5998 0.005,1.1997 -0.005,1.79943 -0.0159,0.75182 -0.048,1.50809 -0.19204,2.24382 -0.14211,0.72697 -0.45152,1.3809 -0.4974,2.13252 -0.18199,0.73376 -0.49427,1.24451 -0.8864,1.84089 -1.35064,1.58065 -3.20189,2.60108 -5.02576,3.25269 -0.63699,0.1842 -1.2919,0.14825 -1.93686,0.0189 -0.57717,-0.16753 -1.05296,-0.46914 -1.37519,-1.07506 -0.26546,-0.60604 -0.51946,-1.18604 -0.63379,-1.86374 -0.24434,-0.90907 -0.14145,-1.81481 0.003,-2.74484 0.20719,-1.05263 0.50595,-2.10893 0.97525,-3.04118 1.75279,-2.28503 4.33593,-3.40928 6.66354,-4.72872 0,0 -3.05837,2.8151 -3.05837,2.8151 z"
       inkscape:connector-curvature="0" />
    <path
       style="fill:#c83737;fill-opacity:0.98293511;stroke:#fe0000;stroke-width:0;stroke-miterlimit:4;stroke-opacity:1;stroke-dasharray:none"
       id="path3062"
       d="m 112.76184,354.48875 c 0.20316,-1.60091 0.58603,-3.16108 0.83641,-4.75316 0.24254,-0.86263 0.49294,-1.72806 0.77176,-2.57597 0.2383,-0.87693 0.50528,-1.72271 0.88261,-2.53267 0.45848,-0.8965 1.00294,-1.73215 1.43727,-2.64579 0.3053,-0.56809 0.72219,-1.02088 0.96112,-1.63356 0.2479,-0.48405 0.51663,-0.94338 0.77366,-1.41968 0.243,-0.59922 0.53928,-1.18149 0.74865,-1.8 0.30687,-0.60989 0.57737,-1.23728 0.93088,-1.81298 0.30343,-0.43637 0.59716,-0.87773 0.90547,-1.30676 0.38209,-0.5236 0.79152,-1.02235 1.17057,-1.55104 0.5787,-0.75733 1.07338,-1.584 1.56876,-2.41524 0.42103,-0.79924 0.88739,-1.57195 1.364,-2.32959 0.48535,-1.01867 1.235,-1.77317 1.95947,-2.54637 0.49119,-0.48171 0.92785,-1.03858 1.46255,-1.45709 0.56113,-0.38611 0.96936,-0.96826 1.44174,-1.47782 0.4673,-0.51666 0.97123,-0.97737 1.49362,-1.41419 0.79294,-0.63842 1.63798,-1.18201 2.46088,-1.76653 0.74391,-0.54819 1.46971,-1.12485 2.22028,-1.66038 0.63812,-0.49268 1.23171,-1.05306 1.84621,-1.58279 0.66865,-0.58142 1.3488,-1.14518 2.05578,-1.66219 0.60229,-0.40313 1.22053,-0.75293 1.85062,-1.09385 0.63679,-0.30487 1.25096,-0.66012 1.87804,-0.9899 0.72739,-0.37896 1.42525,-0.82534 2.1424,-1.22791 0.53063,-0.50037 1.17468,-0.74499 1.7777,-1.085 0.64918,-0.28448 1.27624,-0.59609 1.90519,-0.93595 0.61103,-0.22402 1.19363,-0.52814 1.76463,-0.8652 0.63491,-0.34438 1.2546,-0.72519 1.88862,-1.07186 0.50298,-0.48115 1.12128,-0.70358 1.69557,-1.02672 0.58951,-0.32612 1.18309,-0.6448 1.78429,-0.94312 0.64274,-0.27082 1.23312,-0.66015 1.88926,-0.89919 0.54109,-0.34612 1.07952,-0.70861 1.64617,-0.99991 0.8978,-0.42134 1.72918,-0.9842 2.57094,-1.5331 0.6866,-0.48296 1.39931,-0.90755 2.09801,-1.36417 0.81976,-0.43281 1.53805,-1.06226 2.34832,-1.51406 0.85261,-0.58442 1.73559,-1.10412 2.56723,-1.72924 1.05941,-0.74672 2.1388,-1.44591 3.16398,-2.25639 0.95086,-0.76717 1.74057,-1.75917 2.63254,-2.60847 0.83284,-0.84045 1.6767,-1.67655 2.55555,-2.45198 1.06314,-0.96377 2.14994,-1.88869 3.22516,-2.834 0.89586,-0.89473 1.92325,-1.59222 2.78753,-2.52814 0.98234,-1.36767 2.00977,-2.6864 3.03359,-4.0154 1.14467,-1.57229 2.34419,-3.08874 3.49351,-4.65542 0.8946,-1.15105 1.63161,-2.44351 2.42788,-3.6838 0.71564,-1.2121 1.40545,-2.43519 2.0546,-3.69701 0.80684,-1.51144 1.50481,-3.0997 2.26417,-4.64538 0.47032,-1.08578 1.10243,-2.05664 1.49643,-3.18688 0.17557,-0.59055 0.48709,-1.09854 0.62139,-1.70721 0.0616,-0.51158 0.32014,-0.92255 0.62833,-1.27318 0.57105,-0.63432 1.34128,0.30625 0.77022,0.94058 l 0,0 c -0.1858,0.19564 -0.30105,0.36866 -0.32244,0.67704 -0.16086,0.65477 -0.44907,1.22745 -0.6646,1.85494 -0.41767,1.18144 -1.05601,2.2108 -1.56078,3.34041 -0.7635,1.55282 -1.46495,3.14869 -2.27542,4.66773 -0.66873,1.29988 -1.38019,2.55971 -2.1183,3.80759 -0.81137,1.26242 -1.56242,2.57819 -2.47348,3.75015 -1.15689,1.57291 -2.35943,3.09973 -3.51109,4.67877 -1.04835,1.35915 -2.09307,2.7143 -3.1084,4.10361 -0.89932,0.95529 -1.93829,1.69874 -2.87092,2.60912 -1.07542,0.94488 -2.16203,1.86975 -3.22493,2.83381 -0.87033,0.76238 -1.70007,1.59463 -2.52388,2.42307 -0.92073,0.86673 -1.72351,1.9007 -2.71014,2.67568 -1.03313,0.8158 -2.11804,1.52463 -3.18675,2.2739 -0.87371,0.65263 -1.79586,1.20552 -2.69375,1.81104 -0.79142,0.42954 -1.4795,1.0677 -2.28273,1.47478 -0.7009,0.45148 -1.40914,0.88167 -2.09624,1.36303 -0.87498,0.56881 -1.7399,1.15114 -2.67139,1.591 -0.60761,0.29982 -1.16186,0.72267 -1.75949,1.04885 -0.62,0.22202 -1.17317,0.60534 -1.783,0.85377 -0.5881,0.29126 -1.16977,0.60044 -1.74487,0.92252 -0.58256,0.31503 -1.18729,0.56141 -1.70196,1.0302 -0.62593,0.33397 -1.23344,0.71743 -1.8581,1.0547 -0.5821,0.3376 -1.17208,0.66259 -1.7956,0.88261 -0.62539,0.33791 -1.251,0.6513 -1.89678,0.93136 -0.60762,0.33032 -1.23643,0.59512 -1.77412,1.08301 -0.72757,0.40178 -1.43204,0.8599 -2.16843,1.24194 -0.62474,0.32147 -1.23377,0.68106 -1.86593,0.98348 -0.58806,0.31445 -1.1659,0.6362 -1.72554,1.01499 -0.68406,0.49866 -1.34031,1.04464 -1.9863,1.60711 -0.64205,0.54894 -1.25725,1.1384 -1.92594,1.64527 -0.75163,0.53519 -1.47741,1.11352 -2.22214,1.6617 -0.80094,0.56782 -1.62256,1.09778 -2.39507,1.71603 -0.48811,0.39867 -0.94724,0.83312 -1.38236,1.30893 -0.51615,0.55518 -0.96932,1.18734 -1.58286,1.60695 -0.49073,0.3715 -0.87456,0.9038 -1.32666,1.33357 -0.67289,0.71351 -1.368,1.4075 -1.81254,2.35596 -0.4724,0.74708 -0.93249,1.51038 -1.34667,2.30133 -0.5155,0.86498 -1.03298,1.72413 -1.63355,2.51358 -0.38656,0.52692 -0.79435,1.03072 -1.1771,1.55996 -0.29937,0.3849 -0.55194,0.82166 -0.84433,1.2163 -0.30427,0.49155 -0.5258,1.03352 -0.80373,1.5447 -0.24499,0.68691 -0.55601,1.3456 -0.84132,2.00896 -0.23434,0.42379 -0.46394,0.84377 -0.70183,1.26664 -0.25725,0.63996 -0.64231,1.1572 -0.99994,1.72223 -0.43869,0.90671 -0.96525,1.75006 -1.43259,2.63594 -0.36112,0.75896 -0.5901,1.55851 -0.82179,2.38093 -0.26331,0.76578 -0.46726,1.56434 -0.71371,2.33801 -0.2488,1.57501 -0.62363,3.11953 -0.82929,4.70228 -0.1116,0.90984 -1.21638,0.72602 -1.10478,-0.18382 z"
       inkscape:connector-curvature="0" />
    <path
       style="fill:#c83737;fill-opacity:0.98293511;stroke:#fe0000;stroke-width:0;stroke-miterlimit:4;stroke-opacity:1;stroke-dasharray:none"
       id="path3064"
       d="m 203.44609,264.61315 c 0.62329,-1.17576 1.36603,-2.25646 2.17489,-3.2644 0.4828,-0.60635 1.09947,-0.94676 1.78881,-1.08324 0.44325,-0.0641 0.89167,-0.0451 1.33725,-0.0376 0.47428,-0.005 0.92466,-0.0169 1.38122,0.136 0.43498,0.23801 0.8736,0.43612 1.25663,0.77829 0.36434,0.37949 0.68982,0.8065 1.02712,1.21788 0.42003,0.41883 0.59529,0.95145 0.67977,1.57179 0.33344,0.50609 0.34062,1.10664 0.23649,1.71579 -0.09,0.43258 -0.14617,0.86934 -0.17936,1.31213 -0.1382,0.61209 -0.43986,1.13636 -0.72173,1.66736 -0.24843,0.53685 -0.59417,1.01112 -0.98169,1.41847 -0.32644,0.49696 -0.67746,0.85904 -1.18382,1.08166 -0.44234,0.1531 -0.90435,0.16503 -1.36194,0.17067 -0.47809,0.0154 -0.93317,0.0229 -1.39417,-0.12379 -0.49477,-0.20532 -0.86246,-0.64023 -1.30714,-0.94453 -0.40039,-0.3585 -0.77206,-0.73687 -1.14561,-1.12835 -0.36493,-0.41902 -0.74567,-0.82487 -1.03668,-1.32103 -0.27629,-0.48382 -0.34226,-1.05673 -0.37139,-1.62264 -0.0139,-0.50441 -0.009,-1.00918 -0.006,-1.51373 -0.0307,-0.6939 0.33829,-1.19975 0.7259,-1.66428 0.35587,-0.30763 0.67525,-0.64407 0.98007,-1.02159 0.35055,-0.46678 0.77751,-0.84505 1.22252,-1.18258 0.36636,-0.45984 0.81881,-0.80187 1.32179,-1.0164 0.47585,-0.17775 1.0039,-0.35411 1.43872,-0.65021 0.42793,-0.33456 0.78311,-0.78054 1.14249,-1.20715 0.44374,-0.45129 0.76718,-1.01719 1.17428,-1.50514 0.23214,-0.43468 0.52777,-0.80989 0.77391,-1.23526 0.0699,-0.24853 0.14465,-0.5018 0.15327,-0.76512 0.007,-0.19074 0.007,-0.38171 0.004,-0.57255 5.5e-4,-0.006 -8.2e-4,-0.0268 -0.002,-0.0357 -0.0534,-0.91697 1.05999,-1.00499 1.11344,-0.088 l 0,0 c 8.2e-4,0.0292 0.004,0.0584 0.004,0.0879 0.004,0.23433 0.005,0.46885 -0.006,0.703 -0.0367,0.48749 -0.1429,0.96369 -0.34155,1.3982 -0.28535,0.491 -0.6184,0.92549 -0.9011,1.41682 -0.41022,0.48359 -0.72821,1.05952 -1.17531,1.50636 -0.43982,0.52193 -0.87777,1.06402 -1.41829,1.44639 -0.50299,0.29285 -1.04962,0.53843 -1.58587,0.72539 -0.429,0.16844 -0.75917,0.52805 -1.08872,0.88257 -0.37465,0.28071 -0.72834,0.586 -1.01638,0.98229 -0.30869,0.38197 -0.63559,0.73249 -0.99412,1.03866 -0.19468,0.23123 -0.43279,0.43217 -0.40869,0.76586 -0.004,0.4764 -0.007,0.95297 0.004,1.42927 0.0157,0.33144 0.0279,0.6859 0.18384,0.97335 0.2356,0.42016 0.57006,0.74555 0.87214,1.0959 0.30536,0.33989 0.62755,0.6394 0.95372,0.96057 0.38726,0.27035 0.70418,0.63821 1.12118,0.84155 0.25819,0.0686 0.67857,0.039 0.99882,0.0444 0.34097,-0.004 0.68615,-0.004 1.01864,-0.10344 0.38663,-0.0904 0.53115,-0.56968 0.81897,-0.84294 0.33201,-0.2664 0.5484,-0.72231 0.75404,-1.11248 0.19514,-0.362 0.37374,-0.72388 0.55699,-1.09334 0.0375,-0.49481 0.10006,-0.98394 0.19927,-1.46759 0.11583,-0.57421 -0.0524,-0.66612 -0.24798,-1.2509 -0.0473,-0.38583 -0.10672,-0.61205 -0.38358,-0.86981 -0.30114,-0.36727 -0.59381,-0.74513 -0.91047,-1.09438 -0.28852,-0.27765 -0.65117,-0.38357 -0.97992,-0.59231 -0.16532,-0.0339 -0.6875,-0.0482 -0.98373,-0.0435 -0.38041,-0.007 -0.76298,-0.0233 -1.14204,0.0209 -0.44808,0.0787 -0.84521,0.29252 -1.15547,0.69156 -0.77358,0.94703 -1.46433,1.98465 -2.05863,3.09411 -0.43774,0.76473 -1.3663,0.0438 -0.92857,-0.72099 z"
       inkscape:connector-curvature="0" />
    <path
       style="fill:#c83737;fill-opacity:0.98293511;stroke:#fe0000;stroke-width:0;stroke-miterlimit:4;stroke-opacity:1;stroke-dasharray:none"
       id="path3066"
       d="m 222.37002,253.24245 c -0.58365,1.73423 -1.21094,3.44727 -1.8501,5.15437 -0.39713,1.07241 -0.59293,2.20611 -0.67032,3.36371 -0.0448,1.00348 -0.30632,1.97254 -0.44602,2.96237 -0.041,0.71346 -0.23946,1.50251 -0.0796,2.20772 0.11789,0.72196 0.4195,1.34949 0.65029,2.02309 0.34056,0.62637 0.54282,1.37258 1.01296,1.89022 0.30895,0.39278 0.60224,0.80219 0.88081,1.22462 0.15837,0.25741 0.39294,0.34862 0.63851,0.46008 0.31982,0.17795 0.4216,0.51301 0.60474,0.82382 0.4281,0.77209 -0.50941,1.4772 -0.93751,0.70512 l 0,0 c -0.02,-0.037 -0.28464,-0.39799 -0.0763,-0.31965 -0.42602,-0.19707 -0.83742,-0.43505 -1.11472,-0.878 -0.25204,-0.38279 -0.51784,-0.75339 -0.79621,-1.11059 -0.54188,-0.67996 -0.88135,-1.50355 -1.25059,-2.31922 -0.24878,-0.74798 -0.5865,-1.45065 -0.70762,-2.2526 -0.12326,-0.88457 -0.0349,-1.7828 0.0743,-2.66674 0.13623,-0.95364 0.38541,-1.88815 0.43456,-2.85313 0.0902,-1.30099 0.31258,-2.57566 0.75988,-3.78045 0.63844,-1.70446 1.26427,-3.41518 1.84727,-5.14675 0.31085,-0.84477 1.33662,-0.33276 1.02576,0.51201 z"
       inkscape:connector-curvature="0" />
    <path
       style="fill:#c83737;fill-opacity:0.98293511;stroke:#fe0000;stroke-width:0;stroke-miterlimit:4;stroke-opacity:1;stroke-dasharray:none"
       id="path3068"
       d="m 228.19535,252.98644 c -0.0132,1.63666 -0.043,3.26105 0.15348,4.88367 0.17958,1.28519 0.3038,2.57924 0.36754,3.87897 -0.0426,0.99936 0.19331,1.95038 0.36547,2.91879 0.13924,0.69181 0.19252,1.39923 0.22228,2.10706 -0.0268,0.3937 0.19676,0.61032 0.41749,0.87571 0.32684,0.37455 0.72031,0.6277 1.16115,0.77986 0.84397,0.28105 1.69194,0.0329 2.53439,-0.1255 0.60713,-0.0469 1.12321,-0.42914 1.67464,-0.68101 0.22009,-0.0467 0.25654,-0.13566 0.36368,-0.33422 0.44124,-0.76198 1.36648,-0.0352 0.92525,0.72676 l 0,0 c -0.22202,0.37283 -0.49858,0.71207 -0.89302,0.8227 -0.62666,0.26121 -1.20277,0.71656 -1.89264,0.74893 -1.0143,0.19075 -2.03558,0.44366 -3.04733,0.0821 -0.61246,-0.23331 -1.16887,-0.58856 -1.63015,-1.11828 -0.39541,-0.48085 -0.74952,-1.00691 -0.72815,-1.71397 -0.0265,-0.64055 -0.0727,-1.28091 -0.20041,-1.90669 -0.1829,-1.02901 -0.42566,-2.04733 -0.38686,-3.10859 -0.0613,-1.26408 -0.18403,-2.52233 -0.35851,-3.77219 -0.20155,-1.683 -0.1823,-3.36695 -0.16429,-5.06415 0,-0.91909 1.11599,-0.91909 1.11599,0 z"
       inkscape:connector-curvature="0" />
    <path
       style="fill:#c83737;fill-opacity:0.98293511;stroke:#fe0000;stroke-width:0;stroke-miterlimit:4;stroke-opacity:1;stroke-dasharray:none"
       id="path3070"
       d="m 225.246,262.05455 c 1.8042,-0.65751 3.65924,-1.08435 5.47088,-1.70802 0.56895,-0.21609 1.14749,-0.40839 1.70114,-0.6757 0.32063,-0.12675 0.66102,-0.0917 0.99468,-0.0892 0.30926,0.003 0.14823,9.6e-4 0.48313,0.004 0.78912,0.006 0.78228,1.30539 -0.006,1.29976 l 0,0 c -0.33598,-0.003 -0.1749,-9.6e-4 -0.48323,-0.004 -0.22606,-0.002 -0.57956,-0.0107 -0.56236,-0.009 -0.59021,0.28225 -1.20351,0.49419 -1.81041,0.7206 -1.82696,0.62796 -3.69655,1.0618 -5.51632,1.72244 -0.76556,0.22292 -1.03624,-1.03806 -0.27067,-1.26097 z"
       inkscape:connector-curvature="0" />
    <path
       style="fill:#c83737;fill-opacity:0.98293511;stroke:#fe0000;stroke-width:0;stroke-miterlimit:4;stroke-opacity:1;stroke-dasharray:none"
       id="path3072"
       d="m 238.92638,252.07815 c 1.2716,0.5474 2.37072,1.45634 3.49039,2.31779 0.55905,0.52506 1.11175,1.05305 1.56868,1.7015 0.20551,0.51041 0.40539,1.01391 0.60499,1.52849 0.19498,0.501 0.23758,1.03887 0.43832,1.53376 0.24115,0.62568 0.36342,1.29489 0.42901,1.97287 -0.0265,0.50807 0.0894,0.86396 0.2504,1.31755 0.20182,0.62739 0.28176,1.29104 0.32409,1.95541 0.0893,0.69645 -0.13854,1.33365 -0.352,1.96804 -0.0991,0.36388 -0.15912,0.73564 -0.18028,1.11554 -0.20893,0.54123 -0.37034,1.11108 -0.61784,1.62912 -0.23167,0.5128 -0.5096,0.98516 -0.81917,1.43764 -0.22112,0.41711 -0.50312,0.76045 -0.69848,1.19995 -0.29953,0.43055 -0.48059,0.93497 -0.74264,1.38828 -0.17507,0.30288 -0.33698,0.61588 -0.49081,0.93394 -0.0137,0.0273 -0.026,0.0555 -0.0389,0.0833 -0.37337,0.8097 -1.35656,0.19472 -0.98319,-0.61498 l 0,0 c 0.0741,-0.15815 -0.051,0.10651 0.0499,-0.10657 0.17797,-0.36748 0.36509,-0.72941 0.57096,-1.07674 0.28833,-0.25967 0.32898,-0.93025 0.64569,-1.20945 0.23141,-0.51169 0.5539,-0.92424 0.81511,-1.40837 0.28365,-0.41344 0.53354,-0.84491 0.74464,-1.31491 0.0852,-0.10111 0.38705,-1.22542 0.45124,-1.02853 0.0305,-0.51244 0.1126,-1.01535 0.25487,-1.50297 0.1575,-0.46693 0.35053,-0.88966 0.27776,-1.40006 -0.0312,-0.52628 -0.0907,-1.05262 -0.24243,-1.55239 -0.19285,-0.5443 -0.34778,-1.07684 -0.32842,-1.67352 -0.0476,-0.53832 -0.14486,-1.06906 -0.33215,-1.56678 -0.19928,-0.50817 -0.28009,-1.03657 -0.44688,-1.55587 -0.1496,-0.41117 -0.35641,-0.79184 -0.44827,-1.23072 -0.38363,-0.5509 -0.856,-0.98444 -1.32023,-1.43969 -1.06273,-0.8209 -2.10455,-1.68893 -3.31399,-2.20693 -0.72532,-0.36205 -0.28571,-1.55674 0.43962,-1.19469 z"
       inkscape:connector-curvature="0" />
  </g>
</svg>
